%TF.GenerationSoftware,KiCad,Pcbnew,9.0.7-9.0.7~ubuntu24.04.1*%
%TF.CreationDate,2026-08-15T18:35:22+02:00*%
%TF.ProjectId,RO_hardware,524f5f68-6172-4647-9761-72652e6b6963,rev?*%
%TF.SameCoordinates,Original*%
%TF.FileFunction,Copper,L4,Bot*%
%TF.FilePolarity,Positive*%
%FSLAX46Y46*%
G04 Gerber Fmt 4.6, Leading zero omitted, Abs format (unit mm)*
G04 Created by KiCad (PCBNEW 9.0.7-9.0.7~ubuntu24.04.1) date 2026-08-15 18:35:22*
%MOMM*%
%LPD*%
G01*
G04 APERTURE LIST*
%TA.AperFunction,ComponentPad*%
%ADD10C,0.650000*%
%TD*%
%TA.AperFunction,ComponentPad*%
%ADD11O,2.100000X1.000000*%
%TD*%
%TA.AperFunction,ComponentPad*%
%ADD12O,1.600000X1.000000*%
%TD*%
%TA.AperFunction,ViaPad*%
%ADD13C,0.600000*%
%TD*%
%TA.AperFunction,Conductor*%
%ADD14C,0.200000*%
%TD*%
%TA.AperFunction,Conductor*%
%ADD15C,0.400000*%
%TD*%
%TA.AperFunction,Conductor*%
%ADD16C,0.500000*%
%TD*%
G04 APERTURE END LIST*
D10*
%TO.P,USB1,*%
%TO.N,*%
X132500000Y-74510000D03*
X132500000Y-80290000D03*
D11*
%TO.P,USB1,0,EP*%
%TO.N,Net-(USB1-EP)*%
X133030000Y-73080000D03*
D12*
X128850000Y-73080000D03*
D11*
X133030000Y-81720000D03*
D12*
X128850000Y-81720000D03*
%TD*%
D13*
%TO.N,GND*%
X193600000Y-77200000D03*
X158800000Y-89400000D03*
X174000000Y-54600000D03*
X168400000Y-121200000D03*
X158600000Y-50250001D03*
X176500000Y-121000000D03*
X167200000Y-103400000D03*
X191400000Y-46000000D03*
X179400000Y-66200000D03*
X179500000Y-83500000D03*
X154075000Y-86200000D03*
X141000000Y-59800000D03*
X193599999Y-119650000D03*
X158800000Y-94200000D03*
X141250000Y-81750000D03*
X143200000Y-86000000D03*
X168500000Y-107000000D03*
X159600000Y-102400000D03*
X187400000Y-65800000D03*
X180500000Y-63000000D03*
X145750000Y-100000000D03*
X189500000Y-69500000D03*
X158800000Y-99000000D03*
X187000000Y-121200000D03*
X157400000Y-89971429D03*
X171000000Y-92400000D03*
X179500000Y-41000000D03*
X154075000Y-83600000D03*
X185250000Y-112250000D03*
X159200000Y-40600000D03*
X177200000Y-109600000D03*
X188100000Y-47750000D03*
X154400000Y-68200000D03*
X184399000Y-57299000D03*
X186400000Y-70400000D03*
X187200000Y-110400000D03*
X185500000Y-121000000D03*
X176600000Y-108200000D03*
X156600000Y-69000000D03*
X189600000Y-65950000D03*
X185250000Y-69200730D03*
X168500000Y-115500000D03*
X178108270Y-50305169D03*
X160400000Y-88257143D03*
X186600000Y-55200000D03*
X163600000Y-82000000D03*
X172600000Y-96400000D03*
X174500000Y-97750000D03*
X172750000Y-98250000D03*
X189250000Y-96000000D03*
X138000000Y-80200000D03*
X175400000Y-46360731D03*
X135250000Y-68500000D03*
X166800000Y-66000000D03*
X138500000Y-85500000D03*
X145400000Y-79000000D03*
X137500000Y-84000000D03*
X177600000Y-61000000D03*
X130250000Y-68750000D03*
X182500000Y-41000000D03*
X193600000Y-108250000D03*
X176200000Y-45160731D03*
X138600000Y-74000000D03*
X154200000Y-71200000D03*
X180500000Y-106500000D03*
X193500000Y-91500000D03*
X193500000Y-58500000D03*
X147800000Y-49549999D03*
X166600000Y-99000000D03*
X148400000Y-90800000D03*
X168400000Y-108250000D03*
X190000000Y-49600000D03*
X170000000Y-89600000D03*
X152200000Y-57200000D03*
X193500000Y-55000000D03*
X183400000Y-67600000D03*
X171000000Y-52960731D03*
X160400000Y-85828571D03*
X179500000Y-78500000D03*
X151600000Y-90000000D03*
X184000000Y-58800000D03*
X184500000Y-65018730D03*
X184350000Y-50000000D03*
X182400000Y-107000000D03*
X172000000Y-92750000D03*
X175250000Y-98250000D03*
X156400000Y-77400000D03*
X134000000Y-67500000D03*
X153000000Y-49749999D03*
X177500000Y-104250000D03*
X193500000Y-113000000D03*
X156400000Y-81800000D03*
X179600000Y-116400000D03*
X129600000Y-65800000D03*
X187400000Y-54400000D03*
X187400000Y-50800000D03*
X188400000Y-64600000D03*
X163400000Y-100400000D03*
X153000000Y-58600000D03*
X168500000Y-61000000D03*
X172400000Y-68400000D03*
X183000000Y-57400000D03*
X190200000Y-68400000D03*
X181800000Y-67200000D03*
X168500000Y-49000000D03*
X134200000Y-96000000D03*
X160400000Y-83400000D03*
X164200000Y-49650001D03*
X193500000Y-95000000D03*
X192225001Y-78750000D03*
X168500000Y-58500000D03*
X181000000Y-83299999D03*
X188500000Y-78500000D03*
X157400000Y-99914286D03*
X178800000Y-60800000D03*
X188500000Y-83500000D03*
X168400001Y-71800000D03*
X171400000Y-95600000D03*
X172800000Y-95600000D03*
X181000001Y-78750001D03*
X155400000Y-78600000D03*
X178108269Y-46649169D03*
X133400000Y-65800000D03*
X151800000Y-71000000D03*
X174400000Y-112800000D03*
X168500000Y-89000000D03*
X185100000Y-50537000D03*
X175900000Y-50660731D03*
X185500000Y-78500000D03*
X181400000Y-114600000D03*
X185100000Y-54219999D03*
X179500000Y-121000000D03*
X168400001Y-53800000D03*
X146200000Y-90800000D03*
X193599999Y-102250000D03*
X138400000Y-90600000D03*
X138898943Y-92600000D03*
X149000000Y-85000000D03*
X161800000Y-94957143D03*
X162200000Y-68800000D03*
X174500000Y-70750000D03*
X161800000Y-97428572D03*
X175000000Y-121200000D03*
X190200000Y-53200000D03*
X189000000Y-72400000D03*
X168400002Y-59800000D03*
X177200000Y-66600000D03*
X193600000Y-83300000D03*
X187400000Y-58600000D03*
X193500000Y-49000000D03*
X178800000Y-68400000D03*
X175600000Y-75800000D03*
X159000000Y-66600000D03*
X144000000Y-81750000D03*
X193500000Y-73000000D03*
X193600001Y-53800000D03*
X157400000Y-102400000D03*
X168500000Y-70500000D03*
X178250000Y-88250000D03*
X173000000Y-87200000D03*
X173500000Y-78500000D03*
X182500000Y-83500000D03*
X169600000Y-64600000D03*
X161800000Y-85071429D03*
X168400001Y-47800000D03*
X193600000Y-42400000D03*
X179600000Y-98200000D03*
X168500000Y-103500000D03*
X159600000Y-121600000D03*
X193500000Y-115500000D03*
X181000000Y-121200001D03*
X168500000Y-55000000D03*
X168400002Y-77200000D03*
X168500000Y-101000000D03*
X161800000Y-92485715D03*
X137600000Y-72600000D03*
X193600001Y-47800000D03*
X168400000Y-90250000D03*
X175800000Y-114800000D03*
X173350000Y-49810731D03*
X168500000Y-95000000D03*
X150800000Y-40600000D03*
X181600000Y-54000000D03*
X193500000Y-107000000D03*
X142200000Y-64200000D03*
X173500000Y-41000000D03*
X175000001Y-40850000D03*
X166400000Y-40600000D03*
X179400000Y-102400000D03*
X184200000Y-99400000D03*
X168500000Y-52500000D03*
X142750000Y-101000000D03*
X182500000Y-121000000D03*
X181200000Y-112600000D03*
X169400000Y-93000000D03*
X175800000Y-66800000D03*
X187000001Y-78750000D03*
X181000000Y-101000000D03*
X146500000Y-76750000D03*
X173400000Y-71800000D03*
X154400000Y-42600000D03*
X169600000Y-68800000D03*
X167000000Y-60600000D03*
X183200000Y-55400000D03*
X186800000Y-91200000D03*
X179800000Y-53000000D03*
X141000000Y-69275000D03*
X193600000Y-59800000D03*
X154075000Y-88725000D03*
X128400000Y-121600000D03*
X148000000Y-100250000D03*
X179425000Y-112575000D03*
X158800000Y-87000000D03*
X193500000Y-67000000D03*
X186000000Y-105400000D03*
X157400000Y-97428571D03*
X178000000Y-96400000D03*
X143400000Y-88000000D03*
X155200000Y-43800000D03*
X168500000Y-91500000D03*
X169775001Y-78750000D03*
X193600000Y-96250000D03*
X192225000Y-83300000D03*
X149200000Y-78400000D03*
X154600000Y-75800000D03*
X187750000Y-96750000D03*
X147200000Y-64000000D03*
X189744003Y-62250000D03*
X184000000Y-97800000D03*
X181750000Y-75250000D03*
X190245002Y-51000000D03*
X157400000Y-92457143D03*
X177400000Y-73550000D03*
X172200000Y-88200000D03*
X141500000Y-100250000D03*
X193500000Y-103500000D03*
X190245002Y-54693170D03*
X185750000Y-113000000D03*
X193600000Y-121200000D03*
X178694139Y-64068580D03*
X139600000Y-75800000D03*
X171200000Y-50760731D03*
X188050000Y-55100000D03*
X173500000Y-97750000D03*
X172400000Y-93800000D03*
X149750000Y-100000000D03*
X167200000Y-101600000D03*
X193500000Y-89000000D03*
X174000000Y-75750000D03*
X171400000Y-56200000D03*
X176600000Y-56000000D03*
X190200000Y-64600000D03*
X146000000Y-65000000D03*
X174400000Y-47160731D03*
X179200000Y-111200000D03*
X170000000Y-73200000D03*
X189600000Y-54500000D03*
X185600000Y-91400000D03*
X179750000Y-61750000D03*
X193500000Y-101000000D03*
X168500000Y-97500000D03*
X173425000Y-110575000D03*
X168500000Y-73000000D03*
X187926201Y-105073799D03*
X188700000Y-50800000D03*
X190200000Y-106400000D03*
X168400001Y-119650000D03*
X181600000Y-51800000D03*
X186000000Y-103200000D03*
X181200000Y-94000000D03*
X135000000Y-80600000D03*
X178250000Y-43360731D03*
X159200000Y-68800000D03*
X183400000Y-72600000D03*
X137500000Y-56500000D03*
X168400000Y-83300000D03*
X188700000Y-54500000D03*
X181750000Y-94750000D03*
X158800000Y-96600000D03*
X181800000Y-97800000D03*
X187200000Y-69600000D03*
X157400000Y-85000000D03*
X185500000Y-83500000D03*
X168500000Y-109500000D03*
X177800000Y-55000000D03*
X167000000Y-58400000D03*
X183400000Y-70000000D03*
X177500000Y-46310731D03*
X133800000Y-101200000D03*
X187000000Y-105250000D03*
X181000001Y-40849999D03*
X179400000Y-75600000D03*
X151800000Y-50749999D03*
X184200000Y-74400000D03*
X150750000Y-101000000D03*
X170000000Y-41000000D03*
X183000000Y-108600000D03*
X168400001Y-84850000D03*
X178200000Y-107400000D03*
X168400001Y-102250000D03*
X161800000Y-82600000D03*
X193600001Y-40850000D03*
X185000000Y-65644729D03*
X173500000Y-83500000D03*
X185400000Y-92800000D03*
X177500000Y-101000000D03*
X168500000Y-64500000D03*
X144500000Y-76750000D03*
X161800000Y-87542857D03*
X152200000Y-59600000D03*
X176500000Y-41000000D03*
X171600000Y-46960731D03*
X180600000Y-108600000D03*
X148800000Y-95800000D03*
X144000000Y-100000000D03*
X176500000Y-78500000D03*
X188728001Y-65900000D03*
X175900000Y-47040001D03*
X160400000Y-97971429D03*
X158800000Y-91800000D03*
X137400000Y-92990000D03*
X178305001Y-70750000D03*
X128400000Y-40400000D03*
X175000001Y-78750000D03*
X155400000Y-41400000D03*
X177500000Y-106500000D03*
X146200000Y-107800000D03*
X172000000Y-111500000D03*
X189750000Y-47100000D03*
X179200000Y-74000000D03*
X179900000Y-113650000D03*
X163400000Y-66200000D03*
X190400000Y-110600000D03*
X177500000Y-98250000D03*
X177500000Y-50060731D03*
X160600000Y-105600000D03*
X178050000Y-74200000D03*
X183200000Y-50000000D03*
X180200000Y-112000000D03*
X142200000Y-68200000D03*
X181000000Y-64800000D03*
X160400000Y-100400000D03*
X172200000Y-103000000D03*
X151400000Y-76000000D03*
X169000000Y-56200000D03*
X182800000Y-112800000D03*
X159650000Y-48800001D03*
X147200000Y-70600000D03*
X170822270Y-45582731D03*
X179750000Y-64000000D03*
X193600001Y-65800000D03*
X176800000Y-52600000D03*
X165400000Y-50250001D03*
X178000000Y-48760731D03*
X193500000Y-52500000D03*
X174800000Y-68400000D03*
X186600000Y-94400000D03*
X181750000Y-74250000D03*
X176600000Y-42710731D03*
X188500000Y-41000000D03*
X175600000Y-74000000D03*
X177000000Y-95200000D03*
X130600000Y-72200000D03*
X143400000Y-70275000D03*
X177200000Y-64800000D03*
X179600000Y-95800000D03*
X168400001Y-65800000D03*
X178750000Y-70000000D03*
X135200000Y-71400000D03*
X183600000Y-65200000D03*
X157383002Y-70906105D03*
X175800000Y-53800000D03*
X134000000Y-63400000D03*
X175800000Y-64600000D03*
X180400000Y-54400000D03*
X176200000Y-48760731D03*
X168400000Y-114250000D03*
X188400000Y-68400000D03*
X193500000Y-109500000D03*
X176550000Y-50010731D03*
X183200000Y-53000000D03*
X166600000Y-49250001D03*
X151000000Y-93000000D03*
X171000000Y-94000000D03*
X154200000Y-74000000D03*
X160400000Y-93114286D03*
X188100000Y-66550000D03*
X160400000Y-95542857D03*
X144800000Y-89200000D03*
X177600000Y-42710731D03*
X144400000Y-62400000D03*
X182000000Y-96200000D03*
X132750000Y-68750000D03*
X185500000Y-41000000D03*
X149000000Y-50549999D03*
X172650000Y-110900000D03*
X157600000Y-80800000D03*
X160400000Y-62400000D03*
X178050000Y-75150000D03*
X136750000Y-82750000D03*
X193600001Y-71800000D03*
X190264038Y-66221305D03*
X177200000Y-72000000D03*
X173800000Y-66800000D03*
X174000000Y-109400000D03*
X186600000Y-66600000D03*
X132000000Y-86400000D03*
X193600000Y-114250000D03*
X150400000Y-49549999D03*
X168500000Y-46500000D03*
X193500000Y-46500000D03*
X159987500Y-47937501D03*
X174200000Y-74200000D03*
X161800000Y-90014286D03*
X146750000Y-101000000D03*
X193500000Y-64500000D03*
X173600000Y-73550000D03*
X144800000Y-69200000D03*
X169800000Y-102800000D03*
X187000001Y-40850000D03*
X175600000Y-93200000D03*
X181200000Y-110600000D03*
X153800000Y-79200000D03*
X148600000Y-65000000D03*
X184490269Y-72350000D03*
X168400001Y-40850000D03*
X151400000Y-74000000D03*
X192225001Y-40850000D03*
X154800000Y-82200000D03*
X168400001Y-78750000D03*
X143200000Y-63000000D03*
X175250000Y-70000000D03*
X181800000Y-44600000D03*
X188099000Y-62849000D03*
X161800000Y-63800000D03*
X177750000Y-89750000D03*
X149400000Y-80400000D03*
X188400000Y-53200000D03*
X162000000Y-104400000D03*
X158600000Y-72600000D03*
X162000000Y-47937501D03*
X159000000Y-63800000D03*
X186400000Y-51600000D03*
X178400000Y-110200000D03*
X187000000Y-83300000D03*
X172250000Y-52810731D03*
X174800000Y-50560731D03*
X175600000Y-116000000D03*
X138400000Y-69200000D03*
X175950000Y-43360731D03*
X152400000Y-80000000D03*
X152400000Y-82200000D03*
X189600000Y-50750000D03*
X177000000Y-69000000D03*
X156600000Y-66200000D03*
X177800000Y-45160731D03*
X163000000Y-121400000D03*
X189000000Y-109200000D03*
X193500000Y-97500000D03*
X171600000Y-64400000D03*
X193600001Y-78750000D03*
X158800000Y-84200000D03*
X139800000Y-68200000D03*
X188750000Y-62250000D03*
X160400000Y-90685714D03*
X131500000Y-67750000D03*
X178250000Y-89000000D03*
X188800000Y-103800000D03*
X159200000Y-80000000D03*
X169600000Y-95200000D03*
X192225000Y-121200000D03*
X175600000Y-94200000D03*
X177939831Y-75810169D03*
X190200000Y-109400000D03*
X157400000Y-75800000D03*
X148000000Y-86800000D03*
X181250000Y-73500000D03*
X184750000Y-111500000D03*
X168500000Y-43000000D03*
X170200000Y-96400000D03*
X176572269Y-46383000D03*
X179200000Y-55600000D03*
X175000000Y-108800000D03*
X179200000Y-94000000D03*
X193600000Y-90250000D03*
X174200000Y-75100000D03*
X182000000Y-71400000D03*
X188500000Y-121000000D03*
X163200000Y-97800000D03*
X193500000Y-70500000D03*
X151750000Y-100000000D03*
X172299999Y-45632730D03*
X157400000Y-94942857D03*
X190292037Y-69749304D03*
X157550001Y-48800000D03*
X166000000Y-100600000D03*
X188400000Y-49600000D03*
X169775000Y-121200000D03*
X168400000Y-96250000D03*
X143599000Y-93200000D03*
X184200000Y-104800000D03*
X171000000Y-66800000D03*
X188088000Y-70088000D03*
X135750000Y-81500000D03*
X175000000Y-83300000D03*
X188100000Y-51500000D03*
X168500000Y-113000000D03*
X171600000Y-74200000D03*
X146400000Y-82200000D03*
X172350000Y-49260731D03*
X181200000Y-68800000D03*
X188700000Y-47100000D03*
X178500000Y-61750000D03*
X193599999Y-84850000D03*
X184500000Y-68750000D03*
X174200000Y-93600000D03*
X145800000Y-61400000D03*
X146000000Y-70000000D03*
X157400000Y-87485714D03*
X175400000Y-95600000D03*
X184400000Y-53650000D03*
X181000000Y-45600000D03*
X180750000Y-105250000D03*
X162600000Y-102600000D03*
X173400000Y-69400000D03*
X188750000Y-96500000D03*
X180000000Y-104250000D03*
X174400000Y-116200000D03*
X138600000Y-59800000D03*
X149000000Y-82500000D03*
X134800000Y-73600000D03*
X173500000Y-121000000D03*
X176500000Y-83500000D03*
X187200000Y-104400000D03*
X193500000Y-61000000D03*
X182500000Y-78500000D03*
X171000000Y-48960731D03*
X168500000Y-67000000D03*
X188750000Y-69500000D03*
X181000000Y-92200000D03*
X181200000Y-57000000D03*
X171350000Y-69950000D03*
X169775000Y-83300000D03*
%TO.N,VDDA*%
X186616269Y-60992732D03*
X185150000Y-42600000D03*
X187851001Y-42795001D03*
X190800000Y-92000000D03*
X166550000Y-46900001D03*
X171931255Y-115489803D03*
X189514326Y-113499752D03*
X175800000Y-85200000D03*
X190400000Y-76400000D03*
%TO.N,VCC*%
X139800000Y-110800000D03*
X151200000Y-88600000D03*
X143600000Y-72225000D03*
X140362500Y-82887500D03*
X139250000Y-80250000D03*
X138600000Y-72200000D03*
X151125000Y-86200000D03*
X141000000Y-85500000D03*
X137400000Y-98400000D03*
X144400000Y-57600000D03*
X141000000Y-72200000D03*
X146000000Y-68000000D03*
X154200000Y-110800000D03*
X164200000Y-97200000D03*
X145800000Y-58500000D03*
X147000000Y-110800000D03*
X148587500Y-71387500D03*
%TO.N,/MCU/NRST*%
X145200000Y-82200000D03*
X148000000Y-79350000D03*
%TO.N,/MCU/SW-1*%
X144800000Y-104800000D03*
X144200000Y-78200000D03*
%TO.N,/MCU/SW-2*%
X140600000Y-78200000D03*
X141600000Y-108400000D03*
%TO.N,/MCU/SW-3*%
X136200000Y-109000000D03*
X139832353Y-77967647D03*
%TO.N,/MCU/SWDIO*%
X138000000Y-94400000D03*
X138000000Y-92400000D03*
%TO.N,/CLK_A*%
X164800000Y-63117000D03*
X149500000Y-69400000D03*
%TO.N,Net-(U3-MR)*%
X175150000Y-64050000D03*
X175400000Y-56000000D03*
%TO.N,Net-(U22-MR)*%
X175500000Y-106450000D03*
X175000000Y-99400000D03*
%TD*%
D14*
%TO.N,/MCU/NRST*%
X145200000Y-82200000D02*
X148000000Y-79400000D01*
%TO.N,/MCU/SW-1*%
X144800000Y-94849943D02*
X144199000Y-94248943D01*
X144199000Y-94248943D02*
X144199000Y-82400943D01*
X144601000Y-81998943D02*
X144601000Y-78601000D01*
X144800000Y-104800000D02*
X144800000Y-94849943D01*
X144601000Y-78601000D02*
X144200000Y-78200000D01*
X144199000Y-82400943D02*
X144601000Y-81998943D01*
%TO.N,/MCU/SW-2*%
X140600000Y-81949943D02*
X141601000Y-82950943D01*
X140963500Y-107763500D02*
X140963500Y-100563443D01*
X141600000Y-108400000D02*
X140963500Y-107763500D01*
X140963500Y-100563443D02*
X140899000Y-100498943D01*
X141601000Y-85962500D02*
X140963500Y-86600000D01*
X140600000Y-81949943D02*
X140600000Y-78200000D01*
X140963500Y-99936557D02*
X140963500Y-86600000D01*
X141601000Y-82950943D02*
X141601000Y-85962500D01*
X140899000Y-100001057D02*
X140963500Y-99936557D01*
X140899000Y-100498943D02*
X140899000Y-100001057D01*
%TO.N,/MCU/SW-3*%
X139851000Y-77986294D02*
X139851000Y-80996829D01*
X139832353Y-77967647D02*
X139851000Y-77986294D01*
X139851000Y-80996829D02*
X139498943Y-81348886D01*
X139498943Y-81348886D02*
X139498943Y-105701057D01*
X139498943Y-105701057D02*
X136200000Y-109000000D01*
%TO.N,/MCU/SWDIO*%
X138000000Y-92400000D02*
X138000000Y-94400000D01*
%TO.N,/CLK_A*%
X164800000Y-63117000D02*
X155683000Y-63117000D01*
X155683000Y-63117000D02*
X149500000Y-69300000D01*
D15*
%TO.N,Net-(U3-MR)*%
X175400000Y-56000000D02*
X175400000Y-63800000D01*
X175400000Y-63800000D02*
X175150000Y-64050000D01*
D16*
%TO.N,Net-(U22-MR)*%
X175000000Y-99400000D02*
X175000000Y-105950000D01*
X175000000Y-105950000D02*
X175500000Y-106450000D01*
%TD*%
M02*
