%TF.GenerationSoftware,KiCad,Pcbnew,9.0.7-9.0.7~ubuntu24.04.1*%
%TF.CreationDate,2026-08-15T18:35:22+02:00*%
%TF.ProjectId,RO_hardware,524f5f68-6172-4647-9761-72652e6b6963,rev?*%
%TF.SameCoordinates,Original*%
%TF.FileFunction,Legend,Top*%
%TF.FilePolarity,Positive*%
%FSLAX46Y46*%
G04 Gerber Fmt 4.6, Leading zero omitted, Abs format (unit mm)*
G04 Created by KiCad (PCBNEW 9.0.7-9.0.7~ubuntu24.04.1) date 2026-08-15 18:35:22*
%MOMM*%
%LPD*%
G01*
G04 APERTURE LIST*
G04 Aperture macros list*
%AMRoundRect*
0 Rectangle with rounded corners*
0 $1 Rounding radius*
0 $2 $3 $4 $5 $6 $7 $8 $9 X,Y pos of 4 corners*
0 Add a 4 corners polygon primitive as box body*
4,1,4,$2,$3,$4,$5,$6,$7,$8,$9,$2,$3,0*
0 Add four circle primitives for the rounded corners*
1,1,$1+$1,$2,$3*
1,1,$1+$1,$4,$5*
1,1,$1+$1,$6,$7*
1,1,$1+$1,$8,$9*
0 Add four rect primitives between the rounded corners*
20,1,$1+$1,$2,$3,$4,$5,0*
20,1,$1+$1,$4,$5,$6,$7,0*
20,1,$1+$1,$6,$7,$8,$9,0*
20,1,$1+$1,$8,$9,$2,$3,0*%
G04 Aperture macros list end*
%ADD10C,0.150000*%
%ADD11C,0.120000*%
%ADD12C,0.250000*%
%ADD13C,0.060000*%
%ADD14RoundRect,0.243750X0.456250X-0.243750X0.456250X0.243750X-0.456250X0.243750X-0.456250X-0.243750X0*%
%ADD15C,0.650000*%
%ADD16O,2.100000X1.000000*%
%ADD17O,1.600000X1.000000*%
%ADD18R,1.450000X0.600000*%
%ADD19R,1.450000X0.300000*%
%ADD20RoundRect,0.135000X0.135000X0.185000X-0.135000X0.185000X-0.135000X-0.185000X0.135000X-0.185000X0*%
%ADD21RoundRect,0.150000X-0.512500X-0.150000X0.512500X-0.150000X0.512500X0.150000X-0.512500X0.150000X0*%
%ADD22RoundRect,0.200000X0.200000X0.275000X-0.200000X0.275000X-0.200000X-0.275000X0.200000X-0.275000X0*%
%ADD23RoundRect,0.250000X-0.250000X-0.475000X0.250000X-0.475000X0.250000X0.475000X-0.250000X0.475000X0*%
%ADD24RoundRect,0.250000X0.512652X0.159099X0.159099X0.512652X-0.512652X-0.159099X-0.159099X-0.512652X0*%
%ADD25RoundRect,0.250000X0.262500X0.450000X-0.262500X0.450000X-0.262500X-0.450000X0.262500X-0.450000X0*%
%ADD26RoundRect,0.250000X0.325000X0.650000X-0.325000X0.650000X-0.325000X-0.650000X0.325000X-0.650000X0*%
%ADD27RoundRect,0.135000X0.185000X-0.135000X0.185000X0.135000X-0.185000X0.135000X-0.185000X-0.135000X0*%
%ADD28RoundRect,0.100000X-0.562500X-0.100000X0.562500X-0.100000X0.562500X0.100000X-0.562500X0.100000X0*%
%ADD29RoundRect,0.140000X0.170000X-0.140000X0.170000X0.140000X-0.170000X0.140000X-0.170000X-0.140000X0*%
%ADD30RoundRect,0.100000X-0.100000X0.562500X-0.100000X-0.562500X0.100000X-0.562500X0.100000X0.562500X0*%
%ADD31RoundRect,0.250000X-0.650000X0.325000X-0.650000X-0.325000X0.650000X-0.325000X0.650000X0.325000X0*%
%ADD32RoundRect,0.250000X0.475000X-0.250000X0.475000X0.250000X-0.475000X0.250000X-0.475000X-0.250000X0*%
%ADD33RoundRect,0.250000X0.450000X-0.262500X0.450000X0.262500X-0.450000X0.262500X-0.450000X-0.262500X0*%
%ADD34RoundRect,0.100000X0.433103X0.574524X-0.574524X-0.433103X-0.433103X-0.574524X0.574524X0.433103X0*%
%ADD35RoundRect,0.200000X0.275000X-0.200000X0.275000X0.200000X-0.275000X0.200000X-0.275000X-0.200000X0*%
%ADD36RoundRect,0.100000X-0.574524X0.433103X0.433103X-0.574524X0.574524X-0.433103X-0.433103X0.574524X0*%
%ADD37RoundRect,0.135000X-0.035355X0.226274X-0.226274X0.035355X0.035355X-0.226274X0.226274X-0.035355X0*%
%ADD38RoundRect,0.140000X-0.140000X-0.170000X0.140000X-0.170000X0.140000X0.170000X-0.140000X0.170000X0*%
%ADD39RoundRect,0.200000X-0.335876X-0.053033X-0.053033X-0.335876X0.335876X0.053033X0.053033X0.335876X0*%
%ADD40R,1.000000X1.000000*%
%ADD41R,1.750000X1.000000*%
%ADD42R,3.300000X1.000000*%
%ADD43R,1.000000X2.100000*%
%ADD44R,1.000000X3.300000*%
%ADD45RoundRect,0.135000X-0.135000X-0.185000X0.135000X-0.185000X0.135000X0.185000X-0.135000X0.185000X0*%
%ADD46RoundRect,0.100000X-0.712500X-0.100000X0.712500X-0.100000X0.712500X0.100000X-0.712500X0.100000X0*%
%ADD47RoundRect,0.100000X0.100000X-0.637500X0.100000X0.637500X-0.100000X0.637500X-0.100000X-0.637500X0*%
%ADD48RoundRect,0.200000X-0.200000X-0.275000X0.200000X-0.275000X0.200000X0.275000X-0.200000X0.275000X0*%
%ADD49RoundRect,0.250000X-0.325000X-0.650000X0.325000X-0.650000X0.325000X0.650000X-0.325000X0.650000X0*%
%ADD50RoundRect,0.075000X0.662500X0.075000X-0.662500X0.075000X-0.662500X-0.075000X0.662500X-0.075000X0*%
%ADD51RoundRect,0.075000X0.075000X0.662500X-0.075000X0.662500X-0.075000X-0.662500X0.075000X-0.662500X0*%
%ADD52RoundRect,0.250000X0.250000X0.475000X-0.250000X0.475000X-0.250000X-0.475000X0.250000X-0.475000X0*%
%ADD53RoundRect,0.135000X-0.226274X-0.035355X-0.035355X-0.226274X0.226274X0.035355X0.035355X0.226274X0*%
%ADD54RoundRect,0.200000X0.335876X0.053033X0.053033X0.335876X-0.335876X-0.053033X-0.053033X-0.335876X0*%
%ADD55RoundRect,0.250000X-0.375000X-0.850000X0.375000X-0.850000X0.375000X0.850000X-0.375000X0.850000X0*%
%ADD56R,0.750000X1.000000*%
%ADD57RoundRect,0.140000X-0.021213X0.219203X-0.219203X0.021213X0.021213X-0.219203X0.219203X-0.021213X0*%
%ADD58RoundRect,0.140000X-0.219203X-0.021213X-0.021213X-0.219203X0.219203X0.021213X0.021213X0.219203X0*%
%ADD59RoundRect,0.250000X0.650000X-0.325000X0.650000X0.325000X-0.650000X0.325000X-0.650000X-0.325000X0*%
%ADD60RoundRect,0.140000X0.219203X0.021213X0.021213X0.219203X-0.219203X-0.021213X-0.021213X-0.219203X0*%
%ADD61RoundRect,0.243750X0.243750X0.456250X-0.243750X0.456250X-0.243750X-0.456250X0.243750X-0.456250X0*%
%ADD62C,0.990600*%
%ADD63C,0.787400*%
%ADD64RoundRect,0.200000X0.053033X-0.335876X0.335876X-0.053033X-0.053033X0.335876X-0.335876X0.053033X0*%
%ADD65RoundRect,0.250000X0.159099X-0.512652X0.512652X-0.159099X-0.159099X0.512652X-0.512652X0.159099X0*%
%ADD66RoundRect,0.135000X0.035355X-0.226274X0.226274X-0.035355X-0.035355X0.226274X-0.226274X0.035355X0*%
%ADD67RoundRect,0.250000X-0.512652X-0.159099X-0.159099X-0.512652X0.512652X0.159099X0.159099X0.512652X0*%
%ADD68RoundRect,0.100000X0.574524X-0.433103X-0.433103X0.574524X-0.574524X0.433103X0.433103X-0.574524X0*%
%ADD69RoundRect,0.250000X-0.262500X-0.450000X0.262500X-0.450000X0.262500X0.450000X-0.262500X0.450000X0*%
G04 APERTURE END LIST*
D10*
X137401819Y-79138094D02*
X138211342Y-79138094D01*
X138211342Y-79138094D02*
X138306580Y-79090475D01*
X138306580Y-79090475D02*
X138354200Y-79042856D01*
X138354200Y-79042856D02*
X138401819Y-78947618D01*
X138401819Y-78947618D02*
X138401819Y-78757142D01*
X138401819Y-78757142D02*
X138354200Y-78661904D01*
X138354200Y-78661904D02*
X138306580Y-78614285D01*
X138306580Y-78614285D02*
X138211342Y-78566666D01*
X138211342Y-78566666D02*
X137401819Y-78566666D01*
X138354200Y-78138094D02*
X138401819Y-77995237D01*
X138401819Y-77995237D02*
X138401819Y-77757142D01*
X138401819Y-77757142D02*
X138354200Y-77661904D01*
X138354200Y-77661904D02*
X138306580Y-77614285D01*
X138306580Y-77614285D02*
X138211342Y-77566666D01*
X138211342Y-77566666D02*
X138116104Y-77566666D01*
X138116104Y-77566666D02*
X138020866Y-77614285D01*
X138020866Y-77614285D02*
X137973247Y-77661904D01*
X137973247Y-77661904D02*
X137925628Y-77757142D01*
X137925628Y-77757142D02*
X137878009Y-77947618D01*
X137878009Y-77947618D02*
X137830390Y-78042856D01*
X137830390Y-78042856D02*
X137782771Y-78090475D01*
X137782771Y-78090475D02*
X137687533Y-78138094D01*
X137687533Y-78138094D02*
X137592295Y-78138094D01*
X137592295Y-78138094D02*
X137497057Y-78090475D01*
X137497057Y-78090475D02*
X137449438Y-78042856D01*
X137449438Y-78042856D02*
X137401819Y-77947618D01*
X137401819Y-77947618D02*
X137401819Y-77709523D01*
X137401819Y-77709523D02*
X137449438Y-77566666D01*
X137878009Y-76804761D02*
X137925628Y-76661904D01*
X137925628Y-76661904D02*
X137973247Y-76614285D01*
X137973247Y-76614285D02*
X138068485Y-76566666D01*
X138068485Y-76566666D02*
X138211342Y-76566666D01*
X138211342Y-76566666D02*
X138306580Y-76614285D01*
X138306580Y-76614285D02*
X138354200Y-76661904D01*
X138354200Y-76661904D02*
X138401819Y-76757142D01*
X138401819Y-76757142D02*
X138401819Y-77138094D01*
X138401819Y-77138094D02*
X137401819Y-77138094D01*
X137401819Y-77138094D02*
X137401819Y-76804761D01*
X137401819Y-76804761D02*
X137449438Y-76709523D01*
X137449438Y-76709523D02*
X137497057Y-76661904D01*
X137497057Y-76661904D02*
X137592295Y-76614285D01*
X137592295Y-76614285D02*
X137687533Y-76614285D01*
X137687533Y-76614285D02*
X137782771Y-76661904D01*
X137782771Y-76661904D02*
X137830390Y-76709523D01*
X137830390Y-76709523D02*
X137878009Y-76804761D01*
X137878009Y-76804761D02*
X137878009Y-77138094D01*
X138401819Y-75614285D02*
X138401819Y-76185713D01*
X138401819Y-75899999D02*
X137401819Y-75899999D01*
X137401819Y-75899999D02*
X137544676Y-75995237D01*
X137544676Y-75995237D02*
X137639914Y-76090475D01*
X137639914Y-76090475D02*
X137687533Y-76185713D01*
D11*
%TO.C,D3*%
X145840000Y-94600000D02*
X145840000Y-97285000D01*
X145840000Y-97285000D02*
X147760000Y-97285000D01*
X147760000Y-97285000D02*
X147760000Y-94600000D01*
D12*
%TO.C,USB1*%
X126190000Y-72930000D02*
X126190000Y-81870000D01*
X126190000Y-72930000D02*
X127840000Y-72930000D01*
X126190000Y-81870000D02*
X127840000Y-81870000D01*
X129870000Y-72930000D02*
X131770000Y-72930000D01*
X129870000Y-81870000D02*
X131770000Y-81870000D01*
D13*
X134180000Y-72930000D02*
G75*
G02*
X134120000Y-72930000I-30000J0D01*
G01*
X134120000Y-72930000D02*
G75*
G02*
X134180000Y-72930000I30000J0D01*
G01*
D11*
%TO.C,R21*%
X174043643Y-102820000D02*
X173736361Y-102820000D01*
X174043643Y-103580000D02*
X173736361Y-103580000D01*
%TO.C,U1*%
X161182500Y-46377501D02*
X163002500Y-46377501D01*
X161182500Y-46427501D02*
X161182500Y-46377501D01*
X161182500Y-49497501D02*
X161182500Y-49447501D01*
X163002500Y-46377501D02*
X163002500Y-46427501D01*
X163002500Y-47547501D02*
X163002500Y-48327501D01*
X163002500Y-49447501D02*
X163002500Y-49497501D01*
X163002500Y-49497501D02*
X161182500Y-49497501D01*
X160642500Y-46427501D02*
X160402500Y-46097501D01*
X160882500Y-46097501D01*
X160642500Y-46427501D01*
G36*
X160642500Y-46427501D02*
G01*
X160402500Y-46097501D01*
X160882500Y-46097501D01*
X160642500Y-46427501D01*
G37*
%TO.C,FB4*%
X188437258Y-60477500D02*
X187962742Y-60477500D01*
X188437258Y-61522500D02*
X187962742Y-61522500D01*
%TO.C,C44*%
X179738748Y-43865000D02*
X180261252Y-43865000D01*
X179738748Y-45335000D02*
X180261252Y-45335000D01*
%TO.C,C60*%
X186536761Y-93376208D02*
X186167294Y-93006741D01*
X187576208Y-92336761D02*
X187206741Y-91967294D01*
%TO.C,R33*%
X146027064Y-46014999D02*
X145572936Y-46014999D01*
X146027064Y-47484999D02*
X145572936Y-47484999D01*
%TO.C,C48*%
X140711252Y-83090000D02*
X139288748Y-83090000D01*
X140711252Y-84910000D02*
X139288748Y-84910000D01*
%TO.C,R8*%
X181979001Y-50528641D02*
X181979001Y-50221359D01*
X182739001Y-50528641D02*
X182739001Y-50221359D01*
%TO.C,U14*%
X185696749Y-48249000D02*
X187031001Y-48249000D01*
X187031001Y-49169000D02*
X187031001Y-49549000D01*
X187031001Y-50469000D02*
X185561001Y-50469000D01*
X185406001Y-48239000D02*
X185266001Y-48049000D01*
X185546001Y-48049000D01*
X185406001Y-48239000D01*
G36*
X185406001Y-48239000D02*
G01*
X185266001Y-48049000D01*
X185546001Y-48049000D01*
X185406001Y-48239000D01*
G37*
%TO.C,C19*%
X188368001Y-67119836D02*
X188368001Y-66904164D01*
X189088001Y-67119836D02*
X189088001Y-66904164D01*
%TO.C,U6*%
X174690000Y-72589317D02*
X174690000Y-71119317D01*
X175990000Y-72589317D02*
X175610000Y-72589317D01*
X176910000Y-71255065D02*
X176910000Y-72589317D01*
X177110000Y-71104317D02*
X176920000Y-70964317D01*
X177110000Y-70824317D01*
X177110000Y-71104317D01*
G36*
X177110000Y-71104317D02*
G01*
X176920000Y-70964317D01*
X177110000Y-70824317D01*
X177110000Y-71104317D01*
G37*
%TO.C,C5*%
X143590000Y-59263748D02*
X143590000Y-60686252D01*
X145410000Y-59263748D02*
X145410000Y-60686252D01*
%TO.C,U2*%
X140155500Y-58282999D02*
X141975500Y-58282999D01*
X140155500Y-58332999D02*
X140155500Y-58282999D01*
X140155500Y-61402999D02*
X140155500Y-61352999D01*
X141975500Y-58282999D02*
X141975500Y-58332999D01*
X141975500Y-59452999D02*
X141975500Y-60232999D01*
X141975500Y-61352999D02*
X141975500Y-61402999D01*
X141975500Y-61402999D02*
X140155500Y-61402999D01*
X139615500Y-58332999D02*
X139375500Y-58002999D01*
X139855500Y-58002999D01*
X139615500Y-58332999D01*
G36*
X139615500Y-58332999D02*
G01*
X139375500Y-58002999D01*
X139855500Y-58002999D01*
X139615500Y-58332999D01*
G37*
%TO.C,C8*%
X182265000Y-75461252D02*
X182265000Y-74938748D01*
X183735000Y-75461252D02*
X183735000Y-74938748D01*
%TO.C,R22*%
X142115001Y-99477064D02*
X142115001Y-99022936D01*
X143585001Y-99477064D02*
X143585001Y-99022936D01*
%TO.C,U19*%
X184171644Y-108022614D02*
X186448528Y-105745730D01*
X184295388Y-108146358D02*
X184171644Y-108022614D01*
X186448528Y-105745730D02*
X186572272Y-105869474D01*
X186448528Y-110299498D02*
X186324784Y-110175754D01*
X188601668Y-107898870D02*
X188725412Y-108022614D01*
X188725412Y-108022614D02*
X186448528Y-110299498D01*
X189397163Y-107577137D02*
X189057752Y-107916548D01*
X188994112Y-107513497D01*
X189397163Y-107577137D01*
G36*
X189397163Y-107577137D02*
G01*
X189057752Y-107916548D01*
X188994112Y-107513497D01*
X189397163Y-107577137D01*
G37*
%TO.C,U15*%
X185696749Y-51894002D02*
X187031001Y-51894002D01*
X187031001Y-52814002D02*
X187031001Y-53194002D01*
X187031001Y-54114002D02*
X185561001Y-54114002D01*
X185406001Y-51884002D02*
X185266001Y-51694002D01*
X185546001Y-51694002D01*
X185406001Y-51884002D01*
G36*
X185406001Y-51884002D02*
G01*
X185266001Y-51694002D01*
X185546001Y-51694002D01*
X185406001Y-51884002D01*
G37*
%TO.C,R34*%
X159477500Y-43662258D02*
X159477500Y-43187742D01*
X160522500Y-43662258D02*
X160522500Y-43187742D01*
%TO.C,C1*%
X133317000Y-69636252D02*
X133317000Y-69113748D01*
X134787000Y-69636252D02*
X134787000Y-69113748D01*
%TO.C,U9*%
X185744481Y-66953731D02*
X187078733Y-66953731D01*
X187078733Y-67873731D02*
X187078733Y-68253731D01*
X187078733Y-69173731D02*
X185608733Y-69173731D01*
X185453733Y-66943731D02*
X185313733Y-66753731D01*
X185593733Y-66753731D01*
X185453733Y-66943731D01*
G36*
X185453733Y-66943731D02*
G01*
X185313733Y-66753731D01*
X185593733Y-66753731D01*
X185453733Y-66943731D01*
G37*
%TO.C,U20*%
X182146125Y-95267567D02*
X182269869Y-95143823D01*
X184299265Y-93114427D02*
X184423009Y-92990683D01*
X184423009Y-92990683D02*
X186699893Y-95267567D01*
X184423009Y-97544451D02*
X182146125Y-95267567D01*
X184546753Y-97420707D02*
X184423009Y-97544451D01*
X186699893Y-95267567D02*
X186576149Y-95391311D01*
X184316943Y-92658343D02*
X183913892Y-92721983D01*
X183977532Y-92318932D01*
X184316943Y-92658343D01*
G36*
X184316943Y-92658343D02*
G01*
X183913892Y-92721983D01*
X183977532Y-92318932D01*
X184316943Y-92658343D01*
G37*
%TO.C,R10*%
X173465941Y-62516659D02*
X173248660Y-62733940D01*
X174003342Y-63054060D02*
X173786061Y-63271341D01*
%TO.C,C31*%
X188349002Y-52006836D02*
X188349002Y-51791164D01*
X189069002Y-52006836D02*
X189069002Y-51791164D01*
%TO.C,C15*%
X173025165Y-73844317D02*
X173240837Y-73844317D01*
X173025165Y-74564317D02*
X173240837Y-74564317D01*
%TO.C,FB7*%
X170262770Y-114601697D02*
X170598303Y-114937230D01*
X171001697Y-113862770D02*
X171337230Y-114198303D01*
%TO.C,R28*%
X191477500Y-44437258D02*
X191477500Y-43962742D01*
X192522500Y-44437258D02*
X192522500Y-43962742D01*
%TO.C,FB6*%
X189637258Y-42277500D02*
X189162742Y-42277500D01*
X189637258Y-43322500D02*
X189162742Y-43322500D01*
%TO.C,J2*%
X168190000Y-86160000D02*
X168190000Y-88340000D01*
X168190000Y-92160000D02*
X168190000Y-94340000D01*
X168190000Y-98160000D02*
X168190000Y-100340000D01*
X168190000Y-104160000D02*
X168190000Y-106340000D01*
X168190000Y-110160000D02*
X168190000Y-112340000D01*
X168190000Y-116160000D02*
X168190000Y-118340000D01*
X173090000Y-83090000D02*
X170910000Y-83090000D01*
X173090000Y-121410000D02*
X170910000Y-121410000D01*
X179090000Y-83090000D02*
X176910000Y-83090000D01*
X179090000Y-121410000D02*
X176910000Y-121410000D01*
X185090000Y-83090000D02*
X182910000Y-83090000D01*
X185090000Y-121410000D02*
X182910000Y-121410000D01*
X191090000Y-83090000D02*
X188910000Y-83090000D01*
X191090000Y-121410000D02*
X188910000Y-121410000D01*
X193810000Y-86160000D02*
X193810000Y-88340000D01*
X193810000Y-92160000D02*
X193810000Y-94340000D01*
X193810000Y-98160000D02*
X193810000Y-100340000D01*
X193810000Y-104160000D02*
X193810000Y-106340000D01*
X193810000Y-110160000D02*
X193810000Y-112340000D01*
X193810000Y-116160000D02*
X193810000Y-118340000D01*
%TO.C,R2*%
X177043358Y-67267318D02*
X177350640Y-67267318D01*
X177043358Y-68027318D02*
X177350640Y-68027318D01*
%TO.C,J3*%
X168190001Y-43710000D02*
X168190001Y-45890000D01*
X168190001Y-49710000D02*
X168190001Y-51890000D01*
X168190001Y-55710000D02*
X168190001Y-57890000D01*
X168190001Y-61710000D02*
X168190001Y-63890000D01*
X168190001Y-67710000D02*
X168190001Y-69890000D01*
X168190001Y-73710000D02*
X168190001Y-75890000D01*
X173090001Y-40640000D02*
X170910001Y-40640000D01*
X173090001Y-78960000D02*
X170910001Y-78960000D01*
X179090001Y-40640000D02*
X176910001Y-40640000D01*
X179090001Y-78960000D02*
X176910001Y-78960000D01*
X185090001Y-40640000D02*
X182910001Y-40640000D01*
X185090001Y-78960000D02*
X182910001Y-78960000D01*
X191090001Y-40640000D02*
X188910001Y-40640000D01*
X191090001Y-78960000D02*
X188910001Y-78960000D01*
X193810001Y-43710000D02*
X193810001Y-45890000D01*
X193810001Y-49710000D02*
X193810001Y-51890000D01*
X193810001Y-55710000D02*
X193810001Y-57890000D01*
X193810001Y-61710000D02*
X193810001Y-63890000D01*
X193810001Y-67710000D02*
X193810001Y-69890000D01*
X193810001Y-73710000D02*
X193810001Y-75890000D01*
%TO.C,C6*%
X175440000Y-55227836D02*
X175440000Y-55012164D01*
X176160000Y-55227836D02*
X176160000Y-55012164D01*
%TO.C,U18*%
X172613002Y-89465000D02*
X175833002Y-89465000D01*
X172613002Y-89640000D02*
X172613002Y-89465000D01*
X172613002Y-92685000D02*
X172613002Y-92510000D01*
X175833002Y-89465000D02*
X175833002Y-89640000D01*
X175833002Y-92510000D02*
X175833002Y-92685000D01*
X175833002Y-92685000D02*
X172613002Y-92685000D01*
X172063002Y-89635000D02*
X171823002Y-89305000D01*
X172303002Y-89305000D01*
X172063002Y-89635000D01*
G36*
X172063002Y-89635000D02*
G01*
X171823002Y-89305000D01*
X172303002Y-89305000D01*
X172063002Y-89635000D01*
G37*
%TO.C,U3*%
X174791002Y-62395500D02*
X174791002Y-57775500D01*
X180261002Y-57775500D02*
X180261002Y-62395500D01*
X175486002Y-64275500D02*
X175006002Y-64275500D01*
X175246002Y-63945500D01*
X175486002Y-64275500D01*
G36*
X175486002Y-64275500D02*
G01*
X175006002Y-64275500D01*
X175246002Y-63945500D01*
X175486002Y-64275500D01*
G37*
%TO.C,C61*%
X148090000Y-47438747D02*
X148090000Y-48861251D01*
X149910000Y-47438747D02*
X149910000Y-48861251D01*
%TO.C,FB11*%
X165562742Y-96677500D02*
X166037258Y-96677500D01*
X165562742Y-97722500D02*
X166037258Y-97722500D01*
%TO.C,C33*%
X188349002Y-55689837D02*
X188349002Y-55474165D01*
X189069002Y-55689837D02*
X189069002Y-55474165D01*
%TO.C,FB3*%
X188562742Y-75877500D02*
X189037258Y-75877500D01*
X188562742Y-76922500D02*
X189037258Y-76922500D01*
%TO.C,C3*%
X140105748Y-62046999D02*
X141528252Y-62046999D01*
X140105748Y-63866999D02*
X141528252Y-63866999D01*
%TO.C,U21*%
X143190000Y-75990000D02*
X143640000Y-75990000D01*
X143190000Y-76440000D02*
X143190000Y-75990000D01*
X143190000Y-83210000D02*
X143190000Y-82760000D01*
X143640000Y-83210000D02*
X143190000Y-83210000D01*
X149960000Y-75990000D02*
X150410000Y-75990000D01*
X150410000Y-75990000D02*
X150410000Y-76440000D01*
X150410000Y-82760000D02*
X150410000Y-83210000D01*
X150410000Y-83210000D02*
X149960000Y-83210000D01*
X151390000Y-83230000D02*
X150710000Y-83230000D01*
X151050000Y-82760000D01*
X151390000Y-83230000D01*
G36*
X151390000Y-83230000D02*
G01*
X150710000Y-83230000D01*
X151050000Y-82760000D01*
X151390000Y-83230000D01*
G37*
%TO.C,C57*%
X174261252Y-87465000D02*
X173738748Y-87465000D01*
X174261252Y-88935000D02*
X173738748Y-88935000D01*
%TO.C,C24*%
X177228270Y-47627837D02*
X177228270Y-47412165D01*
X177948270Y-47627837D02*
X177948270Y-47412165D01*
%TO.C,R9*%
X178845915Y-109865558D02*
X179063196Y-110082839D01*
X179383316Y-109328157D02*
X179600597Y-109545438D01*
%TO.C,R32*%
X189598303Y-94937230D02*
X189262770Y-94601697D01*
X190337230Y-94198303D02*
X190001697Y-93862770D01*
%TO.C,R17*%
X173439941Y-105422659D02*
X173222660Y-105639940D01*
X173977342Y-105960060D02*
X173760061Y-106177341D01*
%TO.C,L2*%
X154938748Y-45690000D02*
X155461252Y-45690000D01*
X154938748Y-47910000D02*
X155461252Y-47910000D01*
%TO.C,C14*%
X173025165Y-74844318D02*
X173240837Y-74844318D01*
X173025165Y-75564318D02*
X173240837Y-75564318D01*
%TO.C,R25*%
X185362742Y-75877500D02*
X185837258Y-75877500D01*
X185362742Y-76922500D02*
X185837258Y-76922500D01*
%TO.C,R14*%
X174394641Y-94464000D02*
X174087359Y-94464000D01*
X174394641Y-95224000D02*
X174087359Y-95224000D01*
%TO.C,C45*%
X190665000Y-48061252D02*
X190665000Y-47538748D01*
X192135000Y-48061252D02*
X192135000Y-47538748D01*
%TO.C,R29*%
X170862770Y-113001697D02*
X171198303Y-113337230D01*
X171601697Y-112262770D02*
X171937230Y-112598303D01*
%TO.C,R20*%
X174043643Y-101620000D02*
X173736361Y-101620000D01*
X174043643Y-102380000D02*
X173736361Y-102380000D01*
%TO.C,R11*%
X172665941Y-61716659D02*
X172448660Y-61933940D01*
X173203342Y-62254060D02*
X172986061Y-62471341D01*
%TO.C,SW2*%
X134400000Y-115050000D02*
X134400000Y-112550000D01*
X134850000Y-112100000D02*
X134400000Y-112550000D01*
X134850000Y-115500000D02*
X134400000Y-115050000D01*
X136150000Y-111050000D02*
X138150000Y-111050000D01*
X136150000Y-116550000D02*
X138150000Y-116550000D01*
X139450000Y-112100000D02*
X139900000Y-112550000D01*
X139450000Y-115500000D02*
X139900000Y-115050000D01*
X139900000Y-115050000D02*
X139900000Y-112550000D01*
%TO.C,C12*%
X176835166Y-74844318D02*
X177050838Y-74844318D01*
X176835166Y-75564318D02*
X177050838Y-75564318D01*
%TO.C,C32*%
X189365002Y-55689836D02*
X189365002Y-55474164D01*
X190085002Y-55689836D02*
X190085002Y-55474164D01*
%TO.C,C20*%
X189384003Y-70675836D02*
X189384003Y-70460164D01*
X190104003Y-70675836D02*
X190104003Y-70460164D01*
%TO.C,C39*%
X185664230Y-111058339D02*
X185511727Y-111210842D01*
X186173347Y-111567456D02*
X186020844Y-111719959D01*
%TO.C,C11*%
X180518165Y-73844316D02*
X180733837Y-73844316D01*
X180518165Y-74564316D02*
X180733837Y-74564316D01*
%TO.C,FB10*%
X190598303Y-93737230D02*
X190262770Y-93401697D01*
X191337230Y-92998303D02*
X191001697Y-92662770D01*
%TO.C,C43*%
X173010000Y-99027836D02*
X173010000Y-98812164D01*
X173730000Y-99027836D02*
X173730000Y-98812164D01*
%TO.C,R30*%
X177637258Y-86277500D02*
X177162742Y-86277500D01*
X177637258Y-87322500D02*
X177162742Y-87322500D01*
%TO.C,D2*%
X141840000Y-94587501D02*
X141840000Y-97272501D01*
X141840000Y-97272501D02*
X143760000Y-97272501D01*
X143760000Y-97272501D02*
X143760000Y-94587501D01*
%TO.C,C7*%
X174440000Y-55227836D02*
X174440000Y-55012164D01*
X175160000Y-55227836D02*
X175160000Y-55012164D01*
%TO.C,FB8*%
X177637258Y-84677500D02*
X177162742Y-84677500D01*
X177637258Y-85722500D02*
X177162742Y-85722500D01*
%TO.C,C22*%
X177228270Y-43944836D02*
X177228270Y-43729164D01*
X177948270Y-43944836D02*
X177948270Y-43729164D01*
%TO.C,R5*%
X182373234Y-66144370D02*
X182373234Y-65837088D01*
X183133234Y-66144370D02*
X183133234Y-65837088D01*
%TO.C,C40*%
X188129780Y-95288896D02*
X188282283Y-95441399D01*
X188638897Y-94779779D02*
X188791400Y-94932282D01*
%TO.C,C4*%
X164490000Y-47138749D02*
X164490000Y-48561253D01*
X166310000Y-47138749D02*
X166310000Y-48561253D01*
%TO.C,FB2*%
X138487258Y-64727500D02*
X138012742Y-64727500D01*
X138487258Y-65772500D02*
X138012742Y-65772500D01*
%TO.C,C46*%
X151888748Y-83890000D02*
X153311252Y-83890000D01*
X151888748Y-85710000D02*
X153311252Y-85710000D01*
%TO.C,C37*%
X176925165Y-88768998D02*
X177140837Y-88768998D01*
X176925165Y-89488998D02*
X177140837Y-89488998D01*
%TO.C,C28*%
X189365001Y-48323836D02*
X189365001Y-48108164D01*
X190085001Y-48323836D02*
X190085001Y-48108164D01*
%TO.C,R24*%
X150014999Y-99477064D02*
X150014999Y-99022936D01*
X151484999Y-99477064D02*
X151484999Y-99022936D01*
%TO.C,C54*%
X146340000Y-71961252D02*
X146340000Y-70538748D01*
X148160000Y-71961252D02*
X148160000Y-70538748D01*
%TO.C,C18*%
X189384003Y-67119837D02*
X189384003Y-66904165D01*
X190104003Y-67119837D02*
X190104003Y-66904165D01*
%TO.C,C23*%
X176212269Y-43944837D02*
X176212269Y-43729165D01*
X176932269Y-43944837D02*
X176932269Y-43729165D01*
%TO.C,C13*%
X176835164Y-73844316D02*
X177050836Y-73844316D01*
X176835164Y-74564316D02*
X177050836Y-74564316D01*
%TO.C,C9*%
X190665000Y-63011251D02*
X190665000Y-62488747D01*
X192135000Y-63011251D02*
X192135000Y-62488747D01*
%TO.C,C58*%
X150890000Y-47488748D02*
X150890000Y-48911252D01*
X152710000Y-47488748D02*
X152710000Y-48911252D01*
%TO.C,U12*%
X173650749Y-47517732D02*
X174985001Y-47517732D01*
X174985001Y-48437732D02*
X174985001Y-48817732D01*
X174985001Y-49737732D02*
X173515001Y-49737732D01*
X173360001Y-47507732D02*
X173220001Y-47317732D01*
X173500001Y-47317732D01*
X173360001Y-47507732D01*
G36*
X173360001Y-47507732D02*
G01*
X173220001Y-47317732D01*
X173500001Y-47317732D01*
X173360001Y-47507732D01*
G37*
%TO.C,C62*%
X172511252Y-55290000D02*
X171088748Y-55290000D01*
X172511252Y-57110000D02*
X171088748Y-57110000D01*
%TO.C,C34*%
X172650583Y-112622196D02*
X172498080Y-112469693D01*
X173159700Y-112113079D02*
X173007197Y-111960576D01*
%TO.C,R6*%
X170020000Y-47574642D02*
X170020000Y-47267360D01*
X170780000Y-47574642D02*
X170780000Y-47267360D01*
%TO.C,SW1*%
X148925000Y-115050000D02*
X148925000Y-112550000D01*
X149375000Y-112100000D02*
X148925000Y-112550000D01*
X149375000Y-115500000D02*
X148925000Y-115050000D01*
X150675000Y-111050000D02*
X152675000Y-111050000D01*
X150675000Y-116550000D02*
X152675000Y-116550000D01*
X153975000Y-112100000D02*
X154425000Y-112550000D01*
X153975000Y-115500000D02*
X154425000Y-115050000D01*
X154425000Y-115050000D02*
X154425000Y-112550000D01*
%TO.C,R26*%
X191437258Y-59677500D02*
X190962742Y-59677500D01*
X191437258Y-60722500D02*
X190962742Y-60722500D01*
%TO.C,D1*%
X146750000Y-59460000D02*
X149435000Y-59460000D01*
X149435000Y-57540000D02*
X146750000Y-57540000D01*
X149435000Y-59460000D02*
X149435000Y-57540000D01*
%TO.C,R19*%
X172605554Y-104559990D02*
X172388273Y-104777271D01*
X173142955Y-105097391D02*
X172925674Y-105314672D01*
%TO.C,R15*%
X173489642Y-60114000D02*
X173182360Y-60114000D01*
X173489642Y-60874000D02*
X173182360Y-60874000D01*
%TO.C,J4*%
X133915000Y-90380000D02*
X134515000Y-89780000D01*
X133915000Y-97960000D02*
X133915000Y-90380000D01*
X134515000Y-89780000D02*
X137415000Y-89780000D01*
X135315000Y-99940000D02*
X133915000Y-97960000D01*
X136615000Y-99940000D02*
X135315000Y-99940000D01*
X137235000Y-97400000D02*
X137235000Y-98035000D01*
X137235000Y-98035000D02*
X136600000Y-98035000D01*
X138015000Y-90380000D02*
X137415000Y-89780000D01*
X138015000Y-90380000D02*
X138015000Y-97960000D01*
X138015000Y-97960000D02*
X136615000Y-99940000D01*
%TO.C,FB9*%
X187862770Y-114398303D02*
X188198303Y-114062770D01*
X188601697Y-115137230D02*
X188937230Y-114801697D01*
%TO.C,R18*%
X174043643Y-100420000D02*
X173736361Y-100420000D01*
X174043643Y-101180000D02*
X173736361Y-101180000D01*
%TO.C,R7*%
X151477064Y-57765000D02*
X151022936Y-57765000D01*
X151477064Y-59235000D02*
X151022936Y-59235000D01*
%TO.C,FB1*%
X165762742Y-54277500D02*
X166237258Y-54277500D01*
X165762742Y-55322500D02*
X166237258Y-55322500D01*
%TO.C,C53*%
X141340000Y-71461252D02*
X141340000Y-70038748D01*
X143160000Y-71461252D02*
X143160000Y-70038748D01*
%TO.C,U7*%
X170879999Y-72589316D02*
X170879999Y-71119316D01*
X172179999Y-72589316D02*
X171799999Y-72589316D01*
X173099999Y-71255064D02*
X173099999Y-72589316D01*
X173299999Y-71104316D02*
X173109999Y-70964316D01*
X173299999Y-70824316D01*
X173299999Y-71104316D01*
G36*
X173299999Y-71104316D02*
G01*
X173109999Y-70964316D01*
X173299999Y-70824316D01*
X173299999Y-71104316D01*
G37*
%TO.C,C59*%
X188295543Y-110265010D02*
X188665010Y-109895543D01*
X189334990Y-111304457D02*
X189704457Y-110934990D01*
%TO.C,C2*%
X157690000Y-47138749D02*
X157690000Y-48561253D01*
X159510000Y-47138749D02*
X159510000Y-48561253D01*
%TO.C,FB5*%
X183362742Y-42077500D02*
X183837258Y-42077500D01*
X183362742Y-43122500D02*
X183837258Y-43122500D01*
%TO.C,C51*%
X138840000Y-71461252D02*
X138840000Y-70038748D01*
X140660000Y-71461252D02*
X140660000Y-70038748D01*
%TO.C,R16*%
X184096948Y-105821842D02*
X184314229Y-105604561D01*
X184634349Y-106359243D02*
X184851630Y-106141962D01*
%TO.C,C49*%
X138961252Y-80590000D02*
X137538748Y-80590000D01*
X138961252Y-82410000D02*
X137538748Y-82410000D01*
%TO.C,C47*%
X151888748Y-86490000D02*
X153311252Y-86490000D01*
X151888748Y-88310000D02*
X153311252Y-88310000D01*
%TO.C,U10*%
X185744482Y-70598731D02*
X187078734Y-70598731D01*
X187078734Y-71518731D02*
X187078734Y-71898731D01*
X187078734Y-72818731D02*
X185608734Y-72818731D01*
X185453734Y-70588731D02*
X185313734Y-70398731D01*
X185593734Y-70398731D01*
X185453734Y-70588731D01*
G36*
X185453734Y-70588731D02*
G01*
X185313734Y-70398731D01*
X185593734Y-70398731D01*
X185453734Y-70588731D01*
G37*
%TO.C,C25*%
X176212269Y-47627837D02*
X176212269Y-47412165D01*
X176932269Y-47627837D02*
X176932269Y-47412165D01*
%TO.C,C17*%
X188368001Y-63436836D02*
X188368001Y-63221164D01*
X189088001Y-63436836D02*
X189088001Y-63221164D01*
%TO.C,R4*%
X136765000Y-74727064D02*
X136765000Y-74272936D01*
X138235000Y-74727064D02*
X138235000Y-74272936D01*
%TO.C,C52*%
X143840000Y-72461252D02*
X143840000Y-71038748D01*
X145660000Y-72461252D02*
X145660000Y-71038748D01*
%TO.C,C38*%
X186387601Y-111821308D02*
X186235098Y-111973811D01*
X186896718Y-112330425D02*
X186744215Y-112482928D01*
%TO.C,C36*%
X176925168Y-87753001D02*
X177140840Y-87753001D01*
X176925168Y-88473001D02*
X177140840Y-88473001D01*
%TO.C,U5*%
X178379999Y-72589317D02*
X178379999Y-71119317D01*
X179679999Y-72589317D02*
X179299999Y-72589317D01*
X180599999Y-71255065D02*
X180599999Y-72589317D01*
X180799999Y-71104317D02*
X180609999Y-70964317D01*
X180799999Y-70824317D01*
X180799999Y-71104317D01*
G36*
X180799999Y-71104317D02*
G01*
X180609999Y-70964317D01*
X180799999Y-70824317D01*
X180799999Y-71104317D01*
G37*
%TO.C,C10*%
X180538164Y-74844318D02*
X180753836Y-74844318D01*
X180538164Y-75564318D02*
X180753836Y-75564318D01*
%TO.C,D4*%
X149840000Y-94612499D02*
X149840000Y-97297499D01*
X149840000Y-97297499D02*
X151760000Y-97297499D01*
X151760000Y-97297499D02*
X151760000Y-94612499D01*
%TO.C,U11*%
X173650751Y-43872730D02*
X174985003Y-43872730D01*
X174985003Y-44792730D02*
X174985003Y-45172730D01*
X174985003Y-46092730D02*
X173515003Y-46092730D01*
X173360003Y-43862730D02*
X173220003Y-43672730D01*
X173500003Y-43672730D01*
X173360003Y-43862730D01*
G36*
X173360003Y-43862730D02*
G01*
X173220003Y-43672730D01*
X173500003Y-43672730D01*
X173360003Y-43862730D01*
G37*
%TO.C,C56*%
X173695543Y-115134990D02*
X174065010Y-115504457D01*
X174734990Y-114095543D02*
X175104457Y-114465010D01*
%TO.C,R23*%
X146065000Y-99477064D02*
X146065000Y-99022936D01*
X147535000Y-99477064D02*
X147535000Y-99022936D01*
%TO.C,R1*%
X130650000Y-69856064D02*
X130650000Y-69401936D01*
X132120000Y-69856064D02*
X132120000Y-69401936D01*
%TO.C,C64*%
X157511252Y-41690000D02*
X156088748Y-41690000D01*
X157511252Y-43510000D02*
X156088748Y-43510000D01*
%TO.C,R12*%
X173489642Y-59014000D02*
X173182360Y-59014000D01*
X173489642Y-59774000D02*
X173182360Y-59774000D01*
%TO.C,U16*%
X185696750Y-55539000D02*
X187031002Y-55539000D01*
X187031002Y-56459000D02*
X187031002Y-56839000D01*
X187031002Y-57759000D02*
X185561002Y-57759000D01*
X185406002Y-55529000D02*
X185266002Y-55339000D01*
X185546002Y-55339000D01*
X185406002Y-55529000D01*
G36*
X185406002Y-55529000D02*
G01*
X185266002Y-55339000D01*
X185546002Y-55339000D01*
X185406002Y-55529000D01*
G37*
%TO.C,U17*%
X174636253Y-112128751D02*
X174759997Y-112005007D01*
X176789393Y-109975611D02*
X176913137Y-109851867D01*
X176913137Y-109851867D02*
X179190021Y-112128751D01*
X176913137Y-114405635D02*
X174636253Y-112128751D01*
X177036881Y-114281891D02*
X176913137Y-114405635D01*
X179190021Y-112128751D02*
X179066277Y-112252495D01*
X177358614Y-115077386D02*
X177019203Y-114737975D01*
X177422254Y-114674335D01*
X177358614Y-115077386D01*
G36*
X177358614Y-115077386D02*
G01*
X177019203Y-114737975D01*
X177422254Y-114674335D01*
X177358614Y-115077386D01*
G37*
%TO.C,C35*%
X173369003Y-111903775D02*
X173216500Y-111751272D01*
X173878120Y-111394658D02*
X173725617Y-111242155D01*
%TO.C,R31*%
X186662770Y-113198303D02*
X186998303Y-112862770D01*
X187401697Y-113937230D02*
X187737230Y-113601697D01*
%TO.C,C26*%
X177228270Y-51239836D02*
X177228270Y-51024164D01*
X177948270Y-51239836D02*
X177948270Y-51024164D01*
%TO.C,U22*%
X175092001Y-104853001D02*
X175092001Y-100233001D01*
X180562001Y-100233001D02*
X180562001Y-104853001D01*
X175787001Y-106733001D02*
X175307001Y-106733001D01*
X175547001Y-106403001D01*
X175787001Y-106733001D01*
G36*
X175787001Y-106733001D02*
G01*
X175307001Y-106733001D01*
X175547001Y-106403001D01*
X175787001Y-106733001D01*
G37*
%TO.C,C21*%
X188368001Y-70675836D02*
X188368001Y-70460164D01*
X189088001Y-70675836D02*
X189088001Y-70460164D01*
%TO.C,C42*%
X174040001Y-99027836D02*
X174040001Y-98812164D01*
X174760001Y-99027836D02*
X174760001Y-98812164D01*
%TO.C,C41*%
X187411361Y-96007316D02*
X187563864Y-96159819D01*
X187920478Y-95498199D02*
X188072981Y-95650702D01*
%TO.C,C16*%
X189384003Y-63436836D02*
X189384003Y-63221164D01*
X190104003Y-63436836D02*
X190104003Y-63221164D01*
%TO.C,C50*%
X141754235Y-73590000D02*
X140331731Y-73590000D01*
X141754235Y-75410000D02*
X140331731Y-75410000D01*
%TO.C,C29*%
X188349002Y-48323836D02*
X188349002Y-48108164D01*
X189069002Y-48323836D02*
X189069002Y-48108164D01*
%TO.C,C63*%
X170490000Y-98511252D02*
X170490000Y-97088748D01*
X172310000Y-98511252D02*
X172310000Y-97088748D01*
%TO.C,U8*%
X185744483Y-63308729D02*
X187078735Y-63308729D01*
X187078735Y-64228729D02*
X187078735Y-64608729D01*
X187078735Y-65528729D02*
X185608735Y-65528729D01*
X185453735Y-63298729D02*
X185313735Y-63108729D01*
X185593735Y-63108729D01*
X185453735Y-63298729D01*
G36*
X185453735Y-63298729D02*
G01*
X185313735Y-63108729D01*
X185593735Y-63108729D01*
X185453735Y-63298729D01*
G37*
%TO.C,C30*%
X189365002Y-52006836D02*
X189365002Y-51791164D01*
X190085002Y-52006836D02*
X190085002Y-51791164D01*
%TO.C,C27*%
X176212269Y-51239837D02*
X176212269Y-51024165D01*
X176932269Y-51239837D02*
X176932269Y-51024165D01*
%TO.C,R3*%
X136772936Y-78385000D02*
X137227064Y-78385000D01*
X136772936Y-79855000D02*
X137227064Y-79855000D01*
%TO.C,C55*%
X146340000Y-67211252D02*
X146340000Y-65788748D01*
X148160000Y-67211252D02*
X148160000Y-65788748D01*
%TO.C,SW3*%
X141662500Y-115050000D02*
X141662500Y-112550000D01*
X142112500Y-112100000D02*
X141662500Y-112550000D01*
X142112500Y-115500000D02*
X141662500Y-115050000D01*
X143412500Y-111050000D02*
X145412500Y-111050000D01*
X143412500Y-116550000D02*
X145412500Y-116550000D01*
X146712500Y-112100000D02*
X147162500Y-112550000D01*
X146712500Y-115500000D02*
X147162500Y-115050000D01*
X147162500Y-115050000D02*
X147162500Y-112550000D01*
%TO.C,R27*%
X180162742Y-42077500D02*
X180637258Y-42077500D01*
X180162742Y-43122500D02*
X180637258Y-43122500D01*
%TO.C,U13*%
X173650749Y-51162732D02*
X174985001Y-51162732D01*
X174985001Y-52082732D02*
X174985001Y-52462732D01*
X174985001Y-53382732D02*
X173515001Y-53382732D01*
X173360001Y-51152732D02*
X173220001Y-50962732D01*
X173500001Y-50962732D01*
X173360001Y-51152732D01*
G36*
X173360001Y-51152732D02*
G01*
X173220001Y-50962732D01*
X173500001Y-50962732D01*
X173360001Y-51152732D01*
G37*
%TO.C,R13*%
X173489641Y-57913999D02*
X173182359Y-57913999D01*
X173489641Y-58673999D02*
X173182359Y-58673999D01*
%TD*%
%LPC*%
D14*
%TO.C,D3*%
X146800000Y-96537500D03*
X146800000Y-94662500D03*
%TD*%
D15*
%TO.C,USB1*%
X132500000Y-74510000D03*
X132500000Y-80290000D03*
D16*
X133030000Y-73080000D03*
D17*
X128850000Y-73080000D03*
D16*
X133030000Y-81720000D03*
D17*
X128850000Y-81720000D03*
D18*
X133950000Y-74170000D03*
X133950000Y-74980000D03*
D19*
X133950000Y-76150000D03*
X133950000Y-77150000D03*
X133950000Y-77650000D03*
X133950000Y-78650000D03*
D18*
X133950000Y-80630000D03*
X133950000Y-79830000D03*
D19*
X133950000Y-79150000D03*
X133950000Y-78150000D03*
X133950000Y-76650000D03*
X133950000Y-75650000D03*
%TD*%
D20*
%TO.C,R21*%
X174400002Y-103200000D03*
X173380002Y-103200000D03*
%TD*%
D21*
%TO.C,U1*%
X160955000Y-46987501D03*
X160955000Y-47937501D03*
X160955000Y-48887501D03*
X163230000Y-48887501D03*
X163230000Y-46987501D03*
%TD*%
D22*
%TO.C,FB4*%
X189025000Y-61000000D03*
X187375000Y-61000000D03*
%TD*%
D23*
%TO.C,C44*%
X179050000Y-44600000D03*
X180950000Y-44600000D03*
%TD*%
D24*
%TO.C,C60*%
X187543502Y-93343502D03*
X186200000Y-92000000D03*
%TD*%
D25*
%TO.C,R33*%
X146712500Y-46749999D03*
X144887500Y-46749999D03*
%TD*%
D26*
%TO.C,C48*%
X141475000Y-84000000D03*
X138525000Y-84000000D03*
%TD*%
D27*
%TO.C,R8*%
X182359001Y-50885000D03*
X182359001Y-49865000D03*
%TD*%
D28*
%TO.C,U14*%
X185408501Y-48709000D03*
X185408501Y-49359000D03*
X185408501Y-50009000D03*
X187183501Y-50009000D03*
X187183501Y-48709000D03*
%TD*%
D29*
%TO.C,C19*%
X188728001Y-67492000D03*
X188728001Y-66532000D03*
%TD*%
D30*
%TO.C,U6*%
X176450000Y-70966817D03*
X175800000Y-70966817D03*
X175150000Y-70966817D03*
X175150000Y-72741817D03*
X176450000Y-72741817D03*
%TD*%
D31*
%TO.C,C5*%
X144500000Y-58500000D03*
X144500000Y-61450000D03*
%TD*%
D21*
%TO.C,U2*%
X139928000Y-58892999D03*
X139928000Y-59842999D03*
X139928000Y-60792999D03*
X142203000Y-60792999D03*
X142203000Y-58892999D03*
%TD*%
D32*
%TO.C,C8*%
X183000000Y-76150000D03*
X183000000Y-74250000D03*
%TD*%
D33*
%TO.C,R22*%
X142850001Y-100162500D03*
X142850001Y-98337500D03*
%TD*%
D34*
%TO.C,U19*%
X188631720Y-107218280D03*
X188172101Y-106758661D03*
X187712481Y-106299041D03*
X187252862Y-105839422D03*
X184265336Y-108826948D03*
X184724955Y-109286567D03*
X185184575Y-109746187D03*
X185644194Y-110205806D03*
%TD*%
D28*
%TO.C,U15*%
X185408501Y-52354002D03*
X185408501Y-53004002D03*
X185408501Y-53654002D03*
X187183501Y-53654002D03*
X187183501Y-52354002D03*
%TD*%
D35*
%TO.C,R34*%
X160000000Y-44250000D03*
X160000000Y-42600000D03*
%TD*%
D32*
%TO.C,C1*%
X134052000Y-70325000D03*
X134052000Y-68425000D03*
%TD*%
D28*
%TO.C,U9*%
X185456233Y-67413731D03*
X185456233Y-68063731D03*
X185456233Y-68713731D03*
X187231233Y-68713731D03*
X187231233Y-67413731D03*
%TD*%
D36*
%TO.C,U20*%
X183618675Y-93084375D03*
X183159056Y-93543994D03*
X182699436Y-94003614D03*
X182239817Y-94463233D03*
X185227343Y-97450759D03*
X185686962Y-96991140D03*
X186146582Y-96531520D03*
X186606201Y-96071901D03*
%TD*%
D37*
%TO.C,R10*%
X173986625Y-62533376D03*
X173265377Y-63254624D03*
%TD*%
D29*
%TO.C,C31*%
X188709002Y-52379000D03*
X188709002Y-51419000D03*
%TD*%
D38*
%TO.C,C15*%
X172653001Y-74204317D03*
X173613001Y-74204317D03*
%TD*%
D39*
%TO.C,FB7*%
X170216637Y-113816637D03*
X171383363Y-114983363D03*
%TD*%
D35*
%TO.C,R28*%
X192000000Y-45025000D03*
X192000000Y-43375000D03*
%TD*%
D22*
%TO.C,FB6*%
X190225000Y-42800000D03*
X188575000Y-42800000D03*
%TD*%
D40*
%TO.C,J2*%
X193600000Y-83300000D03*
D41*
X192225000Y-83300000D03*
D42*
X187000000Y-83300000D03*
X181000000Y-83300000D03*
X175000000Y-83300000D03*
D41*
X169775000Y-83300000D03*
D40*
X168400000Y-83300000D03*
D43*
X193600000Y-84850000D03*
X168400000Y-84850000D03*
D44*
X193600000Y-90250000D03*
X168400000Y-90250000D03*
X193600000Y-96250000D03*
X168400000Y-96250000D03*
X193600000Y-102250000D03*
X168400000Y-102250000D03*
X193600000Y-108250000D03*
X168400000Y-108250000D03*
X193600000Y-114250000D03*
X168400000Y-114250000D03*
D43*
X193600000Y-119650000D03*
X168400000Y-119650000D03*
D40*
X193600000Y-121200000D03*
D41*
X192225000Y-121200000D03*
D42*
X187000000Y-121200000D03*
X181000000Y-121200000D03*
X175000000Y-121200000D03*
D41*
X169775000Y-121200000D03*
D40*
X168400000Y-121200000D03*
%TD*%
D45*
%TO.C,R2*%
X176686999Y-67647318D03*
X177706999Y-67647318D03*
%TD*%
D40*
%TO.C,J3*%
X193600001Y-40850000D03*
D41*
X192225001Y-40850000D03*
D42*
X187000001Y-40850000D03*
X181000001Y-40850000D03*
X175000001Y-40850000D03*
D41*
X169775001Y-40850000D03*
D40*
X168400001Y-40850000D03*
D43*
X193600001Y-42400000D03*
X168400001Y-42400000D03*
D44*
X193600001Y-47800000D03*
X168400001Y-47800000D03*
X193600001Y-53800000D03*
X168400001Y-53800000D03*
X193600001Y-59800000D03*
X168400001Y-59800000D03*
X193600001Y-65800000D03*
X168400001Y-65800000D03*
X193600001Y-71800000D03*
X168400001Y-71800000D03*
D43*
X193600001Y-77200000D03*
X168400001Y-77200000D03*
D40*
X193600001Y-78750000D03*
D41*
X192225001Y-78750000D03*
D42*
X187000001Y-78750000D03*
X181000001Y-78750000D03*
X175000001Y-78750000D03*
D41*
X169775001Y-78750000D03*
D40*
X168400001Y-78750000D03*
%TD*%
D29*
%TO.C,C6*%
X175800000Y-55600000D03*
X175800000Y-54640000D03*
%TD*%
D46*
%TO.C,U18*%
X172110502Y-90100000D03*
X172110502Y-90750000D03*
X172110502Y-91400000D03*
X172110502Y-92050000D03*
X176335502Y-92050000D03*
X176335502Y-91400000D03*
X176335502Y-90750000D03*
X176335502Y-90100000D03*
%TD*%
D47*
%TO.C,U3*%
X175251002Y-62948000D03*
X175901002Y-62948000D03*
X176551002Y-62948000D03*
X177201002Y-62948000D03*
X177851002Y-62948000D03*
X178501002Y-62948000D03*
X179151002Y-62948000D03*
X179801002Y-62948000D03*
X179801002Y-57223000D03*
X179151002Y-57223000D03*
X178501002Y-57223000D03*
X177851002Y-57223000D03*
X177201002Y-57223000D03*
X176551002Y-57223000D03*
X175901002Y-57223000D03*
X175251002Y-57223000D03*
%TD*%
D31*
%TO.C,C61*%
X149000000Y-46674999D03*
X149000000Y-49624999D03*
%TD*%
D48*
%TO.C,FB11*%
X164975000Y-97200000D03*
X166625000Y-97200000D03*
%TD*%
D29*
%TO.C,C33*%
X188709002Y-56062001D03*
X188709002Y-55102001D03*
%TD*%
D48*
%TO.C,FB3*%
X187975000Y-76400000D03*
X189625000Y-76400000D03*
%TD*%
D49*
%TO.C,C3*%
X139342000Y-62956999D03*
X142292000Y-62956999D03*
%TD*%
D50*
%TO.C,U21*%
X150962500Y-82350000D03*
X150962500Y-81850000D03*
X150962500Y-81350000D03*
X150962500Y-80850000D03*
X150962500Y-80350000D03*
X150962500Y-79850000D03*
X150962500Y-79350000D03*
X150962500Y-78850000D03*
X150962500Y-78350000D03*
X150962500Y-77850000D03*
X150962500Y-77350000D03*
X150962500Y-76850000D03*
D51*
X149550000Y-75437500D03*
X149050000Y-75437500D03*
X148550000Y-75437500D03*
X148050000Y-75437500D03*
X147550000Y-75437500D03*
X147050000Y-75437500D03*
X146550000Y-75437500D03*
X146050000Y-75437500D03*
X145550000Y-75437500D03*
X145050000Y-75437500D03*
X144550000Y-75437500D03*
X144050000Y-75437500D03*
D50*
X142637500Y-76850000D03*
X142637500Y-77350000D03*
X142637500Y-77850000D03*
X142637500Y-78350000D03*
X142637500Y-78850000D03*
X142637500Y-79350000D03*
X142637500Y-79850000D03*
X142637500Y-80350000D03*
X142637500Y-80850000D03*
X142637500Y-81350000D03*
X142637500Y-81850000D03*
X142637500Y-82350000D03*
D51*
X144050000Y-83762500D03*
X144550000Y-83762500D03*
X145050000Y-83762500D03*
X145550000Y-83762500D03*
X146050000Y-83762500D03*
X146550000Y-83762500D03*
X147050000Y-83762500D03*
X147550000Y-83762500D03*
X148050000Y-83762500D03*
X148550000Y-83762500D03*
X149050000Y-83762500D03*
X149550000Y-83762500D03*
%TD*%
D52*
%TO.C,C57*%
X174950000Y-88200000D03*
X173050000Y-88200000D03*
%TD*%
D29*
%TO.C,C24*%
X177588270Y-48000001D03*
X177588270Y-47040001D03*
%TD*%
D53*
%TO.C,R9*%
X178862632Y-109344874D03*
X179583880Y-110066122D03*
%TD*%
D54*
%TO.C,R32*%
X190383363Y-94983363D03*
X189216637Y-93816637D03*
%TD*%
D37*
%TO.C,R17*%
X173960625Y-105439376D03*
X173239377Y-106160624D03*
%TD*%
D55*
%TO.C,L2*%
X154125000Y-46800000D03*
X156275000Y-46800000D03*
%TD*%
D38*
%TO.C,C14*%
X172653001Y-75204318D03*
X173613001Y-75204318D03*
%TD*%
D48*
%TO.C,R25*%
X184775000Y-76400000D03*
X186425000Y-76400000D03*
%TD*%
D20*
%TO.C,R14*%
X174751000Y-94844000D03*
X173731000Y-94844000D03*
%TD*%
D32*
%TO.C,C45*%
X191400000Y-48750000D03*
X191400000Y-46850000D03*
%TD*%
D39*
%TO.C,R29*%
X170816637Y-112216637D03*
X171983363Y-113383363D03*
%TD*%
D20*
%TO.C,R20*%
X174400002Y-102000000D03*
X173380002Y-102000000D03*
%TD*%
D37*
%TO.C,R11*%
X173186625Y-61733376D03*
X172465377Y-62454624D03*
%TD*%
D56*
%TO.C,SW2*%
X135275000Y-116800000D03*
X135275000Y-110800000D03*
X139025000Y-116800000D03*
X139025000Y-110800000D03*
%TD*%
D38*
%TO.C,C12*%
X176463002Y-75204318D03*
X177423002Y-75204318D03*
%TD*%
D29*
%TO.C,C32*%
X189725002Y-56062000D03*
X189725002Y-55102000D03*
%TD*%
%TO.C,C20*%
X189744003Y-71048000D03*
X189744003Y-70088000D03*
%TD*%
D57*
%TO.C,C39*%
X186181948Y-111049738D03*
X185503126Y-111728560D03*
%TD*%
D38*
%TO.C,C11*%
X180146001Y-74204316D03*
X181106001Y-74204316D03*
%TD*%
D54*
%TO.C,FB10*%
X191383363Y-93783363D03*
X190216637Y-92616637D03*
%TD*%
D29*
%TO.C,C43*%
X173370000Y-99400000D03*
X173370000Y-98440000D03*
%TD*%
D22*
%TO.C,R30*%
X178225000Y-86800000D03*
X176575000Y-86800000D03*
%TD*%
D14*
%TO.C,D2*%
X142800000Y-96525001D03*
X142800000Y-94650001D03*
%TD*%
D29*
%TO.C,C7*%
X174800000Y-55600000D03*
X174800000Y-54640000D03*
%TD*%
D22*
%TO.C,FB8*%
X178225000Y-85200000D03*
X176575000Y-85200000D03*
%TD*%
D29*
%TO.C,C22*%
X177588270Y-44317000D03*
X177588270Y-43357000D03*
%TD*%
D27*
%TO.C,R5*%
X182753234Y-66500729D03*
X182753234Y-65480729D03*
%TD*%
D58*
%TO.C,C40*%
X188121179Y-94771178D03*
X188800001Y-95450000D03*
%TD*%
D31*
%TO.C,C4*%
X165400000Y-46375001D03*
X165400000Y-49325001D03*
%TD*%
D22*
%TO.C,FB2*%
X139075000Y-65250000D03*
X137425000Y-65250000D03*
%TD*%
D49*
%TO.C,C46*%
X151125000Y-84800000D03*
X154075000Y-84800000D03*
%TD*%
D38*
%TO.C,C37*%
X176553001Y-89128998D03*
X177513001Y-89128998D03*
%TD*%
D29*
%TO.C,C28*%
X189725001Y-48696000D03*
X189725001Y-47736000D03*
%TD*%
D33*
%TO.C,R24*%
X150749999Y-100162500D03*
X150749999Y-98337500D03*
%TD*%
D59*
%TO.C,C54*%
X147250000Y-72725000D03*
X147250000Y-69775000D03*
%TD*%
D29*
%TO.C,C18*%
X189744003Y-67492001D03*
X189744003Y-66532001D03*
%TD*%
%TO.C,C23*%
X176572269Y-44317001D03*
X176572269Y-43357001D03*
%TD*%
D38*
%TO.C,C13*%
X176463000Y-74204316D03*
X177423000Y-74204316D03*
%TD*%
D32*
%TO.C,C9*%
X191400000Y-63699999D03*
X191400000Y-61799999D03*
%TD*%
D31*
%TO.C,C58*%
X151800000Y-46725000D03*
X151800000Y-49675000D03*
%TD*%
D28*
%TO.C,U12*%
X173362501Y-47977732D03*
X173362501Y-48627732D03*
X173362501Y-49277732D03*
X175137501Y-49277732D03*
X175137501Y-47977732D03*
%TD*%
D26*
%TO.C,C62*%
X173275000Y-56200000D03*
X170325000Y-56200000D03*
%TD*%
D60*
%TO.C,C34*%
X173168301Y-112630797D03*
X172489479Y-111951975D03*
%TD*%
D27*
%TO.C,R6*%
X170400000Y-47931001D03*
X170400000Y-46911001D03*
%TD*%
D56*
%TO.C,SW1*%
X149800000Y-116800000D03*
X149800000Y-110800000D03*
X153550000Y-116800000D03*
X153550000Y-110800000D03*
%TD*%
D22*
%TO.C,R26*%
X192025000Y-60200000D03*
X190375000Y-60200000D03*
%TD*%
D61*
%TO.C,D1*%
X148687500Y-58500000D03*
X146812500Y-58500000D03*
%TD*%
D37*
%TO.C,R19*%
X173126238Y-104576707D03*
X172404990Y-105297955D03*
%TD*%
D20*
%TO.C,R15*%
X173846001Y-60494000D03*
X172826001Y-60494000D03*
%TD*%
D62*
%TO.C,J4*%
X135965000Y-98670000D03*
X134949000Y-91050000D03*
X136981000Y-91050000D03*
D63*
X136600000Y-97400000D03*
X136600000Y-96130000D03*
X136600000Y-94860000D03*
X136600000Y-93590000D03*
X136600000Y-92320000D03*
X135330000Y-92320000D03*
X135330000Y-93590000D03*
X135330000Y-94860000D03*
X135330000Y-96130000D03*
X135330000Y-97400000D03*
%TD*%
D64*
%TO.C,FB9*%
X187816637Y-115183363D03*
X188983363Y-114016637D03*
%TD*%
D20*
%TO.C,R18*%
X174400002Y-100800000D03*
X173380002Y-100800000D03*
%TD*%
D25*
%TO.C,R7*%
X152162500Y-58500000D03*
X150337500Y-58500000D03*
%TD*%
D48*
%TO.C,FB1*%
X165175000Y-54800000D03*
X166825000Y-54800000D03*
%TD*%
D59*
%TO.C,C53*%
X142250000Y-72225000D03*
X142250000Y-69275000D03*
%TD*%
D30*
%TO.C,U7*%
X172639999Y-70966816D03*
X171989999Y-70966816D03*
X171339999Y-70966816D03*
X171339999Y-72741816D03*
X172639999Y-72741816D03*
%TD*%
D65*
%TO.C,C59*%
X188328249Y-111271751D03*
X189671751Y-109928249D03*
%TD*%
D31*
%TO.C,C2*%
X158600000Y-46375001D03*
X158600000Y-49325001D03*
%TD*%
D48*
%TO.C,FB5*%
X182775000Y-42600000D03*
X184425000Y-42600000D03*
%TD*%
D59*
%TO.C,C51*%
X139750000Y-72225000D03*
X139750000Y-69275000D03*
%TD*%
D66*
%TO.C,R16*%
X184113665Y-106342526D03*
X184834913Y-105621278D03*
%TD*%
D26*
%TO.C,C49*%
X139725000Y-81500000D03*
X136775000Y-81500000D03*
%TD*%
D49*
%TO.C,C47*%
X151125000Y-87400000D03*
X154075000Y-87400000D03*
%TD*%
D28*
%TO.C,U10*%
X185456234Y-71058731D03*
X185456234Y-71708731D03*
X185456234Y-72358731D03*
X187231234Y-72358731D03*
X187231234Y-71058731D03*
%TD*%
D29*
%TO.C,C25*%
X176572269Y-48000001D03*
X176572269Y-47040001D03*
%TD*%
%TO.C,C17*%
X188728001Y-63809000D03*
X188728001Y-62849000D03*
%TD*%
D33*
%TO.C,R4*%
X137500000Y-75412500D03*
X137500000Y-73587500D03*
%TD*%
D59*
%TO.C,C52*%
X144750000Y-73225000D03*
X144750000Y-70275000D03*
%TD*%
D57*
%TO.C,C38*%
X186905319Y-111812707D03*
X186226497Y-112491529D03*
%TD*%
D38*
%TO.C,C36*%
X176553004Y-88113001D03*
X177513004Y-88113001D03*
%TD*%
D30*
%TO.C,U5*%
X180139999Y-70966817D03*
X179489999Y-70966817D03*
X178839999Y-70966817D03*
X178839999Y-72741817D03*
X180139999Y-72741817D03*
%TD*%
D38*
%TO.C,C10*%
X180166000Y-75204318D03*
X181126000Y-75204318D03*
%TD*%
D14*
%TO.C,D4*%
X150800000Y-96549999D03*
X150800000Y-94674999D03*
%TD*%
D28*
%TO.C,U11*%
X173362503Y-44332730D03*
X173362503Y-44982730D03*
X173362503Y-45632730D03*
X175137503Y-45632730D03*
X175137503Y-44332730D03*
%TD*%
D67*
%TO.C,C56*%
X173728249Y-114128249D03*
X175071751Y-115471751D03*
%TD*%
D33*
%TO.C,R23*%
X146800000Y-100162500D03*
X146800000Y-98337500D03*
%TD*%
%TO.C,R1*%
X131385000Y-70541500D03*
X131385000Y-68716500D03*
%TD*%
D26*
%TO.C,C64*%
X158275000Y-42600000D03*
X155325000Y-42600000D03*
%TD*%
D20*
%TO.C,R12*%
X173846001Y-59394000D03*
X172826001Y-59394000D03*
%TD*%
D28*
%TO.C,U16*%
X185408502Y-55999000D03*
X185408502Y-56649000D03*
X185408502Y-57299000D03*
X187183502Y-57299000D03*
X187183502Y-55999000D03*
%TD*%
D68*
%TO.C,U17*%
X177717471Y-114311943D03*
X178177090Y-113852324D03*
X178636710Y-113392704D03*
X179096329Y-112933085D03*
X176108803Y-109945559D03*
X175649184Y-110405178D03*
X175189564Y-110864798D03*
X174729945Y-111324417D03*
%TD*%
D60*
%TO.C,C35*%
X173886721Y-111912376D03*
X173207899Y-111233554D03*
%TD*%
D64*
%TO.C,R31*%
X186616637Y-113983363D03*
X187783363Y-112816637D03*
%TD*%
D29*
%TO.C,C26*%
X177588270Y-51612000D03*
X177588270Y-50652000D03*
%TD*%
D47*
%TO.C,U22*%
X175552001Y-105405501D03*
X176202001Y-105405501D03*
X176852001Y-105405501D03*
X177502001Y-105405501D03*
X178152001Y-105405501D03*
X178802001Y-105405501D03*
X179452001Y-105405501D03*
X180102001Y-105405501D03*
X180102001Y-99680501D03*
X179452001Y-99680501D03*
X178802001Y-99680501D03*
X178152001Y-99680501D03*
X177502001Y-99680501D03*
X176852001Y-99680501D03*
X176202001Y-99680501D03*
X175552001Y-99680501D03*
%TD*%
D29*
%TO.C,C21*%
X188728001Y-71048000D03*
X188728001Y-70088000D03*
%TD*%
%TO.C,C42*%
X174400001Y-99400000D03*
X174400001Y-98440000D03*
%TD*%
D58*
%TO.C,C41*%
X187402760Y-95489598D03*
X188081582Y-96168420D03*
%TD*%
D29*
%TO.C,C16*%
X189744003Y-63809000D03*
X189744003Y-62849000D03*
%TD*%
D26*
%TO.C,C50*%
X142517983Y-74500000D03*
X139567983Y-74500000D03*
%TD*%
D29*
%TO.C,C29*%
X188709002Y-48696000D03*
X188709002Y-47736000D03*
%TD*%
D59*
%TO.C,C63*%
X171400000Y-99275000D03*
X171400000Y-96325000D03*
%TD*%
D28*
%TO.C,U8*%
X185456235Y-63768729D03*
X185456235Y-64418729D03*
X185456235Y-65068729D03*
X187231235Y-65068729D03*
X187231235Y-63768729D03*
%TD*%
D29*
%TO.C,C30*%
X189725002Y-52379000D03*
X189725002Y-51419000D03*
%TD*%
%TO.C,C27*%
X176572269Y-51612001D03*
X176572269Y-50652001D03*
%TD*%
D69*
%TO.C,R3*%
X136087500Y-79120000D03*
X137912500Y-79120000D03*
%TD*%
D59*
%TO.C,C55*%
X147250000Y-67975000D03*
X147250000Y-65025000D03*
%TD*%
D56*
%TO.C,SW3*%
X142537500Y-116800000D03*
X142537500Y-110800000D03*
X146287500Y-116800000D03*
X146287500Y-110800000D03*
%TD*%
D48*
%TO.C,R27*%
X179575000Y-42600000D03*
X181225000Y-42600000D03*
%TD*%
D28*
%TO.C,U13*%
X173362501Y-51622732D03*
X173362501Y-52272732D03*
X173362501Y-52922732D03*
X175137501Y-52922732D03*
X175137501Y-51622732D03*
%TD*%
D20*
%TO.C,R13*%
X173846000Y-58293999D03*
X172826000Y-58293999D03*
%TD*%
%LPD*%
M02*
