M48
; DRILL file {KiCad 9.0.7-9.0.7~ubuntu24.04.1} date 2026-08-15T18:35:22+0200
; FORMAT={-:-/ absolute / inch / decimal}
; #@! TF.CreationDate,2026-08-15T18:35:22+02:00
; #@! TF.GenerationSoftware,Kicad,Pcbnew,9.0.7-9.0.7~ubuntu24.04.1
; #@! TF.FileFunction,Plated,1,4,PTH
FMAT,2
INCH
; #@! TA.AperFunction,Plated,PTH,ViaDrill
T1C0.0118
; #@! TA.AperFunction,Plated,PTH,ComponentDrill
T2C0.0236
; #@! TA.AperFunction,Plated,PTH,ComponentDrill
T3C0.0256
%
G90
G05
T1
X5.0551Y-1.5906
X5.0551Y-4.7874
X5.1024Y-2.5906
X5.128Y-2.7067
X5.1417Y-2.8425
X5.1772Y-2.6673
X5.1969Y-3.4016
X5.2264Y-2.7067
X5.252Y-2.5906
X5.2677Y-3.9843
X5.2756Y-2.4961
X5.2756Y-2.6575
X5.2835Y-3.7795
X5.3071Y-2.8976
X5.315Y-3.1732
X5.3228Y-2.811
X5.3248Y-2.6969
X5.3445Y-3.2087
X5.3622Y-4.2913
X5.3839Y-3.2579
X5.4094Y-3.661
X5.4094Y-3.874
X5.4134Y-2.2244
X5.4134Y-3.3071
X5.4173Y-2.8583
X5.4331Y-3.1575
X5.4331Y-3.6378
X5.4331Y-3.7165
X5.4488Y-2.7244
X5.4488Y-3.5669
X5.4528Y-3.3661
X5.4567Y-2.3543
X5.4567Y-2.8425
X5.4567Y-2.9134
X5.4685Y-3.6457
X5.4823Y-3.1594
X5.4961Y-2.9843
X5.5039Y-2.685
X5.5039Y-4.3622
X5.5052Y-3.0696
X5.5261Y-3.2633
X5.5354Y-3.0787
X5.5512Y-2.3543
X5.5512Y-2.7274
X5.5512Y-2.8425
X5.5512Y-3.3661
X5.561Y-3.2185
X5.5709Y-3.9469
X5.5748Y-4.2677
X5.5984Y-2.5276
X5.5984Y-2.685
X5.6201Y-3.9764
X5.6378Y-2.4803
X5.6378Y-3.3858
X5.6457Y-2.7667
X5.6457Y-3.4646
X5.6535Y-3.6693
X5.6535Y-2.8435
X5.6693Y-3.2185
X5.6693Y-3.937
X5.6772Y-3.0787
X5.685Y-2.2677
X5.685Y-2.4567
X5.689Y-3.0217
X5.7008Y-2.7244
X5.7008Y-3.5118
X5.7008Y-4.126
X5.7165Y-3.2362
X5.7244Y-3.1102
X5.7382Y-3.937
X5.7402Y-2.3031
X5.7402Y-2.4173
X5.748Y-2.5591
X5.748Y-2.6772
X5.748Y-2.7559
X5.7559Y-3.5748
X5.7559Y-4.2441
X5.7638Y-3.2362
X5.7677Y-3.0217
X5.7776Y-3.9764
X5.7874Y-4.3622
X5.7953Y-2.5197
X5.7953Y-2.7795
X5.8189Y-1.9508
X5.8268Y-3.124
X5.8268Y-3.4173
X5.8268Y-3.9469
X5.8425Y-3.5748
X5.8499Y-2.8105
X5.8504Y-2.5591
X5.8583Y-3.7717
X5.8661Y-1.9902
X5.8661Y-3.248
X5.8661Y-3.3465
X5.874Y-3.0866
X5.8819Y-3.1654
X5.8858Y-2.7323
X5.8957Y-3.937
X5.9213Y-1.9508
X5.935Y-3.9764
X5.937Y-1.5984
X5.9449Y-3.6614
X5.9498Y-3.3937
X5.9528Y-3.4882
X5.9606Y-2.9134
X5.9606Y-2.9921
X5.9685Y-3.5433
X5.9744Y-3.937
X5.9764Y-1.998
X5.9764Y-2.7953
X5.9921Y-2.252
X5.9921Y-2.3465
X6.0Y-3.1496
X6.0Y-3.2362
X6.0236Y-1.9587
X6.0236Y-2.3071
X6.0551Y-3.1181
X6.0659Y-3.2913
X6.0659Y-3.3937
X6.0659Y-3.4931
X6.0709Y-2.8031
X6.0709Y-2.9134
X6.0709Y-4.3622
X6.0787Y-1.6772
X6.0787Y-2.685
X6.0866Y-2.9843
X6.0945Y-3.2362
X6.1102Y-1.7244
X6.1181Y-1.6299
X6.1181Y-3.0945
X6.1575Y-3.0472
X6.1575Y-3.2205
X6.1654Y-2.6063
X6.1654Y-2.7165
X6.1962Y-2.7916
X6.1969Y-2.9843
X6.1969Y-3.3465
X6.1969Y-3.4443
X6.1969Y-3.5422
X6.1969Y-3.64
X6.1969Y-3.7379
X6.1969Y-3.8358
X6.1969Y-3.9336
X6.1969Y-4.0315
X6.2028Y-1.9213
X6.2047Y-3.1811
X6.2441Y-1.9783
X6.2441Y-2.8583
X6.252Y-3.315
X6.252Y-3.4252
X6.252Y-3.5197
X6.252Y-3.6142
X6.252Y-3.7087
X6.252Y-3.8031
X6.252Y-3.8976
X6.2598Y-2.5118
X6.2598Y-2.622
X6.2677Y-1.5984
X6.2677Y-2.7087
X6.2677Y-3.1496
X6.2835Y-4.0315
X6.2835Y-4.7874
X6.2854Y-1.9213
X6.2987Y-1.8873
X6.315Y-2.4567
X6.315Y-3.2835
X6.315Y-3.3791
X6.315Y-3.4747
X6.315Y-3.5703
X6.315Y-3.6659
X6.315Y-3.7615
X6.315Y-3.8571
X6.315Y-3.9528
X6.3228Y-4.1575
X6.3701Y-2.5118
X6.3701Y-3.252
X6.3701Y-3.3493
X6.3701Y-3.4466
X6.3701Y-3.5439
X6.3701Y-3.6412
X6.3701Y-3.7385
X6.3701Y-3.8358
X6.378Y-1.8873
X6.378Y-4.1102
X6.3858Y-2.7087
X6.4016Y-4.0394
X6.4173Y-4.7795
X6.4252Y-3.8504
X6.4331Y-2.6063
X6.4331Y-3.9528
X6.4409Y-3.2283
X6.4646Y-1.9547
X6.4646Y-3.8268
X6.4882Y-2.4849
X6.5118Y-1.9783
X6.5354Y-3.9606
X6.5512Y-1.5984
X6.5571Y-1.8465
X6.5591Y-1.939
X6.5591Y-3.8976
X6.5669Y-2.5984
X6.5748Y-2.2992
X6.5748Y-2.3858
X6.5827Y-4.0
X6.5827Y-4.0709
X6.6299Y-3.2795
X6.6299Y-3.5531
X6.6299Y-3.7894
X6.6299Y-4.2618
X6.6299Y-4.498
X6.6299Y-4.7717
X6.6299Y-1.6083
X6.6299Y-1.8819
X6.6299Y-2.1181
X6.6299Y-2.5906
X6.6299Y-2.8268
X6.6299Y-3.1004
X6.6299Y-3.3406
X6.6299Y-4.0256
X6.6299Y-4.7106
X6.6299Y-2.3543
X6.6299Y-3.0394
X6.6339Y-1.6929
X6.6339Y-1.8307
X6.6339Y-1.9291
X6.6339Y-2.0669
X6.6339Y-2.1654
X6.6339Y-2.3031
X6.6339Y-2.4016
X6.6339Y-2.5394
X6.6339Y-2.6378
X6.6339Y-2.7756
X6.6339Y-2.874
X6.6339Y-3.5039
X6.6339Y-3.6024
X6.6339Y-3.7402
X6.6339Y-3.8386
X6.6339Y-3.9764
X6.6339Y-4.0748
X6.6339Y-4.2126
X6.6339Y-4.311
X6.6339Y-4.4488
X6.6339Y-4.5472
X6.6535Y-2.2126
X6.6693Y-3.6614
X6.6772Y-2.5433
X6.6772Y-2.7087
X6.6772Y-3.748
X6.6841Y-3.2795
X6.6841Y-4.7717
X6.6841Y-3.1004
X6.685Y-4.0472
X6.6929Y-1.6142
X6.6929Y-2.8819
X6.6929Y-3.5276
X6.7008Y-3.7953
X6.7253Y-1.7946
X6.7323Y-1.9276
X6.7323Y-2.0851
X6.7323Y-2.6299
X6.7323Y-3.6378
X6.7323Y-3.7008
X6.7402Y-1.9985
X6.7461Y-2.7539
X6.748Y-2.2126
X6.748Y-3.7638
X6.7559Y-1.8488
X6.7559Y-2.5354
X6.7559Y-2.9213
X6.7689Y-4.5468
X6.7717Y-3.6516
X6.7717Y-4.3898
X6.7795Y-3.4724
X6.7795Y-4.0551
X6.7815Y-2.0792
X6.7835Y-1.7966
X6.7854Y-1.9394
X6.7874Y-2.6929
X6.7874Y-3.6929
X6.7953Y-3.7953
X6.7972Y-4.3661
X6.8012Y-3.8681
X6.8031Y-3.7638
X6.811Y-3.4331
X6.8248Y-1.9611
X6.8268Y-2.7323
X6.8268Y-2.8268
X6.8278Y-4.3533
X6.8307Y-1.6142
X6.8307Y-3.0906
X6.8307Y-3.2874
X6.8307Y-3.8484
X6.8307Y-4.7638
X6.8346Y-2.8957
X6.8425Y-2.6299
X6.8504Y-2.1496
X6.8504Y-2.9823
X6.8504Y-4.3071
X6.8583Y-2.9213
X6.8583Y-2.9567
X6.8583Y-3.685
X6.8661Y-1.8567
X6.8661Y-4.4409
X6.8661Y-4.5748
X6.8701Y-2.7854
X6.8701Y-3.8484
X6.8819Y-1.9906
X6.8819Y-2.6929
X6.8898Y-3.2795
X6.8898Y-3.9134
X6.8898Y-4.2835
X6.8898Y-4.7717
X6.8898Y-1.6083
X6.8898Y-3.1004
X6.8957Y-2.5217
X6.8996Y-2.7559
X6.8996Y-3.8681
X6.9055Y-1.8252
X6.9055Y-2.2047
X6.9055Y-3.7638
X6.9094Y-4.1909
X6.9134Y-2.9134
X6.9134Y-2.9843
X6.9134Y-3.6693
X6.9134Y-3.7087
X6.9134Y-4.5669
X6.9213Y-2.1181
X6.9213Y-2.5433
X6.9213Y-2.6299
X6.9213Y-3.3543
X6.9213Y-4.5197
X6.9252Y-1.852
X6.9252Y-1.9945
X6.9272Y-1.7071
X6.937Y-1.778
X6.937Y-1.9197
X6.9488Y-1.6142
X6.9488Y-3.0906
X6.9488Y-3.2874
X6.9488Y-4.7638
X6.9508Y-1.9689
X6.9517Y-1.8261
X6.9528Y-1.6815
X6.9528Y-2.2047
X6.9528Y-4.2598
X6.9606Y-2.0709
X6.9685Y-2.7165
X6.9685Y-3.748
X6.9764Y-2.5512
X6.9764Y-2.622
X6.9764Y-2.8346
X6.9764Y-4.315
X6.9843Y-2.8957
X6.9882Y-1.8233
X6.9882Y-1.9709
X6.9882Y-3.8681
X6.9882Y-3.9764
X6.9882Y-4.1043
X6.9882Y-4.1929
X6.9921Y-1.6815
X6.9921Y-2.4016
X6.998Y-3.5335
X7.0Y-1.778
X7.0Y-2.1654
X7.0055Y-2.9847
X7.0079Y-1.9197
X7.0079Y-3.7953
X7.0098Y-2.9213
X7.0098Y-2.9587
X7.0121Y-1.8366
X7.0121Y-1.9805
X7.0157Y-4.2283
X7.0177Y-1.7071
X7.0177Y-3.4744
X7.0177Y-3.5039
X7.0199Y-2.7854
X7.0236Y-4.3386
X7.0276Y-2.4311
X7.0352Y-2.5224
X7.0374Y-2.7559
X7.0394Y-2.3937
X7.0394Y-2.6929
X7.0551Y-2.189
X7.0551Y-2.9134
X7.0551Y-3.7008
X7.0551Y-4.378
X7.063Y-2.6063
X7.063Y-2.9764
X7.063Y-4.0315
X7.064Y-4.4321
X7.0669Y-1.6142
X7.0669Y-3.0906
X7.0669Y-3.2874
X7.0669Y-4.7638
X7.0709Y-3.7717
X7.0709Y-3.8661
X7.0709Y-4.5827
X7.0768Y-2.4311
X7.0768Y-2.5197
X7.0787Y-2.0866
X7.0827Y-4.4744
X7.0866Y-4.1043
X7.0945Y-4.4094
X7.1024Y-2.1417
X7.1063Y-2.4803
X7.1063Y-4.1929
X7.1102Y-4.2756
X7.1161Y-4.1437
X7.126Y-1.7953
X7.126Y-2.5512
X7.126Y-3.2795
X7.126Y-3.6299
X7.126Y-3.9764
X7.126Y-4.7717
X7.126Y-1.6083
X7.126Y-3.1004
X7.1339Y-2.2441
X7.1339Y-2.7087
X7.1339Y-3.7008
X7.1339Y-4.3543
X7.1339Y-4.4331
X7.1358Y-2.8937
X7.1417Y-4.5118
X7.1496Y-2.0394
X7.1496Y-2.126
X7.1555Y-2.9232
X7.1555Y-2.9626
X7.1555Y-3.7303
X7.1575Y-1.7559
X7.1575Y-2.6457
X7.1575Y-3.8504
X7.1654Y-2.811
X7.1654Y-3.7874
X7.1811Y-4.2126
X7.185Y-1.6142
X7.185Y-3.0906
X7.185Y-3.2874
X7.185Y-4.7638
X7.1969Y-4.4409
X7.2047Y-2.2598
X7.2047Y-4.2756
X7.2126Y-1.9685
X7.2126Y-2.0866
X7.2126Y-2.1811
X7.2205Y-2.6614
X7.2205Y-2.7559
X7.2205Y-2.8583
X7.2283Y-2.5669
X7.2441Y-2.315
X7.2441Y-3.8504
X7.252Y-2.9291
X7.252Y-3.9134
X7.252Y-4.126
X7.2579Y-1.9685
X7.2598Y-2.2559
X7.2598Y-2.1122
X7.2634Y-2.8484
X7.2638Y-2.5598
X7.2638Y-2.7067
X7.2736Y-4.3898
X7.2835Y-2.5844
X7.2874Y-1.9896
X7.2874Y-2.1346
X7.2894Y-1.6772
X7.2933Y-2.7244
X7.2933Y-4.4193
X7.2992Y-3.6535
X7.3031Y-1.6142
X7.3031Y-3.0906
X7.3031Y-3.2874
X7.3031Y-4.7638
X7.3071Y-3.5984
X7.313Y-4.4488
X7.3228Y-4.063
X7.3228Y-4.1496
X7.3386Y-2.0315
X7.3386Y-2.7717
X7.3465Y-2.1732
X7.3465Y-2.622
X7.3465Y-3.7165
X7.3471Y-2.4013
X7.3543Y-3.5906
X7.3622Y-3.2795
X7.3622Y-4.1437
X7.3622Y-4.7717
X7.3622Y-1.6083
X7.3622Y-3.1004
X7.3701Y-2.7402
X7.3701Y-4.1102
X7.3701Y-4.3465
X7.378Y-2.0
X7.378Y-2.1417
X7.378Y-2.3071
X7.378Y-2.5906
X7.3917Y-3.8091
X7.3957Y-1.6848
X7.3987Y-4.1368
X7.4035Y-2.1693
X7.405Y-2.7594
X7.4055Y-2.4744
X7.4055Y-1.8799
X7.4055Y-2.0276
X7.4055Y-2.6201
X7.4173Y-1.9528
X7.4173Y-2.0945
X7.4173Y-2.5433
X7.4173Y-2.6929
X7.4213Y-1.6142
X7.4213Y-3.0906
X7.4213Y-3.2874
X7.4213Y-4.7638
X7.4291Y-1.8543
X7.4291Y-2.0
X7.4291Y-2.1457
X7.4302Y-2.5945
X7.4311Y-2.4508
X7.4311Y-2.7362
X7.4311Y-3.7992
X7.4331Y-4.0866
X7.4409Y-2.8504
X7.4409Y-4.2992
X7.4508Y-3.7795
X7.4606Y-2.7362
X7.4612Y-4.4685
X7.4646Y-1.998
X7.4646Y-2.1457
X7.4646Y-2.5965
X7.4702Y-2.4508
X7.4705Y-1.8543
X7.4803Y-1.9528
X7.4882Y-2.0945
X7.4882Y-2.5433
X7.4882Y-2.6929
X7.4882Y-4.189
X7.4882Y-4.3071
X7.49Y-2.0079
X7.49Y-2.1533
X7.4907Y-2.6071
X7.4918Y-2.746
X7.4961Y-3.0079
X7.4961Y-4.3543
X7.5118Y-3.622
X7.5354Y-1.811
X7.5679Y-3.2795
X7.5679Y-4.7717
X7.5679Y-1.6083
X7.5679Y-3.1004
X7.6181Y-1.8307
X7.6181Y-1.9291
X7.6181Y-2.0669
X7.6181Y-2.1654
X7.6181Y-2.3031
X7.6181Y-2.4016
X7.6181Y-2.5394
X7.6181Y-2.6378
X7.6181Y-2.7756
X7.6181Y-2.874
X7.6181Y-3.5039
X7.6181Y-3.6024
X7.6181Y-3.7402
X7.6181Y-3.8386
X7.6181Y-3.9764
X7.6181Y-4.0748
X7.6181Y-4.2126
X7.6181Y-4.311
X7.6181Y-4.4488
X7.6181Y-4.5472
X7.622Y-3.3406
X7.622Y-4.0256
X7.622Y-4.7106
X7.622Y-1.6693
X7.622Y-2.3543
X7.622Y-3.0394
X7.622Y-3.2795
X7.622Y-3.5531
X7.622Y-3.7894
X7.622Y-4.2618
X7.622Y-4.498
X7.622Y-4.7717
X7.622Y-1.6083
X7.622Y-1.8819
X7.622Y-2.1181
X7.622Y-2.5906
X7.622Y-2.8268
X7.622Y-3.1004
T3
X5.2165Y-2.9335
X5.2165Y-3.161
T2
G00X5.0846Y-2.8772
M15
G01X5.061Y-2.8772
M16
G05
G00X5.0846Y-3.2173
M15
G01X5.061Y-3.2173
M16
G05
G00X5.2591Y-2.8772
M15
G01X5.2157Y-2.8772
M16
G05
G00X5.2591Y-3.2173
M15
G01X5.2157Y-3.2173
M16
G05
M30
