M48
; DRILL file {KiCad 9.0.7-9.0.7~ubuntu24.04.1} date 2026-08-10T20:56:37+0200
; FORMAT={-:-/ absolute / inch / decimal}
; #@! TF.CreationDate,2026-08-10T20:56:37+02:00
; #@! TF.GenerationSoftware,Kicad,Pcbnew,9.0.7-9.0.7~ubuntu24.04.1
; #@! TF.FileFunction,Plated,1,2,PTH
FMAT,2
INCH
; #@! TA.AperFunction,Plated,PTH,ViaDrill
T1C0.0118
; #@! TA.AperFunction,Plated,PTH,ComponentDrill
T2C0.0236
%
G90
G05
T1
X4.2126Y-3.3652
X4.2323Y-2.1063
X4.2323Y-2.1457
X4.2323Y-2.3031
X4.2323Y-2.3425
X4.2323Y-2.3819
X4.2323Y-2.5394
X4.2323Y-2.5787
X4.2323Y-2.6181
X4.2323Y-2.7756
X4.2323Y-2.815
X4.2323Y-2.8543
X4.2323Y-3.0315
X4.2323Y-3.0709
X4.248Y-3.3258
X4.2717Y-2.0866
X4.2717Y-3.0709
X4.2795Y-3.3652
X4.2874Y-2.7165
X4.2874Y-2.7677
X4.2913Y-2.8346
X4.3071Y-3.373
X4.311Y-2.0866
X4.311Y-2.7992
X4.311Y-3.0709
X4.3179Y-3.4921
X4.3268Y-2.8701
X4.3784Y-3.2441
X4.3926Y-2.4314
X4.4252Y-2.4528
X4.4361Y-3.3999
X4.4536Y-3.4748
X4.4685Y-2.0866
X4.4685Y-3.0709
X4.5079Y-2.0866
X4.5079Y-3.0709
X4.5187Y-3.6299
X4.523Y-3.3999
X4.5472Y-2.0866
X4.5472Y-3.0709
X4.564Y-3.5118
X4.6339Y-3.1929
X4.636Y-3.3051
X4.6378Y-2.9035
X4.6723Y-3.2657
X4.685Y-2.935
X4.7047Y-2.0866
X4.7047Y-3.0709
X4.7087Y-2.2362
X4.7126Y-2.1969
X4.7441Y-2.0866
X4.7441Y-3.0709
X4.7835Y-2.0866
X4.7835Y-3.0709
X4.8189Y-3.3543
X4.8189Y-3.4016
X4.8189Y-3.4488
X4.8189Y-3.5039
X4.8189Y-3.5512
X4.8661Y-3.3543
X4.8661Y-3.5512
X4.9213Y-3.3543
X4.9213Y-3.5512
X4.9409Y-2.0866
X4.9409Y-3.0709
X4.9567Y-2.6516
X4.9567Y-2.7224
X4.9685Y-3.3543
X4.9685Y-3.5512
X4.9724Y-2.4252
X4.9803Y-2.0866
X4.9803Y-3.0709
X4.9984Y-3.5611
X5.0079Y-2.4409
X5.0079Y-3.2205
X5.0157Y-3.3543
X5.0197Y-2.0866
X5.0197Y-3.0709
X5.0227Y-3.4557
X5.063Y-3.1811
X5.1496Y-3.7795
X5.1772Y-2.0866
X5.1772Y-3.0709
X5.2165Y-2.0866
X5.2165Y-3.0709
X5.2165Y-3.311
X5.2559Y-2.0866
X5.2559Y-3.0709
X5.2604Y-3.4999
X5.2604Y-3.4684
X5.2874Y-2.2362
X5.2884Y-2.1958
X5.3583Y-3.1614
X5.3594Y-3.6035
X5.3663Y-3.5574
X5.3701Y-3.4291
X5.3701Y-3.7323
X5.3745Y-2.878
X5.4134Y-2.0866
X5.4134Y-3.0709
X5.4134Y-3.6811
X5.4528Y-2.0866
X5.4528Y-3.0709
X5.4528Y-3.4449
X5.4606Y-3.3976
X5.4724Y-3.6417
X5.4882Y-2.6929
X5.4921Y-2.0866
X5.4921Y-3.0709
X5.5118Y-3.3049
X5.5315Y-3.5118
X5.5355Y-2.7403
X5.5477Y-2.6732
X5.5591Y-3.5906
X5.5685Y-3.4661
X5.5709Y-3.5039
X5.5871Y-2.6535
X5.5958Y-2.878
X5.6496Y-2.0866
X5.654Y-2.8937
X5.654Y-2.9331
X5.6673Y-3.0748
X5.689Y-2.0866
X5.7047Y-3.437
X5.7283Y-3.0207
X5.7283Y-3.0748
X5.7283Y-2.0866
X5.7283Y-2.126
X5.7283Y-2.3031
X5.7283Y-2.3425
X5.7283Y-2.3819
X5.7283Y-2.5394
X5.7283Y-2.5787
X5.7283Y-2.6181
X5.7283Y-2.7756
X5.7283Y-2.815
X5.7283Y-2.8543
T2
G00X4.2723Y-3.5403
M15
G01X4.2723Y-3.5797
M16
G05
G00X4.2723Y-3.685
M15
G01X4.2723Y-3.7362
M16
G05
G00X4.6124Y-3.5403
M15
G01X4.6124Y-3.5797
M16
G05
G00X4.6124Y-3.685
M15
G01X4.6124Y-3.7362
M16
G05
M30
