%TF.GenerationSoftware,KiCad,Pcbnew,9.0.7-9.0.7~ubuntu24.04.1*%
%TF.CreationDate,2026-08-10T20:56:37+02:00*%
%TF.ProjectId,RO-Trng,524f2d54-726e-4672-9e6b-696361645f70,rev?*%
%TF.SameCoordinates,Original*%
%TF.FileFunction,Copper,L2,Bot*%
%TF.FilePolarity,Positive*%
%FSLAX46Y46*%
G04 Gerber Fmt 4.6, Leading zero omitted, Abs format (unit mm)*
G04 Created by KiCad (PCBNEW 9.0.7-9.0.7~ubuntu24.04.1) date 2026-08-10 20:56:37*
%MOMM*%
%LPD*%
G01*
G04 APERTURE LIST*
%TA.AperFunction,HeatsinkPad*%
%ADD10O,1.300000X2.300000*%
%TD*%
%TA.AperFunction,HeatsinkPad*%
%ADD11O,1.300000X2.600000*%
%TD*%
%TA.AperFunction,ViaPad*%
%ADD12C,0.600000*%
%TD*%
%TA.AperFunction,Conductor*%
%ADD13C,0.200000*%
%TD*%
%TA.AperFunction,Conductor*%
%ADD14C,0.400000*%
%TD*%
G04 APERTURE END LIST*
D10*
%TO.P,J2,S1,SHIELD*%
%TO.N,Net-(J2-SHIELD)*%
X108515271Y-90424383D03*
D11*
X108515271Y-94249383D03*
D10*
X117155271Y-90424383D03*
D11*
X117155271Y-94249383D03*
%TD*%
D12*
%TO.N,GND*%
X128600000Y-80800000D03*
X127200000Y-81800000D03*
%TO.N,/NRST*%
X126958949Y-90452983D03*
%TO.N,GND*%
X107000000Y-85475000D03*
X108700000Y-85475272D03*
X109400000Y-85675272D03*
X107900000Y-84475272D03*
X122400000Y-89000000D03*
X122400000Y-87600000D03*
X122400000Y-86400000D03*
X123600000Y-85200000D03*
X126200000Y-85200000D03*
X125000000Y-85200000D03*
X127400000Y-85200000D03*
X122400000Y-85200000D03*
X122400000Y-90200000D03*
X123600000Y-90200000D03*
X125000000Y-90200000D03*
X126200000Y-90200000D03*
X127575735Y-87775735D03*
X111212499Y-82400000D03*
X145500000Y-70500000D03*
X143612501Y-74500000D03*
X109900000Y-72900000D03*
X109500000Y-71100000D03*
X114500000Y-53000000D03*
X144900000Y-87300000D03*
X107500000Y-72500000D03*
X115500000Y-78000000D03*
X145500000Y-53000000D03*
X141912501Y-67400000D03*
X141200000Y-91200000D03*
X113500000Y-78000000D03*
X119600000Y-56800000D03*
X119698959Y-55801041D03*
X117754270Y-83950000D03*
X145499999Y-78100000D03*
X125500000Y-53000000D03*
X114883242Y-86358385D03*
X107500000Y-66500000D03*
X134300000Y-56800000D03*
X114500000Y-78000000D03*
X109000000Y-72000000D03*
X133500000Y-78000000D03*
X125500000Y-78000000D03*
X127200000Y-62000000D03*
X137500000Y-93500000D03*
X118675812Y-82950000D03*
X119500000Y-78000000D03*
X121500000Y-53000000D03*
X107500000Y-65500000D03*
X132500000Y-78000000D03*
X112400000Y-62300000D03*
X112675812Y-86358385D03*
X107500000Y-78000000D03*
X117700000Y-81100000D03*
X107500000Y-71500000D03*
X119500000Y-53000000D03*
X107500000Y-70500000D03*
X131500000Y-78000000D03*
X109500000Y-53000000D03*
X145500000Y-64500000D03*
X145500000Y-54000000D03*
X113500000Y-53000000D03*
X121500000Y-78000000D03*
X127500000Y-78000000D03*
X139000000Y-92500000D03*
X115925812Y-89200000D03*
X127500000Y-53000000D03*
X109675812Y-88700000D03*
X107500000Y-77000000D03*
X143612501Y-73500000D03*
X117800000Y-73750000D03*
X145499999Y-76725000D03*
X133500000Y-53000000D03*
X138500000Y-87500000D03*
X131500000Y-53000000D03*
X107500000Y-53500000D03*
X138500000Y-78000000D03*
X141500000Y-89000000D03*
X143500000Y-53000000D03*
X125900000Y-69150000D03*
X109500000Y-78000000D03*
X143949999Y-78099999D03*
X130800000Y-96000000D03*
X120500000Y-53000000D03*
X145500000Y-58500000D03*
X108900000Y-69000000D03*
X108500000Y-53000000D03*
X137500000Y-53000000D03*
X132500000Y-53000000D03*
X107500000Y-58500000D03*
X107500000Y-54500000D03*
X108900000Y-70300000D03*
X145500000Y-66500000D03*
X111573063Y-61757541D03*
X119000000Y-74550000D03*
X107500000Y-60500000D03*
X145500000Y-60500000D03*
X137500000Y-78000000D03*
X120500000Y-78000000D03*
X108500000Y-78000000D03*
X139500000Y-78000000D03*
X126300000Y-61600000D03*
X125900000Y-67350000D03*
X107500000Y-59500000D03*
X126500000Y-53000000D03*
X107500000Y-64500000D03*
X138500000Y-53000000D03*
X136303980Y-90358056D03*
X134325735Y-55774265D03*
X145500000Y-72500000D03*
X145500000Y-71500000D03*
X144500000Y-53000000D03*
X139500000Y-53000000D03*
X140912500Y-67900000D03*
X115500000Y-53000000D03*
X126500000Y-78000000D03*
X145500000Y-65500000D03*
X145500000Y-59500000D03*
%TO.N,VCC*%
X136512501Y-73100000D03*
X142132501Y-73100000D03*
%TO.N,/NRST*%
X140000000Y-83943700D03*
%TO.N,/SWDIO*%
X136400000Y-87100000D03*
X141439975Y-88039975D03*
%TO.N,/SWCLK*%
X140500000Y-89200000D03*
X138700000Y-86300000D03*
%TO.N,/CLK*%
X132500000Y-84100000D03*
X136100000Y-80300000D03*
%TO.N,/D2*%
X140602390Y-69602390D03*
X139400000Y-68400000D03*
%TO.N,/D+*%
X133613313Y-88098050D03*
X113121592Y-88258898D03*
%TO.N,/D-*%
X114775429Y-92200000D03*
X133613310Y-88898051D03*
%TO.N,Net-(D2-A)*%
X136400000Y-94800000D03*
X136130026Y-91530025D03*
%TD*%
D13*
%TO.N,/D-*%
X114775429Y-92200000D02*
X131800000Y-92200000D01*
X131800000Y-92200000D02*
X133613310Y-90386690D01*
X133613310Y-90386690D02*
X133613310Y-88898051D01*
%TO.N,/NRST*%
X140000000Y-83943700D02*
X139171850Y-84771850D01*
X126958949Y-90452983D02*
X128147017Y-90452983D01*
X128147017Y-90452983D02*
X133828150Y-84771850D01*
X133828150Y-84771850D02*
X139171850Y-84771850D01*
%TO.N,/D+*%
X113121592Y-88258898D02*
X113262694Y-88400000D01*
X113262694Y-88400000D02*
X117000000Y-88400000D01*
X117000000Y-88400000D02*
X120000000Y-91400000D01*
X120000000Y-91400000D02*
X131400000Y-91400000D01*
X131400000Y-91400000D02*
X132200000Y-90600000D01*
X132200000Y-90600000D02*
X132200000Y-89461418D01*
D14*
%TO.N,VCC*%
X142132501Y-73100000D02*
X136512501Y-73100000D01*
D13*
%TO.N,/SWDIO*%
X139099000Y-85699000D02*
X137801000Y-85699000D01*
X141439975Y-88039975D02*
X139099000Y-85699000D01*
X137801000Y-85699000D02*
X136400000Y-87100000D01*
%TO.N,/SWCLK*%
X140500000Y-89200000D02*
X140500000Y-88100000D01*
X140500000Y-88100000D02*
X138700000Y-86300000D01*
%TO.N,/CLK*%
X136100000Y-80300000D02*
X132500000Y-83900000D01*
X132500000Y-83900000D02*
X132500000Y-84100000D01*
%TO.N,/D2*%
X140602390Y-69602390D02*
X139400000Y-68400000D01*
%TO.N,Net-(D2-A)*%
X136130026Y-91530025D02*
X136130026Y-94530026D01*
X136130026Y-94530026D02*
X136400000Y-94800000D01*
%TO.N,/D+*%
X132200000Y-89461418D02*
X133563368Y-88098050D01*
%TD*%
%TA.AperFunction,Conductor*%
%TO.N,GND*%
G36*
X147042539Y-49520185D02*
G01*
X147088294Y-49572989D01*
X147099500Y-49624500D01*
X147099500Y-97075500D01*
X147079815Y-97142539D01*
X147027011Y-97188294D01*
X146975500Y-97199500D01*
X106624500Y-97199500D01*
X106557461Y-97179815D01*
X106511706Y-97127011D01*
X106500500Y-97075500D01*
X106500500Y-93508831D01*
X107364771Y-93508831D01*
X107364771Y-94989934D01*
X107393100Y-95168793D01*
X107449058Y-95341019D01*
X107449059Y-95341022D01*
X107531277Y-95502380D01*
X107637712Y-95648877D01*
X107637716Y-95648882D01*
X107765771Y-95776937D01*
X107765776Y-95776941D01*
X107893558Y-95869779D01*
X107912277Y-95883379D01*
X108017755Y-95937123D01*
X108073631Y-95965594D01*
X108073634Y-95965595D01*
X108159747Y-95993574D01*
X108245862Y-96021554D01*
X108328700Y-96034674D01*
X108424720Y-96049883D01*
X108424725Y-96049883D01*
X108605822Y-96049883D01*
X108692530Y-96036148D01*
X108784680Y-96021554D01*
X108956910Y-95965594D01*
X109118265Y-95883379D01*
X109264772Y-95776936D01*
X109392824Y-95648884D01*
X109499267Y-95502377D01*
X109581482Y-95341022D01*
X109637442Y-95168792D01*
X109658872Y-95033489D01*
X109665771Y-94989934D01*
X109665771Y-93508831D01*
X109649290Y-93404780D01*
X109637442Y-93329974D01*
X109581482Y-93157744D01*
X109581482Y-93157743D01*
X109537243Y-93070921D01*
X109499267Y-92996389D01*
X109418643Y-92885419D01*
X109392829Y-92849888D01*
X109392825Y-92849883D01*
X109264770Y-92721828D01*
X109264765Y-92721824D01*
X109118268Y-92615389D01*
X109118267Y-92615388D01*
X109118265Y-92615387D01*
X109047215Y-92579185D01*
X108956910Y-92533171D01*
X108956907Y-92533170D01*
X108784681Y-92477212D01*
X108605822Y-92448883D01*
X108605817Y-92448883D01*
X108424725Y-92448883D01*
X108424720Y-92448883D01*
X108245860Y-92477212D01*
X108073634Y-92533170D01*
X108073631Y-92533171D01*
X107912273Y-92615389D01*
X107765776Y-92721824D01*
X107765771Y-92721828D01*
X107637716Y-92849883D01*
X107637712Y-92849888D01*
X107531277Y-92996385D01*
X107449059Y-93157743D01*
X107449058Y-93157746D01*
X107393100Y-93329972D01*
X107364771Y-93508831D01*
X106500500Y-93508831D01*
X106500500Y-89833831D01*
X107364771Y-89833831D01*
X107364771Y-91014934D01*
X107393100Y-91193793D01*
X107449058Y-91366019D01*
X107449059Y-91366022D01*
X107531277Y-91527380D01*
X107637712Y-91673877D01*
X107637716Y-91673882D01*
X107765771Y-91801937D01*
X107765776Y-91801941D01*
X107893558Y-91894779D01*
X107912277Y-91908379D01*
X108017755Y-91962123D01*
X108073631Y-91990594D01*
X108073634Y-91990595D01*
X108159747Y-92018574D01*
X108245862Y-92046554D01*
X108328700Y-92059674D01*
X108424720Y-92074883D01*
X108424725Y-92074883D01*
X108605822Y-92074883D01*
X108692530Y-92061148D01*
X108784680Y-92046554D01*
X108956910Y-91990594D01*
X109118265Y-91908379D01*
X109264772Y-91801936D01*
X109392824Y-91673884D01*
X109401046Y-91662567D01*
X109456373Y-91619899D01*
X109525986Y-91613916D01*
X109563368Y-91628062D01*
X109622780Y-91662364D01*
X109622781Y-91662365D01*
X109622783Y-91662365D01*
X109622786Y-91662367D01*
X109762796Y-91699883D01*
X109762799Y-91699883D01*
X109907743Y-91699883D01*
X109907746Y-91699883D01*
X110047756Y-91662367D01*
X110173286Y-91589892D01*
X110275780Y-91487398D01*
X110348255Y-91361868D01*
X110385771Y-91221858D01*
X110385771Y-91076908D01*
X110348255Y-90936898D01*
X110331706Y-90908235D01*
X110275782Y-90811371D01*
X110275777Y-90811365D01*
X110173288Y-90708876D01*
X110173282Y-90708871D01*
X110047759Y-90636400D01*
X110047760Y-90636400D01*
X110036277Y-90633323D01*
X109907746Y-90598883D01*
X109789771Y-90598883D01*
X109722732Y-90579198D01*
X109676977Y-90526394D01*
X109665771Y-90474883D01*
X109665771Y-89833831D01*
X109641920Y-89683247D01*
X109637442Y-89654974D01*
X109581482Y-89482744D01*
X109581482Y-89482743D01*
X109530334Y-89382361D01*
X109499267Y-89321389D01*
X109468358Y-89278846D01*
X109392829Y-89174888D01*
X109392825Y-89174883D01*
X109264770Y-89046828D01*
X109264765Y-89046824D01*
X109118268Y-88940389D01*
X109118267Y-88940388D01*
X109118265Y-88940387D01*
X109066571Y-88914047D01*
X108956910Y-88858171D01*
X108956907Y-88858170D01*
X108784681Y-88802212D01*
X108605822Y-88773883D01*
X108605817Y-88773883D01*
X108424725Y-88773883D01*
X108424720Y-88773883D01*
X108245860Y-88802212D01*
X108073634Y-88858170D01*
X108073631Y-88858171D01*
X107912273Y-88940389D01*
X107765776Y-89046824D01*
X107765771Y-89046828D01*
X107637716Y-89174883D01*
X107637712Y-89174888D01*
X107531277Y-89321385D01*
X107449059Y-89482743D01*
X107449058Y-89482746D01*
X107393100Y-89654972D01*
X107364771Y-89833831D01*
X106500500Y-89833831D01*
X106500500Y-88180051D01*
X112321092Y-88180051D01*
X112321092Y-88337744D01*
X112351853Y-88492387D01*
X112351856Y-88492399D01*
X112412194Y-88638070D01*
X112412201Y-88638083D01*
X112499802Y-88769186D01*
X112499805Y-88769190D01*
X112611299Y-88880684D01*
X112611303Y-88880687D01*
X112742406Y-88968288D01*
X112742419Y-88968295D01*
X112888090Y-89028633D01*
X112888095Y-89028635D01*
X113042745Y-89059397D01*
X113042748Y-89059398D01*
X113042750Y-89059398D01*
X113200436Y-89059398D01*
X113200437Y-89059397D01*
X113355089Y-89028635D01*
X113378112Y-89019098D01*
X113400226Y-89009939D01*
X113447678Y-89000500D01*
X116161050Y-89000500D01*
X116228089Y-89020185D01*
X116273844Y-89072989D01*
X116283788Y-89142147D01*
X116261368Y-89197385D01*
X116171277Y-89321385D01*
X116089059Y-89482743D01*
X116089058Y-89482746D01*
X116033100Y-89654972D01*
X116004771Y-89833831D01*
X116004771Y-90474883D01*
X115985086Y-90541922D01*
X115932282Y-90587677D01*
X115880771Y-90598883D01*
X115637796Y-90598883D01*
X115509264Y-90633323D01*
X115497782Y-90636400D01*
X115372259Y-90708871D01*
X115372253Y-90708876D01*
X115269764Y-90811365D01*
X115269759Y-90811371D01*
X115197288Y-90936894D01*
X115197287Y-90936898D01*
X115159771Y-91076908D01*
X115159771Y-91221858D01*
X115176337Y-91283685D01*
X115174675Y-91353534D01*
X115135513Y-91411397D01*
X115071284Y-91438901D01*
X115015018Y-91431154D01*
X115014753Y-91432031D01*
X115009242Y-91430359D01*
X115009117Y-91430342D01*
X115008929Y-91430264D01*
X115008927Y-91430263D01*
X115008926Y-91430263D01*
X115008923Y-91430262D01*
X115008918Y-91430261D01*
X114854274Y-91399500D01*
X114854271Y-91399500D01*
X114696587Y-91399500D01*
X114696584Y-91399500D01*
X114541939Y-91430261D01*
X114541927Y-91430264D01*
X114396256Y-91490602D01*
X114396243Y-91490609D01*
X114265140Y-91578210D01*
X114265136Y-91578213D01*
X114153642Y-91689707D01*
X114153639Y-91689711D01*
X114066038Y-91820814D01*
X114066031Y-91820827D01*
X114005693Y-91966498D01*
X114005690Y-91966510D01*
X113974929Y-92121153D01*
X113974929Y-92278846D01*
X114005690Y-92433489D01*
X114005693Y-92433501D01*
X114066031Y-92579172D01*
X114066038Y-92579185D01*
X114153639Y-92710288D01*
X114153642Y-92710292D01*
X114265136Y-92821786D01*
X114265140Y-92821789D01*
X114396243Y-92909390D01*
X114396256Y-92909397D01*
X114449831Y-92931588D01*
X114541932Y-92969737D01*
X114675875Y-92996380D01*
X114696582Y-93000499D01*
X114696585Y-93000500D01*
X114696587Y-93000500D01*
X114854273Y-93000500D01*
X114854274Y-93000499D01*
X115008926Y-92969737D01*
X115154608Y-92909394D01*
X115243665Y-92849888D01*
X115286304Y-92821398D01*
X115352982Y-92800520D01*
X115355195Y-92800500D01*
X116070233Y-92800500D01*
X116137272Y-92820185D01*
X116183027Y-92872989D01*
X116192971Y-92942147D01*
X116172875Y-92991653D01*
X116173821Y-92992233D01*
X116171279Y-92996380D01*
X116089059Y-93157743D01*
X116089058Y-93157746D01*
X116033100Y-93329972D01*
X116004771Y-93508831D01*
X116004771Y-94989934D01*
X116033100Y-95168793D01*
X116089058Y-95341019D01*
X116089059Y-95341022D01*
X116171277Y-95502380D01*
X116277712Y-95648877D01*
X116277716Y-95648882D01*
X116405771Y-95776937D01*
X116405776Y-95776941D01*
X116533558Y-95869779D01*
X116552277Y-95883379D01*
X116657755Y-95937123D01*
X116713631Y-95965594D01*
X116713634Y-95965595D01*
X116799747Y-95993574D01*
X116885862Y-96021554D01*
X116968700Y-96034674D01*
X117064720Y-96049883D01*
X117064725Y-96049883D01*
X117245822Y-96049883D01*
X117332530Y-96036148D01*
X117424680Y-96021554D01*
X117596910Y-95965594D01*
X117758265Y-95883379D01*
X117904772Y-95776936D01*
X118032824Y-95648884D01*
X118139267Y-95502377D01*
X118221482Y-95341022D01*
X118277442Y-95168792D01*
X118298872Y-95033489D01*
X118305771Y-94989934D01*
X118305771Y-93508831D01*
X118289290Y-93404780D01*
X118277442Y-93329974D01*
X118221482Y-93157744D01*
X118221482Y-93157743D01*
X118176131Y-93068739D01*
X118139267Y-92996389D01*
X118139265Y-92996387D01*
X118139262Y-92996380D01*
X118136721Y-92992233D01*
X118137897Y-92991512D01*
X118116512Y-92931588D01*
X118132332Y-92863533D01*
X118182434Y-92814835D01*
X118240309Y-92800500D01*
X131713331Y-92800500D01*
X131713347Y-92800501D01*
X131720943Y-92800501D01*
X131879054Y-92800501D01*
X131879057Y-92800501D01*
X132031785Y-92759577D01*
X132097164Y-92721830D01*
X132168716Y-92680520D01*
X132280520Y-92568716D01*
X132280520Y-92568714D01*
X132290724Y-92558511D01*
X132290727Y-92558506D01*
X133398057Y-91451178D01*
X135329526Y-91451178D01*
X135329526Y-91608871D01*
X135360287Y-91763514D01*
X135360290Y-91763526D01*
X135420628Y-91909197D01*
X135420635Y-91909210D01*
X135508628Y-92040899D01*
X135529506Y-92107576D01*
X135529526Y-92109790D01*
X135529526Y-94443356D01*
X135529525Y-94443374D01*
X135529525Y-94609080D01*
X135529524Y-94609080D01*
X135559555Y-94721158D01*
X135570449Y-94761811D01*
X135582886Y-94783353D01*
X135599500Y-94845353D01*
X135599500Y-94878846D01*
X135630261Y-95033489D01*
X135630264Y-95033501D01*
X135690602Y-95179172D01*
X135690609Y-95179185D01*
X135778210Y-95310288D01*
X135778213Y-95310292D01*
X135889707Y-95421786D01*
X135889711Y-95421789D01*
X136020814Y-95509390D01*
X136020827Y-95509397D01*
X136166498Y-95569735D01*
X136166503Y-95569737D01*
X136321153Y-95600499D01*
X136321156Y-95600500D01*
X136321158Y-95600500D01*
X136478844Y-95600500D01*
X136478845Y-95600499D01*
X136633497Y-95569737D01*
X136779179Y-95509394D01*
X136910289Y-95421789D01*
X137021789Y-95310289D01*
X137109394Y-95179179D01*
X137169737Y-95033497D01*
X137200500Y-94878842D01*
X137200500Y-94721158D01*
X137200500Y-94721155D01*
X137200499Y-94721153D01*
X137169737Y-94566503D01*
X137118736Y-94443374D01*
X137109397Y-94420827D01*
X137109390Y-94420814D01*
X137021789Y-94289711D01*
X137021786Y-94289707D01*
X136910292Y-94178213D01*
X136910288Y-94178210D01*
X136785635Y-94094919D01*
X136740830Y-94041307D01*
X136730526Y-93991817D01*
X136730526Y-92336540D01*
X141303200Y-92336540D01*
X141303200Y-92483459D01*
X141331858Y-92627534D01*
X141331861Y-92627544D01*
X141388078Y-92763266D01*
X141388083Y-92763275D01*
X141469698Y-92885419D01*
X141469701Y-92885423D01*
X141573576Y-92989298D01*
X141573580Y-92989301D01*
X141695724Y-93070916D01*
X141695730Y-93070919D01*
X141695731Y-93070920D01*
X141831458Y-93127140D01*
X141975540Y-93155799D01*
X141975544Y-93155800D01*
X141975545Y-93155800D01*
X142122456Y-93155800D01*
X142122457Y-93155799D01*
X142266542Y-93127140D01*
X142402269Y-93070920D01*
X142524420Y-92989301D01*
X142628301Y-92885420D01*
X142709920Y-92763269D01*
X142766140Y-92627542D01*
X142794800Y-92483455D01*
X142794800Y-92336545D01*
X142794799Y-92336540D01*
X143335200Y-92336540D01*
X143335200Y-92483459D01*
X143363858Y-92627534D01*
X143363861Y-92627544D01*
X143420078Y-92763266D01*
X143420083Y-92763275D01*
X143501698Y-92885419D01*
X143501701Y-92885423D01*
X143605576Y-92989298D01*
X143605580Y-92989301D01*
X143727724Y-93070916D01*
X143727730Y-93070919D01*
X143727731Y-93070920D01*
X143863458Y-93127140D01*
X144007540Y-93155799D01*
X144007544Y-93155800D01*
X144007545Y-93155800D01*
X144154456Y-93155800D01*
X144154457Y-93155799D01*
X144298542Y-93127140D01*
X144434269Y-93070920D01*
X144556420Y-92989301D01*
X144660301Y-92885420D01*
X144741920Y-92763269D01*
X144798140Y-92627542D01*
X144826800Y-92483455D01*
X144826800Y-92336545D01*
X144798140Y-92192458D01*
X144741920Y-92056731D01*
X144741919Y-92056730D01*
X144741916Y-92056724D01*
X144660301Y-91934580D01*
X144660298Y-91934576D01*
X144556423Y-91830701D01*
X144556419Y-91830698D01*
X144434275Y-91749083D01*
X144434266Y-91749078D01*
X144298544Y-91692861D01*
X144298545Y-91692861D01*
X144298542Y-91692860D01*
X144298538Y-91692859D01*
X144298534Y-91692858D01*
X144154459Y-91664200D01*
X144154455Y-91664200D01*
X144007545Y-91664200D01*
X144007540Y-91664200D01*
X143863465Y-91692858D01*
X143863455Y-91692861D01*
X143727733Y-91749078D01*
X143727724Y-91749083D01*
X143605580Y-91830698D01*
X143605576Y-91830701D01*
X143501701Y-91934576D01*
X143501698Y-91934580D01*
X143420083Y-92056724D01*
X143420078Y-92056733D01*
X143363861Y-92192455D01*
X143363858Y-92192465D01*
X143335200Y-92336540D01*
X142794799Y-92336540D01*
X142766140Y-92192458D01*
X142709920Y-92056731D01*
X142709919Y-92056730D01*
X142709916Y-92056724D01*
X142628301Y-91934580D01*
X142628298Y-91934576D01*
X142524423Y-91830701D01*
X142524419Y-91830698D01*
X142402275Y-91749083D01*
X142402266Y-91749078D01*
X142266544Y-91692861D01*
X142266545Y-91692861D01*
X142266542Y-91692860D01*
X142266538Y-91692859D01*
X142266534Y-91692858D01*
X142122459Y-91664200D01*
X142122455Y-91664200D01*
X141975545Y-91664200D01*
X141975540Y-91664200D01*
X141831465Y-91692858D01*
X141831455Y-91692861D01*
X141695733Y-91749078D01*
X141695724Y-91749083D01*
X141573580Y-91830698D01*
X141573576Y-91830701D01*
X141469701Y-91934576D01*
X141469698Y-91934580D01*
X141388083Y-92056724D01*
X141388078Y-92056733D01*
X141331861Y-92192455D01*
X141331858Y-92192465D01*
X141303200Y-92336540D01*
X136730526Y-92336540D01*
X136730526Y-92109790D01*
X136750211Y-92042751D01*
X136751424Y-92040899D01*
X136839416Y-91909210D01*
X136839416Y-91909209D01*
X136839420Y-91909204D01*
X136899763Y-91763522D01*
X136930526Y-91608867D01*
X136930526Y-91451183D01*
X136930526Y-91451180D01*
X136930525Y-91451178D01*
X136922612Y-91411397D01*
X136899763Y-91296528D01*
X136857209Y-91193792D01*
X136839423Y-91150852D01*
X136839416Y-91150839D01*
X136751815Y-91019736D01*
X136751812Y-91019732D01*
X136640318Y-90908238D01*
X136640314Y-90908235D01*
X136509211Y-90820634D01*
X136509198Y-90820627D01*
X136363527Y-90760289D01*
X136363515Y-90760286D01*
X136208871Y-90729525D01*
X136208868Y-90729525D01*
X136051184Y-90729525D01*
X136051181Y-90729525D01*
X135896536Y-90760286D01*
X135896524Y-90760289D01*
X135750853Y-90820627D01*
X135750840Y-90820634D01*
X135619737Y-90908235D01*
X135619733Y-90908238D01*
X135508239Y-91019732D01*
X135508236Y-91019736D01*
X135420635Y-91150839D01*
X135420628Y-91150852D01*
X135360290Y-91296523D01*
X135360287Y-91296535D01*
X135329526Y-91451178D01*
X133398057Y-91451178D01*
X134093830Y-90755406D01*
X134172887Y-90618474D01*
X134213811Y-90465747D01*
X134213811Y-90307632D01*
X134213811Y-90300037D01*
X134213810Y-90300019D01*
X134213810Y-89477816D01*
X134233495Y-89410777D01*
X134234708Y-89408925D01*
X134322700Y-89277236D01*
X134322700Y-89277235D01*
X134322704Y-89277230D01*
X134383047Y-89131548D01*
X134413810Y-88976893D01*
X134413810Y-88819209D01*
X134413810Y-88819206D01*
X134413809Y-88819204D01*
X134411921Y-88809712D01*
X134383047Y-88664554D01*
X134333735Y-88545505D01*
X134326267Y-88476037D01*
X134333734Y-88450605D01*
X134383050Y-88331547D01*
X134413813Y-88176892D01*
X134413813Y-88019208D01*
X134413813Y-88019205D01*
X134413812Y-88019203D01*
X134393976Y-87919481D01*
X134383050Y-87864553D01*
X134358993Y-87806473D01*
X134322710Y-87718877D01*
X134322703Y-87718864D01*
X134235102Y-87587761D01*
X134235099Y-87587757D01*
X134123605Y-87476263D01*
X134123601Y-87476260D01*
X133992498Y-87388659D01*
X133992485Y-87388652D01*
X133846814Y-87328314D01*
X133846802Y-87328311D01*
X133692158Y-87297550D01*
X133692155Y-87297550D01*
X133534471Y-87297550D01*
X133534468Y-87297550D01*
X133379823Y-87328311D01*
X133379811Y-87328314D01*
X133234140Y-87388652D01*
X133234127Y-87388659D01*
X133103024Y-87476260D01*
X133103020Y-87476263D01*
X132991526Y-87587757D01*
X132991523Y-87587761D01*
X132903922Y-87718864D01*
X132903915Y-87718877D01*
X132843577Y-87864548D01*
X132843574Y-87864560D01*
X132825077Y-87957550D01*
X132792692Y-88019461D01*
X132791141Y-88021040D01*
X131834438Y-88977743D01*
X131834431Y-88977750D01*
X131831286Y-88980896D01*
X131831284Y-88980898D01*
X131719480Y-89092702D01*
X131694522Y-89135931D01*
X131688615Y-89146161D01*
X131688614Y-89146163D01*
X131672033Y-89174883D01*
X131640423Y-89229633D01*
X131599499Y-89382361D01*
X131599499Y-89382363D01*
X131599499Y-89550464D01*
X131599500Y-89550477D01*
X131599500Y-90299903D01*
X131579815Y-90366942D01*
X131563181Y-90387584D01*
X131187584Y-90763181D01*
X131126261Y-90796666D01*
X131099903Y-90799500D01*
X128949097Y-90799500D01*
X128882058Y-90779815D01*
X128836303Y-90727011D01*
X128826359Y-90657853D01*
X128855384Y-90594297D01*
X128861416Y-90587819D01*
X134040566Y-85408669D01*
X134101889Y-85375184D01*
X134128247Y-85372350D01*
X136979053Y-85372350D01*
X137046092Y-85392035D01*
X137091847Y-85444839D01*
X137101791Y-85513997D01*
X137072766Y-85577553D01*
X137066734Y-85584031D01*
X136385339Y-86265425D01*
X136324016Y-86298910D01*
X136321850Y-86299361D01*
X136166508Y-86330261D01*
X136166498Y-86330264D01*
X136020827Y-86390602D01*
X136020814Y-86390609D01*
X135889711Y-86478210D01*
X135889707Y-86478213D01*
X135778213Y-86589707D01*
X135778210Y-86589711D01*
X135690609Y-86720814D01*
X135690602Y-86720827D01*
X135630264Y-86866498D01*
X135630261Y-86866510D01*
X135599500Y-87021153D01*
X135599500Y-87178846D01*
X135630261Y-87333489D01*
X135630264Y-87333501D01*
X135690602Y-87479172D01*
X135690609Y-87479185D01*
X135778210Y-87610288D01*
X135778213Y-87610292D01*
X135889707Y-87721786D01*
X135889711Y-87721789D01*
X136020814Y-87809390D01*
X136020827Y-87809397D01*
X136166498Y-87869735D01*
X136166503Y-87869737D01*
X136321153Y-87900499D01*
X136321156Y-87900500D01*
X136321158Y-87900500D01*
X136478844Y-87900500D01*
X136478845Y-87900499D01*
X136633497Y-87869737D01*
X136779179Y-87809394D01*
X136910289Y-87721789D01*
X137021789Y-87610289D01*
X137109394Y-87479179D01*
X137169737Y-87333497D01*
X137195217Y-87205401D01*
X137200638Y-87178150D01*
X137233023Y-87116239D01*
X137234521Y-87114713D01*
X137765496Y-86583737D01*
X137826817Y-86550254D01*
X137896508Y-86555238D01*
X137952442Y-86597109D01*
X137967736Y-86623967D01*
X137990604Y-86679175D01*
X137990609Y-86679185D01*
X138078210Y-86810288D01*
X138078213Y-86810292D01*
X138189707Y-86921786D01*
X138189711Y-86921789D01*
X138320814Y-87009390D01*
X138320827Y-87009397D01*
X138466498Y-87069735D01*
X138466503Y-87069737D01*
X138531147Y-87082595D01*
X138621849Y-87100638D01*
X138683760Y-87133023D01*
X138685339Y-87134574D01*
X139863181Y-88312416D01*
X139877884Y-88339343D01*
X139894477Y-88365162D01*
X139895368Y-88371362D01*
X139896666Y-88373739D01*
X139899500Y-88400097D01*
X139899500Y-88620234D01*
X139879815Y-88687273D01*
X139878602Y-88689125D01*
X139790609Y-88820814D01*
X139790602Y-88820827D01*
X139730264Y-88966498D01*
X139730261Y-88966510D01*
X139699500Y-89121153D01*
X139699500Y-89278846D01*
X139730261Y-89433489D01*
X139730264Y-89433501D01*
X139790602Y-89579172D01*
X139790609Y-89579185D01*
X139878210Y-89710288D01*
X139878213Y-89710292D01*
X139989707Y-89821786D01*
X139989711Y-89821789D01*
X140120814Y-89909390D01*
X140120827Y-89909397D01*
X140266498Y-89969735D01*
X140266503Y-89969737D01*
X140421153Y-90000499D01*
X140421156Y-90000500D01*
X140421158Y-90000500D01*
X140578844Y-90000500D01*
X140578845Y-90000499D01*
X140733497Y-89969737D01*
X140879179Y-89909394D01*
X141010289Y-89821789D01*
X141121789Y-89710289D01*
X141209394Y-89579179D01*
X141269737Y-89433497D01*
X141300500Y-89278842D01*
X141300500Y-89121158D01*
X141300500Y-89121155D01*
X141274146Y-88988667D01*
X141280373Y-88919075D01*
X141323236Y-88863898D01*
X141389126Y-88840653D01*
X141395763Y-88840475D01*
X141518819Y-88840475D01*
X141518820Y-88840474D01*
X141673472Y-88809712D01*
X141819154Y-88749369D01*
X141950264Y-88661764D01*
X142061764Y-88550264D01*
X142149369Y-88419154D01*
X142209712Y-88273472D01*
X142240475Y-88118817D01*
X142240475Y-87961133D01*
X142240475Y-87961130D01*
X142240474Y-87961128D01*
X142224282Y-87879725D01*
X142209712Y-87806478D01*
X142185742Y-87748609D01*
X142149372Y-87660802D01*
X142149365Y-87660789D01*
X142061764Y-87529686D01*
X142061761Y-87529682D01*
X141950267Y-87418188D01*
X141950263Y-87418185D01*
X141819160Y-87330584D01*
X141819147Y-87330577D01*
X141673476Y-87270239D01*
X141673466Y-87270236D01*
X141518126Y-87239337D01*
X141456216Y-87206952D01*
X141454637Y-87205401D01*
X139608766Y-85359531D01*
X139604428Y-85351587D01*
X139597181Y-85346162D01*
X139587944Y-85321399D01*
X139575281Y-85298208D01*
X139575926Y-85289179D01*
X139572763Y-85280698D01*
X139578379Y-85254876D01*
X139580265Y-85228516D01*
X139586083Y-85219462D01*
X139587614Y-85212425D01*
X139608754Y-85184184D01*
X139608759Y-85184177D01*
X139652370Y-85140566D01*
X139652371Y-85140563D01*
X140014662Y-84778272D01*
X140075983Y-84744789D01*
X140078150Y-84744338D01*
X140136085Y-84732813D01*
X140217897Y-84716540D01*
X142319200Y-84716540D01*
X142319200Y-84863459D01*
X142347858Y-85007534D01*
X142347861Y-85007544D01*
X142404078Y-85143266D01*
X142404083Y-85143275D01*
X142485698Y-85265419D01*
X142485701Y-85265423D01*
X142589576Y-85369298D01*
X142589580Y-85369301D01*
X142711724Y-85450916D01*
X142711730Y-85450919D01*
X142711731Y-85450920D01*
X142847458Y-85507140D01*
X142991540Y-85535799D01*
X142991544Y-85535800D01*
X142991545Y-85535800D01*
X143138456Y-85535800D01*
X143138457Y-85535799D01*
X143282542Y-85507140D01*
X143418269Y-85450920D01*
X143540420Y-85369301D01*
X143644301Y-85265420D01*
X143725920Y-85143269D01*
X143782140Y-85007542D01*
X143810800Y-84863455D01*
X143810800Y-84716545D01*
X143782140Y-84572458D01*
X143725920Y-84436731D01*
X143725919Y-84436730D01*
X143725916Y-84436724D01*
X143644301Y-84314580D01*
X143644298Y-84314576D01*
X143540423Y-84210701D01*
X143540419Y-84210698D01*
X143418275Y-84129083D01*
X143418266Y-84129078D01*
X143282544Y-84072861D01*
X143282545Y-84072861D01*
X143282542Y-84072860D01*
X143282538Y-84072859D01*
X143282534Y-84072858D01*
X143138459Y-84044200D01*
X143138455Y-84044200D01*
X142991545Y-84044200D01*
X142991540Y-84044200D01*
X142847465Y-84072858D01*
X142847455Y-84072861D01*
X142711733Y-84129078D01*
X142711724Y-84129083D01*
X142589580Y-84210698D01*
X142589576Y-84210701D01*
X142485701Y-84314576D01*
X142485698Y-84314580D01*
X142404083Y-84436724D01*
X142404078Y-84436733D01*
X142347861Y-84572455D01*
X142347858Y-84572465D01*
X142319200Y-84716540D01*
X140217897Y-84716540D01*
X140233497Y-84713437D01*
X140379179Y-84653094D01*
X140443237Y-84610292D01*
X140447639Y-84607351D01*
X140476235Y-84588242D01*
X140510289Y-84565489D01*
X140621789Y-84453989D01*
X140709394Y-84322879D01*
X140769737Y-84177197D01*
X140800500Y-84022542D01*
X140800500Y-83864858D01*
X140800500Y-83864855D01*
X140800499Y-83864853D01*
X140771849Y-83720821D01*
X140769737Y-83710203D01*
X140719828Y-83589711D01*
X140709397Y-83564527D01*
X140709390Y-83564514D01*
X140621789Y-83433411D01*
X140621786Y-83433407D01*
X140510292Y-83321913D01*
X140510288Y-83321910D01*
X140379185Y-83234309D01*
X140379172Y-83234302D01*
X140233501Y-83173964D01*
X140233489Y-83173961D01*
X140078845Y-83143200D01*
X140078842Y-83143200D01*
X139921158Y-83143200D01*
X139921155Y-83143200D01*
X139766510Y-83173961D01*
X139766498Y-83173964D01*
X139620827Y-83234302D01*
X139620814Y-83234309D01*
X139489711Y-83321910D01*
X139489707Y-83321913D01*
X139378213Y-83433407D01*
X139378210Y-83433411D01*
X139290609Y-83564514D01*
X139290602Y-83564527D01*
X139230264Y-83710198D01*
X139230261Y-83710208D01*
X139199361Y-83865550D01*
X139166976Y-83927461D01*
X139165425Y-83929039D01*
X138959434Y-84135031D01*
X138898111Y-84168516D01*
X138871753Y-84171350D01*
X133749091Y-84171350D01*
X133721131Y-84178841D01*
X133721132Y-84178842D01*
X133596365Y-84212273D01*
X133486499Y-84275704D01*
X133481138Y-84277004D01*
X133477002Y-84280653D01*
X133447556Y-84285151D01*
X133418599Y-84292176D01*
X133413384Y-84290371D01*
X133407934Y-84291204D01*
X133380731Y-84279069D01*
X133352572Y-84269323D01*
X133349162Y-84264987D01*
X133344125Y-84262740D01*
X133327797Y-84237818D01*
X133309382Y-84214401D01*
X133308057Y-84207689D01*
X133305835Y-84204297D01*
X133301136Y-84172608D01*
X133300505Y-84169408D01*
X133300500Y-84168840D01*
X133300500Y-84021158D01*
X133299139Y-84014319D01*
X133299037Y-84002655D01*
X133305526Y-83979810D01*
X133307645Y-83956154D01*
X133315767Y-83943761D01*
X133318130Y-83935444D01*
X133325451Y-83928986D01*
X133335349Y-83913884D01*
X136114662Y-81134572D01*
X136175983Y-81101089D01*
X136178150Y-81100638D01*
X136236085Y-81089113D01*
X136333497Y-81069737D01*
X136479179Y-81009394D01*
X136610289Y-80921789D01*
X136721789Y-80810289D01*
X136809394Y-80679179D01*
X136869737Y-80533497D01*
X136900500Y-80378842D01*
X136900500Y-80221158D01*
X136900500Y-80221155D01*
X136900499Y-80221153D01*
X136869738Y-80066510D01*
X136869738Y-80066508D01*
X136869737Y-80066503D01*
X136869735Y-80066498D01*
X136809397Y-79920827D01*
X136809390Y-79920814D01*
X136721789Y-79789711D01*
X136721786Y-79789707D01*
X136610292Y-79678213D01*
X136610288Y-79678210D01*
X136479185Y-79590609D01*
X136479172Y-79590602D01*
X136333501Y-79530264D01*
X136333489Y-79530261D01*
X136178845Y-79499500D01*
X136178842Y-79499500D01*
X136021158Y-79499500D01*
X136021155Y-79499500D01*
X135866510Y-79530261D01*
X135866498Y-79530264D01*
X135720827Y-79590602D01*
X135720814Y-79590609D01*
X135589711Y-79678210D01*
X135589707Y-79678213D01*
X135478213Y-79789707D01*
X135478210Y-79789711D01*
X135390609Y-79920814D01*
X135390602Y-79920827D01*
X135330264Y-80066498D01*
X135330261Y-80066508D01*
X135299361Y-80221850D01*
X135266976Y-80283761D01*
X135265425Y-80285339D01*
X132205415Y-83345348D01*
X132165188Y-83372227D01*
X132120829Y-83390601D01*
X132120814Y-83390609D01*
X131989711Y-83478210D01*
X131989707Y-83478213D01*
X131878213Y-83589707D01*
X131878210Y-83589711D01*
X131790609Y-83720814D01*
X131790602Y-83720827D01*
X131730264Y-83866498D01*
X131730261Y-83866510D01*
X131699500Y-84021153D01*
X131699500Y-84178846D01*
X131730261Y-84333489D01*
X131730264Y-84333501D01*
X131790602Y-84479172D01*
X131790609Y-84479185D01*
X131878210Y-84610288D01*
X131878213Y-84610292D01*
X131989707Y-84721786D01*
X131989711Y-84721789D01*
X132120814Y-84809390D01*
X132120827Y-84809397D01*
X132251337Y-84863455D01*
X132266503Y-84869737D01*
X132421153Y-84900499D01*
X132421156Y-84900500D01*
X132550902Y-84900500D01*
X132617941Y-84920185D01*
X132663696Y-84972989D01*
X132673640Y-85042147D01*
X132644615Y-85105703D01*
X132638583Y-85112181D01*
X127934601Y-89816164D01*
X127873278Y-89849649D01*
X127846920Y-89852483D01*
X127538715Y-89852483D01*
X127471676Y-89832798D01*
X127469824Y-89831585D01*
X127338134Y-89743592D01*
X127338121Y-89743585D01*
X127192450Y-89683247D01*
X127192438Y-89683244D01*
X127037794Y-89652483D01*
X127037791Y-89652483D01*
X126880107Y-89652483D01*
X126880104Y-89652483D01*
X126725459Y-89683244D01*
X126725447Y-89683247D01*
X126579776Y-89743585D01*
X126579763Y-89743592D01*
X126448660Y-89831193D01*
X126448656Y-89831196D01*
X126337162Y-89942690D01*
X126337159Y-89942694D01*
X126249558Y-90073797D01*
X126249551Y-90073810D01*
X126189213Y-90219481D01*
X126189210Y-90219493D01*
X126158449Y-90374136D01*
X126158449Y-90531829D01*
X126182215Y-90651309D01*
X126175988Y-90720901D01*
X126133125Y-90776078D01*
X126067235Y-90799322D01*
X126060598Y-90799500D01*
X120300098Y-90799500D01*
X120233059Y-90779815D01*
X120212417Y-90763181D01*
X117487590Y-88038355D01*
X117487588Y-88038352D01*
X117368717Y-87919481D01*
X117368709Y-87919475D01*
X117273580Y-87864553D01*
X117273578Y-87864552D01*
X117231790Y-87840425D01*
X117231789Y-87840424D01*
X117219263Y-87837067D01*
X117079057Y-87799499D01*
X116920943Y-87799499D01*
X116913347Y-87799499D01*
X116913331Y-87799500D01*
X113843665Y-87799500D01*
X113776626Y-87779815D01*
X113748554Y-87752242D01*
X113747245Y-87753317D01*
X113743378Y-87748605D01*
X113631884Y-87637111D01*
X113631880Y-87637108D01*
X113500777Y-87549507D01*
X113500764Y-87549500D01*
X113355093Y-87489162D01*
X113355081Y-87489159D01*
X113200437Y-87458398D01*
X113200434Y-87458398D01*
X113042750Y-87458398D01*
X113042747Y-87458398D01*
X112888102Y-87489159D01*
X112888090Y-87489162D01*
X112742419Y-87549500D01*
X112742406Y-87549507D01*
X112611303Y-87637108D01*
X112611299Y-87637111D01*
X112499805Y-87748605D01*
X112499802Y-87748609D01*
X112412201Y-87879712D01*
X112412194Y-87879725D01*
X112351856Y-88025396D01*
X112351853Y-88025408D01*
X112321092Y-88180051D01*
X106500500Y-88180051D01*
X106500500Y-73021153D01*
X135712001Y-73021153D01*
X135712001Y-73178846D01*
X135742762Y-73333489D01*
X135742765Y-73333501D01*
X135803103Y-73479172D01*
X135803110Y-73479185D01*
X135890711Y-73610288D01*
X135890714Y-73610292D01*
X136002208Y-73721786D01*
X136002212Y-73721789D01*
X136133315Y-73809390D01*
X136133328Y-73809397D01*
X136278999Y-73869735D01*
X136279004Y-73869737D01*
X136433654Y-73900499D01*
X136433657Y-73900500D01*
X136433659Y-73900500D01*
X136591345Y-73900500D01*
X136591346Y-73900499D01*
X136745998Y-73869737D01*
X136821464Y-73838478D01*
X136890365Y-73809939D01*
X136937817Y-73800500D01*
X141707185Y-73800500D01*
X141754637Y-73809939D01*
X141898999Y-73869735D01*
X141899004Y-73869737D01*
X142053654Y-73900499D01*
X142053657Y-73900500D01*
X142053659Y-73900500D01*
X142211345Y-73900500D01*
X142211346Y-73900499D01*
X142365998Y-73869737D01*
X142511680Y-73809394D01*
X142642790Y-73721789D01*
X142754290Y-73610289D01*
X142841895Y-73479179D01*
X142902238Y-73333497D01*
X142933001Y-73178842D01*
X142933001Y-73021158D01*
X142933001Y-73021155D01*
X142933000Y-73021153D01*
X142902239Y-72866510D01*
X142902238Y-72866503D01*
X142902236Y-72866498D01*
X142841898Y-72720827D01*
X142841891Y-72720814D01*
X142754290Y-72589711D01*
X142754287Y-72589707D01*
X142642793Y-72478213D01*
X142642789Y-72478210D01*
X142511686Y-72390609D01*
X142511673Y-72390602D01*
X142366002Y-72330264D01*
X142365990Y-72330261D01*
X142211346Y-72299500D01*
X142211343Y-72299500D01*
X142053659Y-72299500D01*
X142053656Y-72299500D01*
X141899011Y-72330261D01*
X141898999Y-72330264D01*
X141754637Y-72390061D01*
X141707185Y-72399500D01*
X136937817Y-72399500D01*
X136890365Y-72390061D01*
X136746002Y-72330264D01*
X136745990Y-72330261D01*
X136591346Y-72299500D01*
X136591343Y-72299500D01*
X136433659Y-72299500D01*
X136433656Y-72299500D01*
X136279011Y-72330261D01*
X136278999Y-72330264D01*
X136133328Y-72390602D01*
X136133315Y-72390609D01*
X136002212Y-72478210D01*
X136002208Y-72478213D01*
X135890714Y-72589707D01*
X135890711Y-72589711D01*
X135803110Y-72720814D01*
X135803103Y-72720827D01*
X135742765Y-72866498D01*
X135742762Y-72866510D01*
X135712001Y-73021153D01*
X106500500Y-73021153D01*
X106500500Y-68321153D01*
X138599500Y-68321153D01*
X138599500Y-68478846D01*
X138630261Y-68633489D01*
X138630264Y-68633501D01*
X138690602Y-68779172D01*
X138690609Y-68779185D01*
X138778210Y-68910288D01*
X138778213Y-68910292D01*
X138889707Y-69021786D01*
X138889711Y-69021789D01*
X139020814Y-69109390D01*
X139020827Y-69109397D01*
X139166498Y-69169735D01*
X139166503Y-69169737D01*
X139231147Y-69182595D01*
X139321849Y-69200638D01*
X139383760Y-69233023D01*
X139385339Y-69234574D01*
X139767815Y-69617050D01*
X139801300Y-69678373D01*
X139801751Y-69680539D01*
X139832651Y-69835881D01*
X139832654Y-69835891D01*
X139892992Y-69981562D01*
X139892999Y-69981575D01*
X139980600Y-70112678D01*
X139980603Y-70112682D01*
X140092097Y-70224176D01*
X140092101Y-70224179D01*
X140223204Y-70311780D01*
X140223217Y-70311787D01*
X140368888Y-70372125D01*
X140368893Y-70372127D01*
X140523543Y-70402889D01*
X140523546Y-70402890D01*
X140523548Y-70402890D01*
X140681234Y-70402890D01*
X140681235Y-70402889D01*
X140835887Y-70372127D01*
X140981569Y-70311784D01*
X141112679Y-70224179D01*
X141224179Y-70112679D01*
X141311784Y-69981569D01*
X141372127Y-69835887D01*
X141402890Y-69681232D01*
X141402890Y-69523548D01*
X141402890Y-69523545D01*
X141402889Y-69523543D01*
X141372128Y-69368900D01*
X141372127Y-69368893D01*
X141316491Y-69234574D01*
X141311787Y-69223217D01*
X141311780Y-69223204D01*
X141224179Y-69092101D01*
X141224176Y-69092097D01*
X141112682Y-68980603D01*
X141112678Y-68980600D01*
X140981575Y-68892999D01*
X140981562Y-68892992D01*
X140835891Y-68832654D01*
X140835881Y-68832651D01*
X140680539Y-68801751D01*
X140618628Y-68769366D01*
X140617050Y-68767815D01*
X140234574Y-68385339D01*
X140201089Y-68324016D01*
X140200638Y-68321849D01*
X140169738Y-68166510D01*
X140169737Y-68166503D01*
X140169735Y-68166498D01*
X140109397Y-68020827D01*
X140109390Y-68020814D01*
X140021789Y-67889711D01*
X140021786Y-67889707D01*
X139910292Y-67778213D01*
X139910288Y-67778210D01*
X139779185Y-67690609D01*
X139779172Y-67690602D01*
X139633501Y-67630264D01*
X139633489Y-67630261D01*
X139478845Y-67599500D01*
X139478842Y-67599500D01*
X139321158Y-67599500D01*
X139321155Y-67599500D01*
X139166510Y-67630261D01*
X139166498Y-67630264D01*
X139020827Y-67690602D01*
X139020814Y-67690609D01*
X138889711Y-67778210D01*
X138889707Y-67778213D01*
X138778213Y-67889707D01*
X138778210Y-67889711D01*
X138690609Y-68020814D01*
X138690602Y-68020827D01*
X138630264Y-68166498D01*
X138630261Y-68166510D01*
X138599500Y-68321153D01*
X106500500Y-68321153D01*
X106500500Y-49624500D01*
X106520185Y-49557461D01*
X106572989Y-49511706D01*
X106624500Y-49500500D01*
X146975500Y-49500500D01*
X147042539Y-49520185D01*
G37*
%TD.AperFunction*%
%TD*%
M02*
