%TF.GenerationSoftware,KiCad,Pcbnew,9.0.7-9.0.7~ubuntu24.04.1*%
%TF.CreationDate,2026-08-10T20:56:37+02:00*%
%TF.ProjectId,RO-Trng,524f2d54-726e-4672-9e6b-696361645f70,rev?*%
%TF.SameCoordinates,Original*%
%TF.FileFunction,Soldermask,Top*%
%TF.FilePolarity,Negative*%
%FSLAX46Y46*%
G04 Gerber Fmt 4.6, Leading zero omitted, Abs format (unit mm)*
G04 Created by KiCad (PCBNEW 9.0.7-9.0.7~ubuntu24.04.1) date 2026-08-10 20:56:37*
%MOMM*%
%LPD*%
G01*
G04 APERTURE LIST*
G04 Aperture macros list*
%AMRoundRect*
0 Rectangle with rounded corners*
0 $1 Rounding radius*
0 $2 $3 $4 $5 $6 $7 $8 $9 X,Y pos of 4 corners*
0 Add a 4 corners polygon primitive as box body*
4,1,4,$2,$3,$4,$5,$6,$7,$8,$9,$2,$3,0*
0 Add four circle primitives for the rounded corners*
1,1,$1+$1,$2,$3*
1,1,$1+$1,$4,$5*
1,1,$1+$1,$6,$7*
1,1,$1+$1,$8,$9*
0 Add four rect primitives between the rounded corners*
20,1,$1+$1,$2,$3,$4,$5,0*
20,1,$1+$1,$4,$5,$6,$7,0*
20,1,$1+$1,$6,$7,$8,$9,0*
20,1,$1+$1,$8,$9,$2,$3,0*%
G04 Aperture macros list end*
%ADD10RoundRect,0.237500X0.237500X-0.300000X0.237500X0.300000X-0.237500X0.300000X-0.237500X-0.300000X0*%
%ADD11RoundRect,0.135000X0.185000X-0.135000X0.185000X0.135000X-0.185000X0.135000X-0.185000X-0.135000X0*%
%ADD12RoundRect,0.135000X0.135000X0.185000X-0.135000X0.185000X-0.135000X-0.185000X0.135000X-0.185000X0*%
%ADD13RoundRect,0.218750X-0.218750X-0.256250X0.218750X-0.256250X0.218750X0.256250X-0.218750X0.256250X0*%
%ADD14RoundRect,0.140000X-0.170000X0.140000X-0.170000X-0.140000X0.170000X-0.140000X0.170000X0.140000X0*%
%ADD15RoundRect,0.250000X0.350000X-0.450000X0.350000X0.450000X-0.350000X0.450000X-0.350000X-0.450000X0*%
%ADD16R,1.000000X0.750000*%
%ADD17RoundRect,0.250000X-0.450000X0.262500X-0.450000X-0.262500X0.450000X-0.262500X0.450000X0.262500X0*%
%ADD18RoundRect,0.135000X-0.185000X0.135000X-0.185000X-0.135000X0.185000X-0.135000X0.185000X0.135000X0*%
%ADD19RoundRect,0.140000X-0.140000X-0.170000X0.140000X-0.170000X0.140000X0.170000X-0.140000X0.170000X0*%
%ADD20RoundRect,0.200000X0.275000X-0.200000X0.275000X0.200000X-0.275000X0.200000X-0.275000X-0.200000X0*%
%ADD21RoundRect,0.135000X-0.135000X-0.185000X0.135000X-0.185000X0.135000X0.185000X-0.135000X0.185000X0*%
%ADD22RoundRect,0.100000X0.637500X0.100000X-0.637500X0.100000X-0.637500X-0.100000X0.637500X-0.100000X0*%
%ADD23RoundRect,0.200000X-0.200000X-0.275000X0.200000X-0.275000X0.200000X0.275000X-0.200000X0.275000X0*%
%ADD24R,1.000000X1.000000*%
%ADD25R,1.000000X1.750000*%
%ADD26R,1.000000X3.300000*%
%ADD27R,2.100000X1.000000*%
%ADD28R,3.300000X1.000000*%
%ADD29RoundRect,0.150000X-0.150000X0.512500X-0.150000X-0.512500X0.150000X-0.512500X0.150000X0.512500X0*%
%ADD30RoundRect,0.100000X-0.637500X-0.100000X0.637500X-0.100000X0.637500X0.100000X-0.637500X0.100000X0*%
%ADD31RoundRect,0.250000X0.250000X0.475000X-0.250000X0.475000X-0.250000X-0.475000X0.250000X-0.475000X0*%
%ADD32RoundRect,0.140000X0.140000X0.170000X-0.140000X0.170000X-0.140000X-0.170000X0.140000X-0.170000X0*%
%ADD33RoundRect,0.250000X-0.250000X-0.475000X0.250000X-0.475000X0.250000X0.475000X-0.250000X0.475000X0*%
%ADD34R,1.000000X2.000000*%
%ADD35R,0.520000X1.000000*%
%ADD36R,0.270000X1.000000*%
%ADD37O,1.300000X2.300000*%
%ADD38O,1.300000X2.600000*%
%ADD39RoundRect,0.250000X-0.475000X0.250000X-0.475000X-0.250000X0.475000X-0.250000X0.475000X0.250000X0*%
%ADD40C,0.787400*%
%ADD41RoundRect,0.237500X0.300000X0.237500X-0.300000X0.237500X-0.300000X-0.237500X0.300000X-0.237500X0*%
%ADD42RoundRect,0.140000X0.170000X-0.140000X0.170000X0.140000X-0.170000X0.140000X-0.170000X-0.140000X0*%
G04 APERTURE END LIST*
D10*
%TO.C,C13*%
X107849387Y-87200001D03*
X107849387Y-85474999D03*
%TD*%
D11*
%TO.C,R4*%
X109449384Y-87509997D03*
X109449384Y-86489999D03*
%TD*%
D12*
%TO.C,R12*%
X110522497Y-82399998D03*
X109502499Y-82399998D03*
%TD*%
D13*
%TO.C,D1*%
X109824998Y-81000000D03*
X111400000Y-81000000D03*
%TD*%
D14*
%TO.C,C18*%
X127000000Y-88240000D03*
X127000000Y-89200000D03*
%TD*%
D15*
%TO.C,Y1*%
X125400000Y-88800000D03*
X125400000Y-86600000D03*
X123700000Y-86600000D03*
X123700000Y-88800000D03*
%TD*%
D16*
%TO.C,SW1*%
X126200000Y-95475000D03*
X120200000Y-95475000D03*
X126200000Y-91725000D03*
X120200000Y-91725000D03*
%TD*%
D17*
%TO.C,R14*%
X128600000Y-81887500D03*
X128600000Y-83712500D03*
%TD*%
D18*
%TO.C,R10*%
X139756902Y-74917502D03*
X139756902Y-75937502D03*
%TD*%
D19*
%TO.C,C4*%
X133037500Y-56600000D03*
X133997500Y-56600000D03*
%TD*%
D20*
%TO.C,FB1*%
X128200000Y-95825000D03*
X128200000Y-94175000D03*
%TD*%
D21*
%TO.C,R1*%
X144117501Y-81737498D03*
X145137499Y-81737498D03*
%TD*%
D20*
%TO.C,FB2*%
X111000000Y-75925000D03*
X111000000Y-74275000D03*
%TD*%
D22*
%TO.C,U4*%
X141875001Y-72475000D03*
X141875001Y-71825000D03*
X141875001Y-71175000D03*
X141875001Y-70525000D03*
X141875001Y-69875000D03*
X141875001Y-69225000D03*
X141875001Y-68575000D03*
X141875001Y-67925000D03*
X136150001Y-67925000D03*
X136150001Y-68575000D03*
X136150001Y-69225000D03*
X136150001Y-69875000D03*
X136150001Y-70525000D03*
X136150001Y-71175000D03*
X136150001Y-71825000D03*
X136150001Y-72475000D03*
%TD*%
D18*
%TO.C,R6*%
X133590235Y-74917502D03*
X133590235Y-75937502D03*
%TD*%
D21*
%TO.C,R13*%
X131580000Y-96000000D03*
X132600000Y-96000000D03*
%TD*%
D23*
%TO.C,FB3*%
X121875000Y-67850000D03*
X123525000Y-67850000D03*
%TD*%
%TO.C,FB5*%
X115150000Y-56100000D03*
X116800000Y-56100000D03*
%TD*%
D24*
%TO.C,J1*%
X145499999Y-78100000D03*
D25*
X145499999Y-76725000D03*
D26*
X145499999Y-71500000D03*
X145499999Y-65500000D03*
X145499999Y-59500000D03*
D25*
X145499999Y-54275000D03*
D24*
X145499999Y-52900000D03*
D27*
X143949999Y-78100000D03*
X143949999Y-52900000D03*
D28*
X138549999Y-78100000D03*
X138549999Y-52900000D03*
X132549999Y-78100000D03*
X132549999Y-52900000D03*
X126549999Y-78100000D03*
X126549999Y-52900000D03*
X120549999Y-78100000D03*
X120549999Y-52900000D03*
X114549999Y-78100000D03*
X114549999Y-52900000D03*
D27*
X109149999Y-78100000D03*
X109149999Y-52900000D03*
D24*
X107599999Y-78100000D03*
D25*
X107599999Y-76725000D03*
D26*
X107599999Y-71500000D03*
X107599999Y-65500000D03*
X107599999Y-59500000D03*
D25*
X107599999Y-54275000D03*
D24*
X107599999Y-52900000D03*
%TD*%
D29*
%TO.C,U6*%
X118804270Y-85185885D03*
X117854270Y-85185885D03*
X116904270Y-85185885D03*
X116904270Y-87460885D03*
X118804270Y-87460885D03*
%TD*%
D19*
%TO.C,C5*%
X124902500Y-67799999D03*
X125862500Y-67799999D03*
%TD*%
D10*
%TO.C,C9*%
X137700000Y-89162500D03*
X137700000Y-87437500D03*
%TD*%
D19*
%TO.C,C6*%
X124882500Y-68800000D03*
X125842500Y-68800000D03*
%TD*%
D30*
%TO.C,U3*%
X119037500Y-69850000D03*
X119037500Y-70500000D03*
X119037500Y-71150000D03*
X119037500Y-71800000D03*
X119037500Y-72450000D03*
X119037500Y-73100000D03*
X119037500Y-73750000D03*
X124762500Y-73750000D03*
X124762500Y-73100000D03*
X124762500Y-72450000D03*
X124762500Y-71800000D03*
X124762500Y-71150000D03*
X124762500Y-70500000D03*
X124762500Y-69850000D03*
%TD*%
D31*
%TO.C,C7*%
X111200001Y-69600000D03*
X109300001Y-69600000D03*
%TD*%
D32*
%TO.C,C16*%
X111280000Y-72900000D03*
X110320000Y-72900000D03*
%TD*%
D19*
%TO.C,C1*%
X118300001Y-56799999D03*
X119260001Y-56799999D03*
%TD*%
D33*
%TO.C,C12*%
X115854271Y-82560884D03*
X117754271Y-82560884D03*
%TD*%
D19*
%TO.C,C14*%
X142132501Y-74500000D03*
X143092501Y-74500000D03*
%TD*%
D18*
%TO.C,R11*%
X140990235Y-74917502D03*
X140990235Y-75937502D03*
%TD*%
%TO.C,R8*%
X136056902Y-74917502D03*
X136056902Y-75937502D03*
%TD*%
D19*
%TO.C,C2*%
X118320000Y-55800000D03*
X119280000Y-55800000D03*
%TD*%
D34*
%TO.C,J2*%
X111435271Y-94249383D03*
X114235271Y-94249383D03*
D35*
X109735271Y-90049383D03*
X110485271Y-90049383D03*
D36*
X111085271Y-90049383D03*
X112585271Y-90049383D03*
X113585271Y-90049383D03*
X114585271Y-90049383D03*
D35*
X115185271Y-90049383D03*
X115935271Y-90049383D03*
X115935271Y-90049383D03*
X115185271Y-90049383D03*
D36*
X114085271Y-90049383D03*
X113085271Y-90049383D03*
X112085271Y-90049383D03*
X111585271Y-90049383D03*
D35*
X110485271Y-90049383D03*
X109735271Y-90049383D03*
D37*
X108515271Y-90424383D03*
D38*
X108515271Y-94249383D03*
D37*
X117155271Y-90424383D03*
D38*
X117155271Y-94249383D03*
%TD*%
D13*
%TO.C,D2*%
X134225000Y-95800000D03*
X135800000Y-95800000D03*
%TD*%
D39*
%TO.C,C10*%
X137800000Y-90850000D03*
X137800000Y-92750000D03*
%TD*%
D30*
%TO.C,U5*%
X129088311Y-86837499D03*
X129088311Y-87487499D03*
X129088311Y-88137499D03*
X129088311Y-88787499D03*
X129088311Y-89437499D03*
X129088311Y-90087499D03*
X129088311Y-90737499D03*
X129088311Y-91387499D03*
X129088311Y-92037499D03*
X129088311Y-92687499D03*
X134813311Y-92687499D03*
X134813311Y-92037499D03*
X134813311Y-91387499D03*
X134813311Y-90737499D03*
X134813311Y-90087499D03*
X134813311Y-89437499D03*
X134813311Y-88787499D03*
X134813311Y-88137499D03*
X134813311Y-87487499D03*
X134813311Y-86837499D03*
%TD*%
D23*
%TO.C,FB4*%
X129850000Y-55800000D03*
X131500000Y-55800000D03*
%TD*%
D18*
%TO.C,R9*%
X138523568Y-74917502D03*
X138523568Y-75937502D03*
%TD*%
D30*
%TO.C,U1*%
X112437500Y-57850000D03*
X112437500Y-58500000D03*
X112437500Y-59150000D03*
X112437500Y-59800000D03*
X112437500Y-60450000D03*
X112437500Y-61100000D03*
X112437500Y-61750000D03*
X118162500Y-61750000D03*
X118162500Y-61100000D03*
X118162500Y-60450000D03*
X118162500Y-59800000D03*
X118162500Y-59150000D03*
X118162500Y-58500000D03*
X118162500Y-57850000D03*
%TD*%
%TO.C,U2*%
X127237500Y-57650000D03*
X127237500Y-58300000D03*
X127237500Y-58950000D03*
X127237500Y-59600000D03*
X127237500Y-60250000D03*
X127237500Y-60900000D03*
X127237500Y-61550000D03*
X132962500Y-61550000D03*
X132962500Y-60900000D03*
X132962500Y-60250000D03*
X132962500Y-59600000D03*
X132962500Y-58950000D03*
X132962500Y-58300000D03*
X132962500Y-57650000D03*
%TD*%
D18*
%TO.C,R7*%
X134823568Y-74917502D03*
X134823568Y-75937502D03*
%TD*%
%TO.C,R5*%
X137290235Y-74917502D03*
X137290235Y-75937502D03*
%TD*%
D40*
%TO.C,J3*%
X142430000Y-86060000D03*
X142430000Y-87330000D03*
X142430000Y-88600000D03*
X142430000Y-89870000D03*
X142430000Y-91140000D03*
X143700000Y-91140000D03*
X143700000Y-89870000D03*
X143700000Y-88600000D03*
X143700000Y-87330000D03*
X143700000Y-86060000D03*
%TD*%
D19*
%TO.C,C15*%
X142132501Y-73500000D03*
X143092501Y-73500000D03*
%TD*%
D41*
%TO.C,C11*%
X145490003Y-79937498D03*
X143765001Y-79937498D03*
%TD*%
D19*
%TO.C,C3*%
X133037500Y-55600000D03*
X133997500Y-55600000D03*
%TD*%
D11*
%TO.C,R2*%
X111005273Y-87349385D03*
X111005273Y-86329385D03*
%TD*%
%TO.C,R3*%
X114205272Y-87349385D03*
X114205272Y-86329385D03*
%TD*%
D41*
%TO.C,C8*%
X111125001Y-71500000D03*
X109400001Y-71500000D03*
%TD*%
D42*
%TO.C,C17*%
X127000000Y-87200000D03*
X127000000Y-86240000D03*
%TD*%
M02*
