%TF.GenerationSoftware,KiCad,Pcbnew,9.0.7-9.0.7~ubuntu24.04.1*%
%TF.CreationDate,2026-08-10T20:56:37+02:00*%
%TF.ProjectId,RO-Trng,524f2d54-726e-4672-9e6b-696361645f70,rev?*%
%TF.SameCoordinates,Original*%
%TF.FileFunction,Legend,Top*%
%TF.FilePolarity,Positive*%
%FSLAX46Y46*%
G04 Gerber Fmt 4.6, Leading zero omitted, Abs format (unit mm)*
G04 Created by KiCad (PCBNEW 9.0.7-9.0.7~ubuntu24.04.1) date 2026-08-10 20:56:37*
%MOMM*%
%LPD*%
G01*
G04 APERTURE LIST*
G04 Aperture macros list*
%AMRoundRect*
0 Rectangle with rounded corners*
0 $1 Rounding radius*
0 $2 $3 $4 $5 $6 $7 $8 $9 X,Y pos of 4 corners*
0 Add a 4 corners polygon primitive as box body*
4,1,4,$2,$3,$4,$5,$6,$7,$8,$9,$2,$3,0*
0 Add four circle primitives for the rounded corners*
1,1,$1+$1,$2,$3*
1,1,$1+$1,$4,$5*
1,1,$1+$1,$6,$7*
1,1,$1+$1,$8,$9*
0 Add four rect primitives between the rounded corners*
20,1,$1+$1,$2,$3,$4,$5,0*
20,1,$1+$1,$4,$5,$6,$7,0*
20,1,$1+$1,$6,$7,$8,$9,0*
20,1,$1+$1,$8,$9,$2,$3,0*%
G04 Aperture macros list end*
%ADD10C,0.200000*%
%ADD11C,0.150000*%
%ADD12C,0.120000*%
%ADD13RoundRect,0.237500X0.237500X-0.300000X0.237500X0.300000X-0.237500X0.300000X-0.237500X-0.300000X0*%
%ADD14RoundRect,0.135000X0.185000X-0.135000X0.185000X0.135000X-0.185000X0.135000X-0.185000X-0.135000X0*%
%ADD15RoundRect,0.135000X0.135000X0.185000X-0.135000X0.185000X-0.135000X-0.185000X0.135000X-0.185000X0*%
%ADD16RoundRect,0.218750X-0.218750X-0.256250X0.218750X-0.256250X0.218750X0.256250X-0.218750X0.256250X0*%
%ADD17RoundRect,0.140000X-0.170000X0.140000X-0.170000X-0.140000X0.170000X-0.140000X0.170000X0.140000X0*%
%ADD18RoundRect,0.250000X0.350000X-0.450000X0.350000X0.450000X-0.350000X0.450000X-0.350000X-0.450000X0*%
%ADD19R,1.000000X0.750000*%
%ADD20RoundRect,0.250000X-0.450000X0.262500X-0.450000X-0.262500X0.450000X-0.262500X0.450000X0.262500X0*%
%ADD21RoundRect,0.135000X-0.185000X0.135000X-0.185000X-0.135000X0.185000X-0.135000X0.185000X0.135000X0*%
%ADD22RoundRect,0.140000X-0.140000X-0.170000X0.140000X-0.170000X0.140000X0.170000X-0.140000X0.170000X0*%
%ADD23RoundRect,0.200000X0.275000X-0.200000X0.275000X0.200000X-0.275000X0.200000X-0.275000X-0.200000X0*%
%ADD24RoundRect,0.135000X-0.135000X-0.185000X0.135000X-0.185000X0.135000X0.185000X-0.135000X0.185000X0*%
%ADD25RoundRect,0.100000X0.637500X0.100000X-0.637500X0.100000X-0.637500X-0.100000X0.637500X-0.100000X0*%
%ADD26RoundRect,0.200000X-0.200000X-0.275000X0.200000X-0.275000X0.200000X0.275000X-0.200000X0.275000X0*%
%ADD27R,1.000000X1.000000*%
%ADD28R,1.000000X1.750000*%
%ADD29R,1.000000X3.300000*%
%ADD30R,2.100000X1.000000*%
%ADD31R,3.300000X1.000000*%
%ADD32RoundRect,0.150000X-0.150000X0.512500X-0.150000X-0.512500X0.150000X-0.512500X0.150000X0.512500X0*%
%ADD33RoundRect,0.100000X-0.637500X-0.100000X0.637500X-0.100000X0.637500X0.100000X-0.637500X0.100000X0*%
%ADD34RoundRect,0.250000X0.250000X0.475000X-0.250000X0.475000X-0.250000X-0.475000X0.250000X-0.475000X0*%
%ADD35RoundRect,0.140000X0.140000X0.170000X-0.140000X0.170000X-0.140000X-0.170000X0.140000X-0.170000X0*%
%ADD36RoundRect,0.250000X-0.250000X-0.475000X0.250000X-0.475000X0.250000X0.475000X-0.250000X0.475000X0*%
%ADD37C,0.600000*%
%ADD38R,1.000000X2.000000*%
%ADD39O,0.850000X0.600000*%
%ADD40R,0.520000X1.000000*%
%ADD41R,0.270000X1.000000*%
%ADD42O,1.300000X2.300000*%
%ADD43O,1.300000X2.600000*%
%ADD44RoundRect,0.250000X-0.475000X0.250000X-0.475000X-0.250000X0.475000X-0.250000X0.475000X0.250000X0*%
%ADD45C,0.990600*%
%ADD46C,0.787400*%
%ADD47RoundRect,0.237500X0.300000X0.237500X-0.300000X0.237500X-0.300000X-0.237500X0.300000X-0.237500X0*%
%ADD48RoundRect,0.140000X0.170000X-0.140000X0.170000X0.140000X-0.170000X0.140000X-0.170000X-0.140000X0*%
G04 APERTURE END LIST*
D10*
X136817292Y-95814171D02*
X137217292Y-95814171D01*
X137388720Y-96442742D02*
X136817292Y-96442742D01*
X136817292Y-96442742D02*
X136817292Y-95242742D01*
X136817292Y-95242742D02*
X137388720Y-95242742D01*
X138588720Y-96442742D02*
X138188720Y-95871314D01*
X137903006Y-96442742D02*
X137903006Y-95242742D01*
X137903006Y-95242742D02*
X138360149Y-95242742D01*
X138360149Y-95242742D02*
X138474434Y-95299885D01*
X138474434Y-95299885D02*
X138531577Y-95357028D01*
X138531577Y-95357028D02*
X138588720Y-95471314D01*
X138588720Y-95471314D02*
X138588720Y-95642742D01*
X138588720Y-95642742D02*
X138531577Y-95757028D01*
X138531577Y-95757028D02*
X138474434Y-95814171D01*
X138474434Y-95814171D02*
X138360149Y-95871314D01*
X138360149Y-95871314D02*
X137903006Y-95871314D01*
X139788720Y-96442742D02*
X139388720Y-95871314D01*
X139103006Y-96442742D02*
X139103006Y-95242742D01*
X139103006Y-95242742D02*
X139560149Y-95242742D01*
X139560149Y-95242742D02*
X139674434Y-95299885D01*
X139674434Y-95299885D02*
X139731577Y-95357028D01*
X139731577Y-95357028D02*
X139788720Y-95471314D01*
X139788720Y-95471314D02*
X139788720Y-95642742D01*
X139788720Y-95642742D02*
X139731577Y-95757028D01*
X139731577Y-95757028D02*
X139674434Y-95814171D01*
X139674434Y-95814171D02*
X139560149Y-95871314D01*
X139560149Y-95871314D02*
X139103006Y-95871314D01*
X140531577Y-95242742D02*
X140760149Y-95242742D01*
X140760149Y-95242742D02*
X140874434Y-95299885D01*
X140874434Y-95299885D02*
X140988720Y-95414171D01*
X140988720Y-95414171D02*
X141045863Y-95642742D01*
X141045863Y-95642742D02*
X141045863Y-96042742D01*
X141045863Y-96042742D02*
X140988720Y-96271314D01*
X140988720Y-96271314D02*
X140874434Y-96385600D01*
X140874434Y-96385600D02*
X140760149Y-96442742D01*
X140760149Y-96442742D02*
X140531577Y-96442742D01*
X140531577Y-96442742D02*
X140417292Y-96385600D01*
X140417292Y-96385600D02*
X140303006Y-96271314D01*
X140303006Y-96271314D02*
X140245863Y-96042742D01*
X140245863Y-96042742D02*
X140245863Y-95642742D01*
X140245863Y-95642742D02*
X140303006Y-95414171D01*
X140303006Y-95414171D02*
X140417292Y-95299885D01*
X140417292Y-95299885D02*
X140531577Y-95242742D01*
X142245863Y-96442742D02*
X141845863Y-95871314D01*
X141560149Y-96442742D02*
X141560149Y-95242742D01*
X141560149Y-95242742D02*
X142017292Y-95242742D01*
X142017292Y-95242742D02*
X142131577Y-95299885D01*
X142131577Y-95299885D02*
X142188720Y-95357028D01*
X142188720Y-95357028D02*
X142245863Y-95471314D01*
X142245863Y-95471314D02*
X142245863Y-95642742D01*
X142245863Y-95642742D02*
X142188720Y-95757028D01*
X142188720Y-95757028D02*
X142131577Y-95814171D01*
X142131577Y-95814171D02*
X142017292Y-95871314D01*
X142017292Y-95871314D02*
X141560149Y-95871314D01*
D11*
X136629580Y-88466666D02*
X136677200Y-88514285D01*
X136677200Y-88514285D02*
X136724819Y-88657142D01*
X136724819Y-88657142D02*
X136724819Y-88752380D01*
X136724819Y-88752380D02*
X136677200Y-88895237D01*
X136677200Y-88895237D02*
X136581961Y-88990475D01*
X136581961Y-88990475D02*
X136486723Y-89038094D01*
X136486723Y-89038094D02*
X136296247Y-89085713D01*
X136296247Y-89085713D02*
X136153390Y-89085713D01*
X136153390Y-89085713D02*
X135962914Y-89038094D01*
X135962914Y-89038094D02*
X135867676Y-88990475D01*
X135867676Y-88990475D02*
X135772438Y-88895237D01*
X135772438Y-88895237D02*
X135724819Y-88752380D01*
X135724819Y-88752380D02*
X135724819Y-88657142D01*
X135724819Y-88657142D02*
X135772438Y-88514285D01*
X135772438Y-88514285D02*
X135820057Y-88466666D01*
X136724819Y-87990475D02*
X136724819Y-87799999D01*
X136724819Y-87799999D02*
X136677200Y-87704761D01*
X136677200Y-87704761D02*
X136629580Y-87657142D01*
X136629580Y-87657142D02*
X136486723Y-87561904D01*
X136486723Y-87561904D02*
X136296247Y-87514285D01*
X136296247Y-87514285D02*
X135915295Y-87514285D01*
X135915295Y-87514285D02*
X135820057Y-87561904D01*
X135820057Y-87561904D02*
X135772438Y-87609523D01*
X135772438Y-87609523D02*
X135724819Y-87704761D01*
X135724819Y-87704761D02*
X135724819Y-87895237D01*
X135724819Y-87895237D02*
X135772438Y-87990475D01*
X135772438Y-87990475D02*
X135820057Y-88038094D01*
X135820057Y-88038094D02*
X135915295Y-88085713D01*
X135915295Y-88085713D02*
X136153390Y-88085713D01*
X136153390Y-88085713D02*
X136248628Y-88038094D01*
X136248628Y-88038094D02*
X136296247Y-87990475D01*
X136296247Y-87990475D02*
X136343866Y-87895237D01*
X136343866Y-87895237D02*
X136343866Y-87704761D01*
X136343866Y-87704761D02*
X136296247Y-87609523D01*
X136296247Y-87609523D02*
X136248628Y-87561904D01*
X136248628Y-87561904D02*
X136153390Y-87514285D01*
X131188906Y-85017319D02*
X131188906Y-85826842D01*
X131188906Y-85826842D02*
X131236525Y-85922080D01*
X131236525Y-85922080D02*
X131284144Y-85969700D01*
X131284144Y-85969700D02*
X131379382Y-86017319D01*
X131379382Y-86017319D02*
X131569858Y-86017319D01*
X131569858Y-86017319D02*
X131665096Y-85969700D01*
X131665096Y-85969700D02*
X131712715Y-85922080D01*
X131712715Y-85922080D02*
X131760334Y-85826842D01*
X131760334Y-85826842D02*
X131760334Y-85017319D01*
X132712715Y-85017319D02*
X132236525Y-85017319D01*
X132236525Y-85017319D02*
X132188906Y-85493509D01*
X132188906Y-85493509D02*
X132236525Y-85445890D01*
X132236525Y-85445890D02*
X132331763Y-85398271D01*
X132331763Y-85398271D02*
X132569858Y-85398271D01*
X132569858Y-85398271D02*
X132665096Y-85445890D01*
X132665096Y-85445890D02*
X132712715Y-85493509D01*
X132712715Y-85493509D02*
X132760334Y-85588747D01*
X132760334Y-85588747D02*
X132760334Y-85826842D01*
X132760334Y-85826842D02*
X132712715Y-85922080D01*
X132712715Y-85922080D02*
X132665096Y-85969700D01*
X132665096Y-85969700D02*
X132569858Y-86017319D01*
X132569858Y-86017319D02*
X132331763Y-86017319D01*
X132331763Y-86017319D02*
X132236525Y-85969700D01*
X132236525Y-85969700D02*
X132188906Y-85922080D01*
D12*
%TO.C,C13*%
X107339387Y-86483767D02*
X107339387Y-86191233D01*
X108359387Y-86483767D02*
X108359387Y-86191233D01*
%TO.C,R4*%
X109069384Y-87153639D02*
X109069384Y-86846357D01*
X109829384Y-87153639D02*
X109829384Y-86846357D01*
%TO.C,R12*%
X110166139Y-82019998D02*
X109858857Y-82019998D01*
X110166139Y-82779998D02*
X109858857Y-82779998D01*
%TO.C,D1*%
X109127499Y-80265000D02*
X109127499Y-81735000D01*
X109127499Y-81735000D02*
X111412499Y-81735000D01*
X111412499Y-80265000D02*
X109127499Y-80265000D01*
%TO.C,C18*%
X127360000Y-88612164D02*
X127360000Y-88827836D01*
X126640000Y-88612164D02*
X126640000Y-88827836D01*
%TO.C,Y1*%
X122839999Y-89760000D02*
X126260001Y-89760000D01*
X126260001Y-89760000D02*
X126260001Y-85640000D01*
%TO.C,SW1*%
X125950000Y-94600000D02*
X125950000Y-92600000D01*
X124949999Y-95900000D02*
X124500000Y-96350000D01*
X124949999Y-91300000D02*
X124500000Y-90850000D01*
X124500000Y-96350000D02*
X121900000Y-96350000D01*
X124500000Y-90850000D02*
X121900000Y-90850000D01*
X121450001Y-95900000D02*
X121900000Y-96350000D01*
X121450001Y-91300000D02*
X121900000Y-90850000D01*
X120450000Y-94600000D02*
X120450000Y-92600000D01*
%TO.C,R14*%
X129335000Y-82572936D02*
X129335000Y-83027064D01*
X127865000Y-82572936D02*
X127865000Y-83027064D01*
%TO.C,R10*%
X139376902Y-75273861D02*
X139376902Y-75581143D01*
X140136902Y-75273861D02*
X140136902Y-75581143D01*
%TO.C,C4*%
X133409664Y-56240000D02*
X133625336Y-56240000D01*
X133409664Y-56960000D02*
X133625336Y-56960000D01*
%TO.C,FB1*%
X127677500Y-95237258D02*
X127677500Y-94762742D01*
X128722500Y-95237258D02*
X128722500Y-94762742D01*
%TO.C,R1*%
X144473859Y-81357498D02*
X144781141Y-81357498D01*
X144473859Y-82117498D02*
X144781141Y-82117498D01*
%TO.C,FB2*%
X110477500Y-75337258D02*
X110477500Y-74862742D01*
X111522500Y-75337258D02*
X111522500Y-74862742D01*
%TO.C,U4*%
X136702501Y-67465000D02*
X141322501Y-67465000D01*
X141322501Y-72935000D02*
X136702501Y-72935000D01*
X143202501Y-72720000D02*
X142872501Y-72480000D01*
X143202501Y-72240000D01*
X143202501Y-72720000D01*
G36*
X143202501Y-72720000D02*
G01*
X142872501Y-72480000D01*
X143202501Y-72240000D01*
X143202501Y-72720000D01*
G37*
%TO.C,R6*%
X133210235Y-75273861D02*
X133210235Y-75581143D01*
X133970235Y-75273861D02*
X133970235Y-75581143D01*
%TO.C,R13*%
X131936359Y-95620000D02*
X132243641Y-95620000D01*
X131936359Y-96380000D02*
X132243641Y-96380000D01*
%TO.C,FB3*%
X122462742Y-67327500D02*
X122937258Y-67327500D01*
X122462742Y-68372500D02*
X122937258Y-68372500D01*
%TO.C,FB5*%
X115737742Y-55577500D02*
X116212258Y-55577500D01*
X115737742Y-56622500D02*
X116212258Y-56622500D01*
%TO.C,J1*%
X107389999Y-57590000D02*
X107389999Y-55410000D01*
X107389999Y-63590000D02*
X107389999Y-61410000D01*
X107389999Y-69590000D02*
X107389999Y-67410000D01*
X107389999Y-75590000D02*
X107389999Y-73410000D01*
X112639999Y-52690000D02*
X110459999Y-52690000D01*
X112639999Y-78310000D02*
X110459999Y-78310000D01*
X118639999Y-52690000D02*
X116459999Y-52690000D01*
X118639999Y-78310000D02*
X116459999Y-78310000D01*
X124639999Y-52690000D02*
X122459999Y-52690000D01*
X124639999Y-78310000D02*
X122459999Y-78310000D01*
X130639999Y-52690000D02*
X128459999Y-52690000D01*
X130639999Y-78310000D02*
X128459999Y-78310000D01*
X136639999Y-52690000D02*
X134459999Y-52690000D01*
X136639999Y-78310000D02*
X134459999Y-78310000D01*
X142639999Y-52690000D02*
X140459999Y-52690000D01*
X142639999Y-78310000D02*
X140459999Y-78310000D01*
X145709999Y-57590000D02*
X145709999Y-55410000D01*
X145709999Y-63590000D02*
X145709999Y-61410000D01*
X145709999Y-69590000D02*
X145709999Y-67410000D01*
X145709999Y-75590000D02*
X145709999Y-73410000D01*
%TO.C,U6*%
X116294270Y-85413385D02*
X116344270Y-85413385D01*
X116294270Y-87233385D02*
X116294270Y-85413385D01*
X116344270Y-87233385D02*
X116294270Y-87233385D01*
X118244270Y-87233385D02*
X117464270Y-87233385D01*
X119364270Y-85413385D02*
X119414270Y-85413385D01*
X119414270Y-85413385D02*
X119414270Y-87233385D01*
X119414270Y-87233385D02*
X119364270Y-87233385D01*
X119694270Y-85113385D02*
X119364270Y-84873385D01*
X119694270Y-84633385D01*
X119694270Y-85113385D01*
G36*
X119694270Y-85113385D02*
G01*
X119364270Y-84873385D01*
X119694270Y-84633385D01*
X119694270Y-85113385D01*
G37*
%TO.C,C5*%
X125274664Y-67439999D02*
X125490336Y-67439999D01*
X125274664Y-68159999D02*
X125490336Y-68159999D01*
%TO.C,C9*%
X137190000Y-88446267D02*
X137190000Y-88153733D01*
X138210000Y-88446267D02*
X138210000Y-88153733D01*
%TO.C,C6*%
X125254664Y-68440000D02*
X125470336Y-68440000D01*
X125254664Y-69160000D02*
X125470336Y-69160000D01*
%TO.C,U3*%
X119590000Y-69190000D02*
X124210000Y-69190000D01*
X119590000Y-69390000D02*
X119590000Y-69190000D01*
X119590000Y-74410000D02*
X119590000Y-74210000D01*
X124210000Y-69190000D02*
X124210000Y-69390000D01*
X124210000Y-74210000D02*
X124210000Y-74410000D01*
X124210000Y-74410000D02*
X119590000Y-74410000D01*
X118950000Y-69390000D02*
X118610000Y-68920000D01*
X119290000Y-68920000D01*
X118950000Y-69390000D01*
G36*
X118950000Y-69390000D02*
G01*
X118610000Y-68920000D01*
X119290000Y-68920000D01*
X118950000Y-69390000D01*
G37*
%TO.C,C7*%
X110511253Y-68865000D02*
X109988749Y-68865000D01*
X110511253Y-70335000D02*
X109988749Y-70335000D01*
%TO.C,C16*%
X110907836Y-72540000D02*
X110692164Y-72540000D01*
X110907836Y-73260000D02*
X110692164Y-73260000D01*
%TO.C,C1*%
X118672165Y-56439999D02*
X118887837Y-56439999D01*
X118672165Y-57159999D02*
X118887837Y-57159999D01*
%TO.C,C12*%
X116543019Y-81825884D02*
X117065523Y-81825884D01*
X116543019Y-83295884D02*
X117065523Y-83295884D01*
%TO.C,C14*%
X142504665Y-74140000D02*
X142720337Y-74140000D01*
X142504665Y-74860000D02*
X142720337Y-74860000D01*
%TO.C,R11*%
X140610235Y-75273861D02*
X140610235Y-75581143D01*
X141370235Y-75273861D02*
X141370235Y-75581143D01*
%TO.C,R8*%
X135676902Y-75273861D02*
X135676902Y-75581143D01*
X136436902Y-75273861D02*
X136436902Y-75581143D01*
%TO.C,C2*%
X118692164Y-55440000D02*
X118907836Y-55440000D01*
X118692164Y-56160000D02*
X118907836Y-56160000D01*
%TO.C,J2*%
X108255271Y-91884383D02*
X108255271Y-92739383D01*
X108255271Y-95859383D02*
X108255271Y-96809383D01*
X108255271Y-96809383D02*
X117415271Y-96809383D01*
X117415271Y-91884383D02*
X117415271Y-92739383D01*
X117415271Y-95859383D02*
X117415271Y-96809383D01*
%TO.C,D2*%
X133527500Y-95065000D02*
X133527500Y-96535000D01*
X133527500Y-96535000D02*
X135812500Y-96535000D01*
X135812500Y-95065000D02*
X133527500Y-95065000D01*
%TO.C,C10*%
X137065000Y-91538748D02*
X137065000Y-92061252D01*
X138535000Y-91538748D02*
X138535000Y-92061252D01*
%TO.C,U5*%
X129640811Y-86377499D02*
X134260811Y-86377499D01*
X134260811Y-93147499D02*
X129640811Y-93147499D01*
X128090811Y-86832499D02*
X127760811Y-87072499D01*
X127760811Y-86592499D01*
X128090811Y-86832499D01*
G36*
X128090811Y-86832499D02*
G01*
X127760811Y-87072499D01*
X127760811Y-86592499D01*
X128090811Y-86832499D01*
G37*
%TO.C,FB4*%
X130437742Y-55277500D02*
X130912258Y-55277500D01*
X130437742Y-56322500D02*
X130912258Y-56322500D01*
%TO.C,R9*%
X138143568Y-75273861D02*
X138143568Y-75581143D01*
X138903568Y-75273861D02*
X138903568Y-75581143D01*
%TO.C,U1*%
X112990000Y-57190000D02*
X117610000Y-57190000D01*
X112990000Y-57390000D02*
X112990000Y-57190000D01*
X112990000Y-62410000D02*
X112990000Y-62210000D01*
X117610000Y-57190000D02*
X117610000Y-57390000D01*
X117610000Y-62210000D02*
X117610000Y-62410000D01*
X117610000Y-62410000D02*
X112990000Y-62410000D01*
X112350000Y-57390000D02*
X112010000Y-56920000D01*
X112690000Y-56920000D01*
X112350000Y-57390000D01*
G36*
X112350000Y-57390000D02*
G01*
X112010000Y-56920000D01*
X112690000Y-56920000D01*
X112350000Y-57390000D01*
G37*
%TO.C,U2*%
X127790000Y-56990000D02*
X132410000Y-56990000D01*
X127790000Y-57190000D02*
X127790000Y-56990000D01*
X127790000Y-62210000D02*
X127790000Y-62010000D01*
X132410000Y-56990000D02*
X132410000Y-57190000D01*
X132410000Y-62010000D02*
X132410000Y-62210000D01*
X132410000Y-62210000D02*
X127790000Y-62210000D01*
X127150000Y-57190000D02*
X126810000Y-56720000D01*
X127490000Y-56720000D01*
X127150000Y-57190000D01*
G36*
X127150000Y-57190000D02*
G01*
X126810000Y-56720000D01*
X127490000Y-56720000D01*
X127150000Y-57190000D01*
G37*
%TO.C,R7*%
X134443568Y-75273861D02*
X134443568Y-75581143D01*
X135203568Y-75273861D02*
X135203568Y-75581143D01*
%TO.C,R5*%
X136910235Y-75273861D02*
X136910235Y-75581143D01*
X137670235Y-75273861D02*
X137670235Y-75581143D01*
%TO.C,J3*%
X141015000Y-85500000D02*
X142415000Y-83520000D01*
X141015000Y-93080000D02*
X141015000Y-85500000D01*
X141015000Y-93080000D02*
X141615000Y-93680000D01*
X141795000Y-85425000D02*
X142430000Y-85425000D01*
X141795000Y-86060000D02*
X141795000Y-85425000D01*
X142415000Y-83520000D02*
X143715000Y-83520000D01*
X143715000Y-83520000D02*
X145115000Y-85500000D01*
X144515000Y-93680000D02*
X141615000Y-93680000D01*
X145115000Y-85500000D02*
X145115000Y-93080000D01*
X145115000Y-93080000D02*
X144515000Y-93680000D01*
%TO.C,C15*%
X142504665Y-73140000D02*
X142720337Y-73140000D01*
X142504665Y-73860000D02*
X142720337Y-73860000D01*
%TO.C,C11*%
X144773769Y-79427498D02*
X144481235Y-79427498D01*
X144773769Y-80447498D02*
X144481235Y-80447498D01*
%TO.C,C3*%
X133409664Y-55240000D02*
X133625336Y-55240000D01*
X133409664Y-55960000D02*
X133625336Y-55960000D01*
%TO.C,R2*%
X110625273Y-86993026D02*
X110625273Y-86685744D01*
X111385273Y-86993026D02*
X111385273Y-86685744D01*
%TO.C,R3*%
X113825272Y-86993026D02*
X113825272Y-86685744D01*
X114585272Y-86993026D02*
X114585272Y-86685744D01*
%TO.C,C8*%
X110408768Y-70990000D02*
X110116234Y-70990000D01*
X110408768Y-72010000D02*
X110116234Y-72010000D01*
%TO.C,C17*%
X126640000Y-86827836D02*
X126640000Y-86612164D01*
X127360000Y-86827836D02*
X127360000Y-86612164D01*
%TD*%
%LPC*%
D13*
%TO.C,C13*%
X107849387Y-87200001D03*
X107849387Y-85474999D03*
%TD*%
D14*
%TO.C,R4*%
X109449384Y-87509997D03*
X109449384Y-86489999D03*
%TD*%
D15*
%TO.C,R12*%
X110522497Y-82399998D03*
X109502499Y-82399998D03*
%TD*%
D16*
%TO.C,D1*%
X109824998Y-81000000D03*
X111400000Y-81000000D03*
%TD*%
D17*
%TO.C,C18*%
X127000000Y-88240000D03*
X127000000Y-89200000D03*
%TD*%
D18*
%TO.C,Y1*%
X125400000Y-88800000D03*
X125400000Y-86600000D03*
X123700000Y-86600000D03*
X123700000Y-88800000D03*
%TD*%
D19*
%TO.C,SW1*%
X126200000Y-95475000D03*
X120200000Y-95475000D03*
X126200000Y-91725000D03*
X120200000Y-91725000D03*
%TD*%
D20*
%TO.C,R14*%
X128600000Y-81887500D03*
X128600000Y-83712500D03*
%TD*%
D21*
%TO.C,R10*%
X139756902Y-74917502D03*
X139756902Y-75937502D03*
%TD*%
D22*
%TO.C,C4*%
X133037500Y-56600000D03*
X133997500Y-56600000D03*
%TD*%
D23*
%TO.C,FB1*%
X128200000Y-95825000D03*
X128200000Y-94175000D03*
%TD*%
D24*
%TO.C,R1*%
X144117501Y-81737498D03*
X145137499Y-81737498D03*
%TD*%
D23*
%TO.C,FB2*%
X111000000Y-75925000D03*
X111000000Y-74275000D03*
%TD*%
D25*
%TO.C,U4*%
X141875001Y-72475000D03*
X141875001Y-71825000D03*
X141875001Y-71175000D03*
X141875001Y-70525000D03*
X141875001Y-69875000D03*
X141875001Y-69225000D03*
X141875001Y-68575000D03*
X141875001Y-67925000D03*
X136150001Y-67925000D03*
X136150001Y-68575000D03*
X136150001Y-69225000D03*
X136150001Y-69875000D03*
X136150001Y-70525000D03*
X136150001Y-71175000D03*
X136150001Y-71825000D03*
X136150001Y-72475000D03*
%TD*%
D21*
%TO.C,R6*%
X133590235Y-74917502D03*
X133590235Y-75937502D03*
%TD*%
D24*
%TO.C,R13*%
X131580000Y-96000000D03*
X132600000Y-96000000D03*
%TD*%
D26*
%TO.C,FB3*%
X121875000Y-67850000D03*
X123525000Y-67850000D03*
%TD*%
%TO.C,FB5*%
X115150000Y-56100000D03*
X116800000Y-56100000D03*
%TD*%
D27*
%TO.C,J1*%
X145499999Y-78100000D03*
D28*
X145499999Y-76725000D03*
D29*
X145499999Y-71500000D03*
X145499999Y-65500000D03*
X145499999Y-59500000D03*
D28*
X145499999Y-54275000D03*
D27*
X145499999Y-52900000D03*
D30*
X143949999Y-78100000D03*
X143949999Y-52900000D03*
D31*
X138549999Y-78100000D03*
X138549999Y-52900000D03*
X132549999Y-78100000D03*
X132549999Y-52900000D03*
X126549999Y-78100000D03*
X126549999Y-52900000D03*
X120549999Y-78100000D03*
X120549999Y-52900000D03*
X114549999Y-78100000D03*
X114549999Y-52900000D03*
D30*
X109149999Y-78100000D03*
X109149999Y-52900000D03*
D27*
X107599999Y-78100000D03*
D28*
X107599999Y-76725000D03*
D29*
X107599999Y-71500000D03*
X107599999Y-65500000D03*
X107599999Y-59500000D03*
D28*
X107599999Y-54275000D03*
D27*
X107599999Y-52900000D03*
%TD*%
D32*
%TO.C,U6*%
X118804270Y-85185885D03*
X117854270Y-85185885D03*
X116904270Y-85185885D03*
X116904270Y-87460885D03*
X118804270Y-87460885D03*
%TD*%
D22*
%TO.C,C5*%
X124902500Y-67799999D03*
X125862500Y-67799999D03*
%TD*%
D13*
%TO.C,C9*%
X137700000Y-89162500D03*
X137700000Y-87437500D03*
%TD*%
D22*
%TO.C,C6*%
X124882500Y-68800000D03*
X125842500Y-68800000D03*
%TD*%
D33*
%TO.C,U3*%
X119037500Y-69850000D03*
X119037500Y-70500000D03*
X119037500Y-71150000D03*
X119037500Y-71800000D03*
X119037500Y-72450000D03*
X119037500Y-73100000D03*
X119037500Y-73750000D03*
X124762500Y-73750000D03*
X124762500Y-73100000D03*
X124762500Y-72450000D03*
X124762500Y-71800000D03*
X124762500Y-71150000D03*
X124762500Y-70500000D03*
X124762500Y-69850000D03*
%TD*%
D34*
%TO.C,C7*%
X111200001Y-69600000D03*
X109300001Y-69600000D03*
%TD*%
D35*
%TO.C,C16*%
X111280000Y-72900000D03*
X110320000Y-72900000D03*
%TD*%
D22*
%TO.C,C1*%
X118300001Y-56799999D03*
X119260001Y-56799999D03*
%TD*%
D36*
%TO.C,C12*%
X115854271Y-82560884D03*
X117754271Y-82560884D03*
%TD*%
D22*
%TO.C,C14*%
X142132501Y-74500000D03*
X143092501Y-74500000D03*
%TD*%
D21*
%TO.C,R11*%
X140990235Y-74917502D03*
X140990235Y-75937502D03*
%TD*%
%TO.C,R8*%
X136056902Y-74917502D03*
X136056902Y-75937502D03*
%TD*%
D22*
%TO.C,C2*%
X118320000Y-55800000D03*
X119280000Y-55800000D03*
%TD*%
D37*
%TO.C,J2*%
X109835271Y-91149383D03*
D38*
X111435271Y-94249383D03*
X114235271Y-94249383D03*
D39*
X115835271Y-91149383D03*
D40*
X109735271Y-90049383D03*
X110485271Y-90049383D03*
D41*
X111085271Y-90049383D03*
X112585271Y-90049383D03*
X113585271Y-90049383D03*
X114585271Y-90049383D03*
D40*
X115185271Y-90049383D03*
X115935271Y-90049383D03*
X115935271Y-90049383D03*
X115185271Y-90049383D03*
D41*
X114085271Y-90049383D03*
X113085271Y-90049383D03*
X112085271Y-90049383D03*
X111585271Y-90049383D03*
D40*
X110485271Y-90049383D03*
X109735271Y-90049383D03*
D42*
X108515271Y-90424383D03*
D43*
X108515271Y-94249383D03*
D42*
X117155271Y-90424383D03*
D43*
X117155271Y-94249383D03*
%TD*%
D16*
%TO.C,D2*%
X134225000Y-95800000D03*
X135800000Y-95800000D03*
%TD*%
D44*
%TO.C,C10*%
X137800000Y-90850000D03*
X137800000Y-92750000D03*
%TD*%
D33*
%TO.C,U5*%
X129088311Y-86837499D03*
X129088311Y-87487499D03*
X129088311Y-88137499D03*
X129088311Y-88787499D03*
X129088311Y-89437499D03*
X129088311Y-90087499D03*
X129088311Y-90737499D03*
X129088311Y-91387499D03*
X129088311Y-92037499D03*
X129088311Y-92687499D03*
X134813311Y-92687499D03*
X134813311Y-92037499D03*
X134813311Y-91387499D03*
X134813311Y-90737499D03*
X134813311Y-90087499D03*
X134813311Y-89437499D03*
X134813311Y-88787499D03*
X134813311Y-88137499D03*
X134813311Y-87487499D03*
X134813311Y-86837499D03*
%TD*%
D26*
%TO.C,FB4*%
X129850000Y-55800000D03*
X131500000Y-55800000D03*
%TD*%
D21*
%TO.C,R9*%
X138523568Y-74917502D03*
X138523568Y-75937502D03*
%TD*%
D33*
%TO.C,U1*%
X112437500Y-57850000D03*
X112437500Y-58500000D03*
X112437500Y-59150000D03*
X112437500Y-59800000D03*
X112437500Y-60450000D03*
X112437500Y-61100000D03*
X112437500Y-61750000D03*
X118162500Y-61750000D03*
X118162500Y-61100000D03*
X118162500Y-60450000D03*
X118162500Y-59800000D03*
X118162500Y-59150000D03*
X118162500Y-58500000D03*
X118162500Y-57850000D03*
%TD*%
%TO.C,U2*%
X127237500Y-57650000D03*
X127237500Y-58300000D03*
X127237500Y-58950000D03*
X127237500Y-59600000D03*
X127237500Y-60250000D03*
X127237500Y-60900000D03*
X127237500Y-61550000D03*
X132962500Y-61550000D03*
X132962500Y-60900000D03*
X132962500Y-60250000D03*
X132962500Y-59600000D03*
X132962500Y-58950000D03*
X132962500Y-58300000D03*
X132962500Y-57650000D03*
%TD*%
D21*
%TO.C,R7*%
X134823568Y-74917502D03*
X134823568Y-75937502D03*
%TD*%
%TO.C,R5*%
X137290235Y-74917502D03*
X137290235Y-75937502D03*
%TD*%
D45*
%TO.C,J3*%
X143065000Y-84790000D03*
X144081000Y-92410000D03*
X142049000Y-92410000D03*
D46*
X142430000Y-86060000D03*
X142430000Y-87330000D03*
X142430000Y-88600000D03*
X142430000Y-89870000D03*
X142430000Y-91140000D03*
X143700000Y-91140000D03*
X143700000Y-89870000D03*
X143700000Y-88600000D03*
X143700000Y-87330000D03*
X143700000Y-86060000D03*
%TD*%
D22*
%TO.C,C15*%
X142132501Y-73500000D03*
X143092501Y-73500000D03*
%TD*%
D47*
%TO.C,C11*%
X145490003Y-79937498D03*
X143765001Y-79937498D03*
%TD*%
D22*
%TO.C,C3*%
X133037500Y-55600000D03*
X133997500Y-55600000D03*
%TD*%
D14*
%TO.C,R2*%
X111005273Y-87349385D03*
X111005273Y-86329385D03*
%TD*%
%TO.C,R3*%
X114205272Y-87349385D03*
X114205272Y-86329385D03*
%TD*%
D47*
%TO.C,C8*%
X111125001Y-71500000D03*
X109400001Y-71500000D03*
%TD*%
D48*
%TO.C,C17*%
X127000000Y-87200000D03*
X127000000Y-86240000D03*
%TD*%
%LPD*%
M02*
