M48
; DRILL file {KiCad 9.0.7-9.0.7~ubuntu24.04.1} date 2026-08-15T18:29:22+0200
; FORMAT={-:-/ absolute / metric / decimal}
; #@! TF.CreationDate,2026-08-15T18:29:22+02:00
; #@! TF.GenerationSoftware,Kicad,Pcbnew,9.0.7-9.0.7~ubuntu24.04.1
; #@! TF.FileFunction,Plated,1,4,PTH
FMAT,2
METRIC
; #@! TA.AperFunction,Plated,PTH,ViaDrill
T1C0.300
; #@! TA.AperFunction,Plated,PTH,ComponentDrill
T2C0.600
; #@! TA.AperFunction,Plated,PTH,ComponentDrill
T3C0.650
%
G90
G05
T1
X128.4Y-40.4
X128.4Y-121.6
X129.6Y-65.8
X130.25Y-68.75
X130.6Y-72.2
X131.5Y-67.75
X132.0Y-86.4
X132.75Y-68.75
X133.4Y-65.8
X133.8Y-101.2
X134.0Y-63.4
X134.0Y-67.5
X134.2Y-96.0
X134.8Y-73.6
X135.0Y-80.6
X135.2Y-71.4
X135.25Y-68.5
X135.75Y-81.5
X136.2Y-109.0
X136.75Y-82.75
X137.4Y-92.99
X137.4Y-98.4
X137.5Y-56.5
X137.5Y-84.0
X137.6Y-72.6
X138.0Y-80.2
X138.0Y-92.4
X138.0Y-94.4
X138.4Y-69.2
X138.4Y-90.6
X138.5Y-85.5
X138.6Y-59.8
X138.6Y-72.2
X138.6Y-74.0
X138.899Y-92.6
X139.25Y-80.25
X139.6Y-75.8
X139.8Y-68.2
X139.8Y-110.8
X139.832Y-77.968
X140.362Y-82.888
X140.6Y-78.2
X141.0Y-59.8
X141.0Y-69.275
X141.0Y-72.2
X141.0Y-85.5
X141.25Y-81.75
X141.5Y-100.25
X141.6Y-108.4
X142.2Y-64.2
X142.2Y-68.2
X142.75Y-101.0
X143.2Y-63.0
X143.2Y-86.0
X143.4Y-70.275
X143.4Y-88.0
X143.599Y-93.2
X143.6Y-72.225
X144.0Y-81.75
X144.0Y-100.0
X144.2Y-78.2
X144.4Y-57.6
X144.4Y-62.4
X144.5Y-76.75
X144.8Y-69.2
X144.8Y-89.2
X144.8Y-104.8
X145.2Y-82.2
X145.4Y-79.0
X145.75Y-100.0
X145.8Y-58.5
X145.8Y-61.4
X146.0Y-65.0
X146.0Y-68.0
X146.0Y-70.0
X146.2Y-90.8
X146.2Y-107.8
X146.4Y-82.2
X146.5Y-76.75
X146.75Y-101.0
X147.0Y-110.8
X147.2Y-64.0
X147.2Y-70.6
X147.8Y-49.55
X148.0Y-79.35
X148.0Y-86.8
X148.0Y-100.25
X148.4Y-90.8
X148.588Y-71.388
X148.6Y-65.0
X148.8Y-95.8
X149.0Y-50.55
X149.0Y-82.5
X149.0Y-85.0
X149.2Y-78.4
X149.4Y-80.4
X149.5Y-69.4
X149.75Y-100.0
X150.4Y-49.55
X150.75Y-101.0
X150.8Y-40.6
X151.0Y-93.0
X151.125Y-86.2
X151.2Y-88.6
X151.4Y-74.0
X151.4Y-76.0
X151.6Y-90.0
X151.75Y-100.0
X151.8Y-50.75
X151.8Y-71.0
X152.2Y-57.2
X152.2Y-59.6
X152.4Y-80.0
X152.4Y-82.2
X153.0Y-49.75
X153.0Y-58.6
X153.8Y-79.2
X154.075Y-83.6
X154.075Y-86.2
X154.075Y-88.725
X154.2Y-71.2
X154.2Y-74.0
X154.2Y-110.8
X154.4Y-42.6
X154.4Y-68.2
X154.6Y-75.8
X154.8Y-82.2
X155.2Y-43.8
X155.4Y-41.4
X155.4Y-78.6
X156.4Y-77.4
X156.4Y-81.8
X156.6Y-66.2
X156.6Y-69.0
X157.383Y-70.906
X157.4Y-75.8
X157.4Y-85.0
X157.4Y-87.486
X157.4Y-89.971
X157.4Y-92.457
X157.4Y-94.943
X157.4Y-97.429
X157.4Y-99.914
X157.4Y-102.4
X157.55Y-48.8
X157.6Y-80.8
X158.6Y-50.25
X158.6Y-72.6
X158.8Y-84.2
X158.8Y-87.0
X158.8Y-89.4
X158.8Y-91.8
X158.8Y-94.2
X158.8Y-96.6
X158.8Y-99.0
X159.0Y-63.8
X159.0Y-66.6
X159.2Y-40.6
X159.2Y-68.8
X159.2Y-80.0
X159.6Y-102.4
X159.6Y-121.6
X159.65Y-48.8
X159.987Y-47.938
X160.4Y-62.4
X160.4Y-83.4
X160.4Y-85.829
X160.4Y-88.257
X160.4Y-90.686
X160.4Y-93.114
X160.4Y-95.543
X160.4Y-97.971
X160.4Y-100.4
X160.6Y-105.6
X161.8Y-63.8
X161.8Y-82.6
X161.8Y-85.071
X161.8Y-87.543
X161.8Y-90.014
X161.8Y-92.486
X161.8Y-94.957
X161.8Y-97.429
X162.0Y-47.938
X162.0Y-104.4
X162.2Y-68.8
X162.6Y-102.6
X163.0Y-121.4
X163.2Y-97.8
X163.4Y-66.2
X163.4Y-100.4
X163.6Y-82.0
X164.2Y-49.65
X164.2Y-97.2
X164.8Y-63.117
X165.4Y-50.25
X166.0Y-100.6
X166.4Y-40.6
X166.55Y-46.9
X166.6Y-49.25
X166.6Y-99.0
X166.8Y-66.0
X167.0Y-58.4
X167.0Y-60.6
X167.2Y-101.6
X167.2Y-103.4
X168.4Y-83.3
X168.4Y-90.25
X168.4Y-96.25
X168.4Y-108.25
X168.4Y-114.25
X168.4Y-121.2
X168.4Y-40.85
X168.4Y-47.8
X168.4Y-53.8
X168.4Y-65.8
X168.4Y-71.8
X168.4Y-78.75
X168.4Y-84.85
X168.4Y-102.25
X168.4Y-119.65
X168.4Y-59.8
X168.4Y-77.2
X168.5Y-43.0
X168.5Y-46.5
X168.5Y-49.0
X168.5Y-52.5
X168.5Y-55.0
X168.5Y-58.5
X168.5Y-61.0
X168.5Y-64.5
X168.5Y-67.0
X168.5Y-70.5
X168.5Y-73.0
X168.5Y-89.0
X168.5Y-91.5
X168.5Y-95.0
X168.5Y-97.5
X168.5Y-101.0
X168.5Y-103.5
X168.5Y-107.0
X168.5Y-109.5
X168.5Y-113.0
X168.5Y-115.5
X169.0Y-56.2
X169.4Y-93.0
X169.6Y-64.6
X169.6Y-68.8
X169.6Y-95.2
X169.775Y-83.3
X169.775Y-121.2
X169.775Y-78.75
X169.8Y-102.8
X170.0Y-41.0
X170.0Y-73.2
X170.0Y-89.6
X170.2Y-96.4
X170.822Y-45.583
X171.0Y-48.961
X171.0Y-52.961
X171.0Y-66.8
X171.0Y-92.4
X171.0Y-94.0
X171.2Y-50.761
X171.35Y-69.95
X171.4Y-56.2
X171.4Y-95.6
X171.6Y-46.961
X171.6Y-64.4
X171.6Y-74.2
X171.931Y-115.49
X172.0Y-92.75
X172.0Y-111.5
X172.2Y-88.2
X172.2Y-103.0
X172.25Y-52.811
X172.3Y-45.633
X172.35Y-49.261
X172.4Y-68.4
X172.4Y-93.8
X172.6Y-96.4
X172.65Y-110.9
X172.75Y-98.25
X172.8Y-95.6
X173.0Y-87.2
X173.35Y-49.811
X173.4Y-69.4
X173.4Y-71.8
X173.425Y-110.575
X173.5Y-41.0
X173.5Y-78.5
X173.5Y-83.5
X173.5Y-97.75
X173.5Y-121.0
X173.6Y-73.55
X173.8Y-66.8
X174.0Y-54.6
X174.0Y-75.75
X174.0Y-109.4
X174.2Y-74.2
X174.2Y-75.1
X174.2Y-93.6
X174.4Y-47.161
X174.4Y-112.8
X174.4Y-116.2
X174.5Y-70.75
X174.5Y-97.75
X174.8Y-50.561
X174.8Y-68.4
X175.0Y-83.3
X175.0Y-99.4
X175.0Y-108.8
X175.0Y-121.2
X175.0Y-40.85
X175.0Y-78.75
X175.15Y-64.05
X175.25Y-70.0
X175.25Y-98.25
X175.4Y-46.361
X175.4Y-56.0
X175.4Y-95.6
X175.5Y-106.45
X175.6Y-74.0
X175.6Y-75.8
X175.6Y-93.2
X175.6Y-94.2
X175.6Y-116.0
X175.8Y-53.8
X175.8Y-64.6
X175.8Y-66.8
X175.8Y-85.2
X175.8Y-114.8
X175.9Y-47.04
X175.9Y-50.661
X175.95Y-43.361
X176.2Y-45.161
X176.2Y-48.761
X176.5Y-41.0
X176.5Y-78.5
X176.5Y-83.5
X176.5Y-121.0
X176.55Y-50.011
X176.572Y-46.383
X176.6Y-42.711
X176.6Y-56.0
X176.6Y-108.2
X176.8Y-52.6
X177.0Y-69.0
X177.0Y-95.2
X177.2Y-64.8
X177.2Y-66.6
X177.2Y-72.0
X177.2Y-109.6
X177.4Y-73.55
X177.5Y-46.311
X177.5Y-50.061
X177.5Y-98.25
X177.5Y-101.0
X177.5Y-104.25
X177.5Y-106.5
X177.6Y-42.711
X177.6Y-61.0
X177.75Y-89.75
X177.8Y-45.161
X177.8Y-55.0
X177.94Y-75.81
X178.0Y-48.761
X178.0Y-96.4
X178.05Y-74.2
X178.05Y-75.15
X178.108Y-46.649
X178.108Y-50.305
X178.2Y-107.4
X178.25Y-43.361
X178.25Y-88.25
X178.25Y-89.0
X178.305Y-70.75
X178.4Y-110.2
X178.5Y-61.75
X178.694Y-64.069
X178.75Y-70.0
X178.8Y-60.8
X178.8Y-68.4
X179.2Y-55.6
X179.2Y-74.0
X179.2Y-94.0
X179.2Y-111.2
X179.4Y-66.2
X179.4Y-75.6
X179.4Y-102.4
X179.425Y-112.575
X179.5Y-41.0
X179.5Y-78.5
X179.5Y-83.5
X179.5Y-121.0
X179.6Y-95.8
X179.6Y-98.2
X179.6Y-116.4
X179.75Y-61.75
X179.75Y-64.0
X179.8Y-53.0
X179.9Y-113.65
X180.0Y-104.25
X180.2Y-112.0
X180.4Y-54.4
X180.5Y-63.0
X180.5Y-106.5
X180.6Y-108.6
X180.75Y-105.25
X181.0Y-45.6
X181.0Y-64.8
X181.0Y-83.3
X181.0Y-92.2
X181.0Y-101.0
X181.0Y-121.2
X181.0Y-40.85
X181.0Y-78.75
X181.2Y-57.0
X181.2Y-68.8
X181.2Y-94.0
X181.2Y-110.6
X181.2Y-112.6
X181.25Y-73.5
X181.4Y-114.6
X181.6Y-51.8
X181.6Y-54.0
X181.75Y-74.25
X181.75Y-75.25
X181.75Y-94.75
X181.8Y-44.6
X181.8Y-67.2
X181.8Y-97.8
X182.0Y-71.4
X182.0Y-96.2
X182.4Y-107.0
X182.5Y-41.0
X182.5Y-78.5
X182.5Y-83.5
X182.5Y-121.0
X182.8Y-112.8
X183.0Y-57.4
X183.0Y-108.6
X183.2Y-50.0
X183.2Y-53.0
X183.2Y-55.4
X183.4Y-67.6
X183.4Y-70.0
X183.4Y-72.6
X183.6Y-65.2
X184.0Y-58.8
X184.0Y-97.8
X184.2Y-74.4
X184.2Y-99.4
X184.2Y-104.8
X184.35Y-50.0
X184.399Y-57.299
X184.4Y-53.65
X184.49Y-72.35
X184.5Y-65.019
X184.5Y-68.75
X184.75Y-111.5
X185.0Y-65.645
X185.1Y-50.537
X185.1Y-54.22
X185.15Y-42.6
X185.25Y-69.201
X185.25Y-112.25
X185.4Y-92.8
X185.5Y-41.0
X185.5Y-78.5
X185.5Y-83.5
X185.5Y-121.0
X185.6Y-91.4
X185.75Y-113.0
X186.0Y-103.2
X186.0Y-105.4
X186.4Y-51.6
X186.4Y-70.4
X186.6Y-55.2
X186.6Y-66.6
X186.6Y-94.4
X186.616Y-60.993
X186.8Y-91.2
X187.0Y-83.3
X187.0Y-105.25
X187.0Y-121.2
X187.0Y-40.85
X187.0Y-78.75
X187.2Y-69.6
X187.2Y-104.4
X187.2Y-110.4
X187.4Y-50.8
X187.4Y-54.4
X187.4Y-58.6
X187.4Y-65.8
X187.75Y-96.75
X187.851Y-42.795
X187.926Y-105.074
X188.05Y-55.1
X188.088Y-70.088
X188.099Y-62.849
X188.1Y-47.75
X188.1Y-51.5
X188.1Y-66.55
X188.4Y-49.6
X188.4Y-53.2
X188.4Y-64.6
X188.4Y-68.4
X188.5Y-41.0
X188.5Y-78.5
X188.5Y-83.5
X188.5Y-121.0
X188.7Y-47.1
X188.7Y-50.8
X188.7Y-54.5
X188.728Y-65.9
X188.75Y-62.25
X188.75Y-69.5
X188.75Y-96.5
X188.8Y-103.8
X189.0Y-72.4
X189.0Y-109.2
X189.25Y-96.0
X189.5Y-69.5
X189.514Y-113.5
X189.6Y-50.75
X189.6Y-54.5
X189.6Y-65.95
X189.744Y-62.25
X189.75Y-47.1
X190.0Y-49.6
X190.2Y-53.2
X190.2Y-64.6
X190.2Y-68.4
X190.2Y-106.4
X190.2Y-109.4
X190.245Y-51.0
X190.245Y-54.693
X190.264Y-66.221
X190.292Y-69.749
X190.4Y-76.4
X190.4Y-110.6
X190.8Y-92.0
X191.4Y-46.0
X192.225Y-83.3
X192.225Y-121.2
X192.225Y-40.85
X192.225Y-78.75
X193.5Y-46.5
X193.5Y-49.0
X193.5Y-52.5
X193.5Y-55.0
X193.5Y-58.5
X193.5Y-61.0
X193.5Y-64.5
X193.5Y-67.0
X193.5Y-70.5
X193.5Y-73.0
X193.5Y-89.0
X193.5Y-91.5
X193.5Y-95.0
X193.5Y-97.5
X193.5Y-101.0
X193.5Y-103.5
X193.5Y-107.0
X193.5Y-109.5
X193.5Y-113.0
X193.5Y-115.5
X193.6Y-84.85
X193.6Y-102.25
X193.6Y-119.65
X193.6Y-42.4
X193.6Y-59.8
X193.6Y-77.2
X193.6Y-83.3
X193.6Y-90.25
X193.6Y-96.25
X193.6Y-108.25
X193.6Y-114.25
X193.6Y-121.2
X193.6Y-40.85
X193.6Y-47.8
X193.6Y-53.8
X193.6Y-65.8
X193.6Y-71.8
X193.6Y-78.75
T3
X132.5Y-74.51
X132.5Y-80.29
T2
G00X129.15Y-73.08
M15
G01X128.55Y-73.08
M16
G05
G00X129.15Y-81.72
M15
G01X128.55Y-81.72
M16
G05
G00X133.58Y-73.08
M15
G01X132.48Y-73.08
M16
G05
G00X133.58Y-81.72
M15
G01X132.48Y-81.72
M16
G05
M30
