%TF.GenerationSoftware,KiCad,Pcbnew,9.0.7-9.0.7~ubuntu24.04.1*%
%TF.CreationDate,2026-08-15T18:29:19+02:00*%
%TF.ProjectId,RO_hardware,524f5f68-6172-4647-9761-72652e6b6963,rev?*%
%TF.SameCoordinates,Original*%
%TF.FileFunction,Paste,Top*%
%TF.FilePolarity,Positive*%
%FSLAX46Y46*%
G04 Gerber Fmt 4.6, Leading zero omitted, Abs format (unit mm)*
G04 Created by KiCad (PCBNEW 9.0.7-9.0.7~ubuntu24.04.1) date 2026-08-15 18:29:19*
%MOMM*%
%LPD*%
G01*
G04 APERTURE LIST*
G04 Aperture macros list*
%AMRoundRect*
0 Rectangle with rounded corners*
0 $1 Rounding radius*
0 $2 $3 $4 $5 $6 $7 $8 $9 X,Y pos of 4 corners*
0 Add a 4 corners polygon primitive as box body*
4,1,4,$2,$3,$4,$5,$6,$7,$8,$9,$2,$3,0*
0 Add four circle primitives for the rounded corners*
1,1,$1+$1,$2,$3*
1,1,$1+$1,$4,$5*
1,1,$1+$1,$6,$7*
1,1,$1+$1,$8,$9*
0 Add four rect primitives between the rounded corners*
20,1,$1+$1,$2,$3,$4,$5,0*
20,1,$1+$1,$4,$5,$6,$7,0*
20,1,$1+$1,$6,$7,$8,$9,0*
20,1,$1+$1,$8,$9,$2,$3,0*%
G04 Aperture macros list end*
%ADD10RoundRect,0.243750X0.456250X-0.243750X0.456250X0.243750X-0.456250X0.243750X-0.456250X-0.243750X0*%
%ADD11R,1.450000X0.600000*%
%ADD12R,1.450000X0.300000*%
%ADD13RoundRect,0.135000X0.135000X0.185000X-0.135000X0.185000X-0.135000X-0.185000X0.135000X-0.185000X0*%
%ADD14RoundRect,0.150000X-0.512500X-0.150000X0.512500X-0.150000X0.512500X0.150000X-0.512500X0.150000X0*%
%ADD15RoundRect,0.200000X0.200000X0.275000X-0.200000X0.275000X-0.200000X-0.275000X0.200000X-0.275000X0*%
%ADD16RoundRect,0.250000X-0.250000X-0.475000X0.250000X-0.475000X0.250000X0.475000X-0.250000X0.475000X0*%
%ADD17RoundRect,0.250000X0.512652X0.159099X0.159099X0.512652X-0.512652X-0.159099X-0.159099X-0.512652X0*%
%ADD18RoundRect,0.250000X0.262500X0.450000X-0.262500X0.450000X-0.262500X-0.450000X0.262500X-0.450000X0*%
%ADD19RoundRect,0.250000X0.325000X0.650000X-0.325000X0.650000X-0.325000X-0.650000X0.325000X-0.650000X0*%
%ADD20RoundRect,0.135000X0.185000X-0.135000X0.185000X0.135000X-0.185000X0.135000X-0.185000X-0.135000X0*%
%ADD21RoundRect,0.100000X-0.562500X-0.100000X0.562500X-0.100000X0.562500X0.100000X-0.562500X0.100000X0*%
%ADD22RoundRect,0.140000X0.170000X-0.140000X0.170000X0.140000X-0.170000X0.140000X-0.170000X-0.140000X0*%
%ADD23RoundRect,0.100000X-0.100000X0.562500X-0.100000X-0.562500X0.100000X-0.562500X0.100000X0.562500X0*%
%ADD24RoundRect,0.250000X-0.650000X0.325000X-0.650000X-0.325000X0.650000X-0.325000X0.650000X0.325000X0*%
%ADD25RoundRect,0.250000X0.475000X-0.250000X0.475000X0.250000X-0.475000X0.250000X-0.475000X-0.250000X0*%
%ADD26RoundRect,0.250000X0.450000X-0.262500X0.450000X0.262500X-0.450000X0.262500X-0.450000X-0.262500X0*%
%ADD27RoundRect,0.100000X0.433103X0.574524X-0.574524X-0.433103X-0.433103X-0.574524X0.574524X0.433103X0*%
%ADD28RoundRect,0.200000X0.275000X-0.200000X0.275000X0.200000X-0.275000X0.200000X-0.275000X-0.200000X0*%
%ADD29RoundRect,0.100000X-0.574524X0.433103X0.433103X-0.574524X0.574524X-0.433103X-0.433103X0.574524X0*%
%ADD30RoundRect,0.135000X-0.035355X0.226274X-0.226274X0.035355X0.035355X-0.226274X0.226274X-0.035355X0*%
%ADD31RoundRect,0.140000X-0.140000X-0.170000X0.140000X-0.170000X0.140000X0.170000X-0.140000X0.170000X0*%
%ADD32RoundRect,0.200000X-0.335876X-0.053033X-0.053033X-0.335876X0.335876X0.053033X0.053033X0.335876X0*%
%ADD33R,1.000000X1.000000*%
%ADD34R,1.750000X1.000000*%
%ADD35R,3.300000X1.000000*%
%ADD36R,1.000000X2.100000*%
%ADD37R,1.000000X3.300000*%
%ADD38RoundRect,0.135000X-0.135000X-0.185000X0.135000X-0.185000X0.135000X0.185000X-0.135000X0.185000X0*%
%ADD39RoundRect,0.100000X-0.712500X-0.100000X0.712500X-0.100000X0.712500X0.100000X-0.712500X0.100000X0*%
%ADD40RoundRect,0.100000X0.100000X-0.637500X0.100000X0.637500X-0.100000X0.637500X-0.100000X-0.637500X0*%
%ADD41RoundRect,0.200000X-0.200000X-0.275000X0.200000X-0.275000X0.200000X0.275000X-0.200000X0.275000X0*%
%ADD42RoundRect,0.250000X-0.325000X-0.650000X0.325000X-0.650000X0.325000X0.650000X-0.325000X0.650000X0*%
%ADD43RoundRect,0.075000X0.662500X0.075000X-0.662500X0.075000X-0.662500X-0.075000X0.662500X-0.075000X0*%
%ADD44RoundRect,0.075000X0.075000X0.662500X-0.075000X0.662500X-0.075000X-0.662500X0.075000X-0.662500X0*%
%ADD45RoundRect,0.250000X0.250000X0.475000X-0.250000X0.475000X-0.250000X-0.475000X0.250000X-0.475000X0*%
%ADD46RoundRect,0.135000X-0.226274X-0.035355X-0.035355X-0.226274X0.226274X0.035355X0.035355X0.226274X0*%
%ADD47RoundRect,0.200000X0.335876X0.053033X0.053033X0.335876X-0.335876X-0.053033X-0.053033X-0.335876X0*%
%ADD48RoundRect,0.250000X-0.375000X-0.850000X0.375000X-0.850000X0.375000X0.850000X-0.375000X0.850000X0*%
%ADD49R,0.750000X1.000000*%
%ADD50RoundRect,0.140000X-0.021213X0.219203X-0.219203X0.021213X0.021213X-0.219203X0.219203X-0.021213X0*%
%ADD51RoundRect,0.140000X-0.219203X-0.021213X-0.021213X-0.219203X0.219203X0.021213X0.021213X0.219203X0*%
%ADD52RoundRect,0.250000X0.650000X-0.325000X0.650000X0.325000X-0.650000X0.325000X-0.650000X-0.325000X0*%
%ADD53RoundRect,0.140000X0.219203X0.021213X0.021213X0.219203X-0.219203X-0.021213X-0.021213X-0.219203X0*%
%ADD54RoundRect,0.243750X0.243750X0.456250X-0.243750X0.456250X-0.243750X-0.456250X0.243750X-0.456250X0*%
%ADD55RoundRect,0.200000X0.053033X-0.335876X0.335876X-0.053033X-0.053033X0.335876X-0.335876X0.053033X0*%
%ADD56RoundRect,0.250000X0.159099X-0.512652X0.512652X-0.159099X-0.159099X0.512652X-0.512652X0.159099X0*%
%ADD57RoundRect,0.135000X0.035355X-0.226274X0.226274X-0.035355X-0.035355X0.226274X-0.226274X0.035355X0*%
%ADD58RoundRect,0.250000X-0.512652X-0.159099X-0.159099X-0.512652X0.512652X0.159099X0.159099X0.512652X0*%
%ADD59RoundRect,0.100000X0.574524X-0.433103X-0.433103X0.574524X-0.574524X0.433103X0.433103X-0.574524X0*%
%ADD60RoundRect,0.250000X-0.262500X-0.450000X0.262500X-0.450000X0.262500X0.450000X-0.262500X0.450000X0*%
G04 APERTURE END LIST*
D10*
%TO.C,D3*%
X146800000Y-96537500D03*
X146800000Y-94662500D03*
%TD*%
D11*
%TO.C,USB1*%
X133950000Y-74170000D03*
X133950000Y-74980000D03*
D12*
X133950000Y-76150000D03*
X133950000Y-77150000D03*
X133950000Y-77650000D03*
X133950000Y-78650000D03*
D11*
X133950000Y-80630000D03*
X133950000Y-79830000D03*
D12*
X133950000Y-79150000D03*
X133950000Y-78150000D03*
X133950000Y-76650000D03*
X133950000Y-75650000D03*
%TD*%
D13*
%TO.C,R21*%
X174400002Y-103200000D03*
X173380002Y-103200000D03*
%TD*%
D14*
%TO.C,U1*%
X160955000Y-46987501D03*
X160955000Y-47937501D03*
X160955000Y-48887501D03*
X163230000Y-48887501D03*
X163230000Y-46987501D03*
%TD*%
D15*
%TO.C,FB4*%
X189025000Y-61000000D03*
X187375000Y-61000000D03*
%TD*%
D16*
%TO.C,C44*%
X179050000Y-44600000D03*
X180950000Y-44600000D03*
%TD*%
D17*
%TO.C,C60*%
X187543502Y-93343502D03*
X186200000Y-92000000D03*
%TD*%
D18*
%TO.C,R33*%
X146712500Y-46749999D03*
X144887500Y-46749999D03*
%TD*%
D19*
%TO.C,C48*%
X141475000Y-84000000D03*
X138525000Y-84000000D03*
%TD*%
D20*
%TO.C,R8*%
X182359001Y-50885000D03*
X182359001Y-49865000D03*
%TD*%
D21*
%TO.C,U14*%
X185408501Y-48709000D03*
X185408501Y-49359000D03*
X185408501Y-50009000D03*
X187183501Y-50009000D03*
X187183501Y-48709000D03*
%TD*%
D22*
%TO.C,C19*%
X188728001Y-67492000D03*
X188728001Y-66532000D03*
%TD*%
D23*
%TO.C,U6*%
X176450000Y-70966817D03*
X175800000Y-70966817D03*
X175150000Y-70966817D03*
X175150000Y-72741817D03*
X176450000Y-72741817D03*
%TD*%
D24*
%TO.C,C5*%
X144500000Y-58500000D03*
X144500000Y-61450000D03*
%TD*%
D14*
%TO.C,U2*%
X139928000Y-58892999D03*
X139928000Y-59842999D03*
X139928000Y-60792999D03*
X142203000Y-60792999D03*
X142203000Y-58892999D03*
%TD*%
D25*
%TO.C,C8*%
X183000000Y-76150000D03*
X183000000Y-74250000D03*
%TD*%
D26*
%TO.C,R22*%
X142850001Y-100162500D03*
X142850001Y-98337500D03*
%TD*%
D27*
%TO.C,U19*%
X188631720Y-107218280D03*
X188172101Y-106758661D03*
X187712481Y-106299041D03*
X187252862Y-105839422D03*
X184265336Y-108826948D03*
X184724955Y-109286567D03*
X185184575Y-109746187D03*
X185644194Y-110205806D03*
%TD*%
D21*
%TO.C,U15*%
X185408501Y-52354002D03*
X185408501Y-53004002D03*
X185408501Y-53654002D03*
X187183501Y-53654002D03*
X187183501Y-52354002D03*
%TD*%
D28*
%TO.C,R34*%
X160000000Y-44250000D03*
X160000000Y-42600000D03*
%TD*%
D25*
%TO.C,C1*%
X134052000Y-70325000D03*
X134052000Y-68425000D03*
%TD*%
D21*
%TO.C,U9*%
X185456233Y-67413731D03*
X185456233Y-68063731D03*
X185456233Y-68713731D03*
X187231233Y-68713731D03*
X187231233Y-67413731D03*
%TD*%
D29*
%TO.C,U20*%
X183618675Y-93084375D03*
X183159056Y-93543994D03*
X182699436Y-94003614D03*
X182239817Y-94463233D03*
X185227343Y-97450759D03*
X185686962Y-96991140D03*
X186146582Y-96531520D03*
X186606201Y-96071901D03*
%TD*%
D30*
%TO.C,R10*%
X173986625Y-62533376D03*
X173265377Y-63254624D03*
%TD*%
D22*
%TO.C,C31*%
X188709002Y-52379000D03*
X188709002Y-51419000D03*
%TD*%
D31*
%TO.C,C15*%
X172653001Y-74204317D03*
X173613001Y-74204317D03*
%TD*%
D32*
%TO.C,FB7*%
X170216637Y-113816637D03*
X171383363Y-114983363D03*
%TD*%
D28*
%TO.C,R28*%
X192000000Y-45025000D03*
X192000000Y-43375000D03*
%TD*%
D15*
%TO.C,FB6*%
X190225000Y-42800000D03*
X188575000Y-42800000D03*
%TD*%
D33*
%TO.C,J2*%
X193600000Y-83300000D03*
D34*
X192225000Y-83300000D03*
D35*
X187000000Y-83300000D03*
X181000000Y-83300000D03*
X175000000Y-83300000D03*
D34*
X169775000Y-83300000D03*
D33*
X168400000Y-83300000D03*
D36*
X193600000Y-84850000D03*
X168400000Y-84850000D03*
D37*
X193600000Y-90250000D03*
X168400000Y-90250000D03*
X193600000Y-96250000D03*
X168400000Y-96250000D03*
X193600000Y-102250000D03*
X168400000Y-102250000D03*
X193600000Y-108250000D03*
X168400000Y-108250000D03*
X193600000Y-114250000D03*
X168400000Y-114250000D03*
D36*
X193600000Y-119650000D03*
X168400000Y-119650000D03*
D33*
X193600000Y-121200000D03*
D34*
X192225000Y-121200000D03*
D35*
X187000000Y-121200000D03*
X181000000Y-121200000D03*
X175000000Y-121200000D03*
D34*
X169775000Y-121200000D03*
D33*
X168400000Y-121200000D03*
%TD*%
D38*
%TO.C,R2*%
X176686999Y-67647318D03*
X177706999Y-67647318D03*
%TD*%
D33*
%TO.C,J3*%
X193600001Y-40850000D03*
D34*
X192225001Y-40850000D03*
D35*
X187000001Y-40850000D03*
X181000001Y-40850000D03*
X175000001Y-40850000D03*
D34*
X169775001Y-40850000D03*
D33*
X168400001Y-40850000D03*
D36*
X193600001Y-42400000D03*
X168400001Y-42400000D03*
D37*
X193600001Y-47800000D03*
X168400001Y-47800000D03*
X193600001Y-53800000D03*
X168400001Y-53800000D03*
X193600001Y-59800000D03*
X168400001Y-59800000D03*
X193600001Y-65800000D03*
X168400001Y-65800000D03*
X193600001Y-71800000D03*
X168400001Y-71800000D03*
D36*
X193600001Y-77200000D03*
X168400001Y-77200000D03*
D33*
X193600001Y-78750000D03*
D34*
X192225001Y-78750000D03*
D35*
X187000001Y-78750000D03*
X181000001Y-78750000D03*
X175000001Y-78750000D03*
D34*
X169775001Y-78750000D03*
D33*
X168400001Y-78750000D03*
%TD*%
D22*
%TO.C,C6*%
X175800000Y-55600000D03*
X175800000Y-54640000D03*
%TD*%
D39*
%TO.C,U18*%
X172110502Y-90100000D03*
X172110502Y-90750000D03*
X172110502Y-91400000D03*
X172110502Y-92050000D03*
X176335502Y-92050000D03*
X176335502Y-91400000D03*
X176335502Y-90750000D03*
X176335502Y-90100000D03*
%TD*%
D40*
%TO.C,U3*%
X175251002Y-62948000D03*
X175901002Y-62948000D03*
X176551002Y-62948000D03*
X177201002Y-62948000D03*
X177851002Y-62948000D03*
X178501002Y-62948000D03*
X179151002Y-62948000D03*
X179801002Y-62948000D03*
X179801002Y-57223000D03*
X179151002Y-57223000D03*
X178501002Y-57223000D03*
X177851002Y-57223000D03*
X177201002Y-57223000D03*
X176551002Y-57223000D03*
X175901002Y-57223000D03*
X175251002Y-57223000D03*
%TD*%
D24*
%TO.C,C61*%
X149000000Y-46674999D03*
X149000000Y-49624999D03*
%TD*%
D41*
%TO.C,FB11*%
X164975000Y-97200000D03*
X166625000Y-97200000D03*
%TD*%
D22*
%TO.C,C33*%
X188709002Y-56062001D03*
X188709002Y-55102001D03*
%TD*%
D41*
%TO.C,FB3*%
X187975000Y-76400000D03*
X189625000Y-76400000D03*
%TD*%
D42*
%TO.C,C3*%
X139342000Y-62956999D03*
X142292000Y-62956999D03*
%TD*%
D43*
%TO.C,U21*%
X150962500Y-82350000D03*
X150962500Y-81850000D03*
X150962500Y-81350000D03*
X150962500Y-80850000D03*
X150962500Y-80350000D03*
X150962500Y-79850000D03*
X150962500Y-79350000D03*
X150962500Y-78850000D03*
X150962500Y-78350000D03*
X150962500Y-77850000D03*
X150962500Y-77350000D03*
X150962500Y-76850000D03*
D44*
X149550000Y-75437500D03*
X149050000Y-75437500D03*
X148550000Y-75437500D03*
X148050000Y-75437500D03*
X147550000Y-75437500D03*
X147050000Y-75437500D03*
X146550000Y-75437500D03*
X146050000Y-75437500D03*
X145550000Y-75437500D03*
X145050000Y-75437500D03*
X144550000Y-75437500D03*
X144050000Y-75437500D03*
D43*
X142637500Y-76850000D03*
X142637500Y-77350000D03*
X142637500Y-77850000D03*
X142637500Y-78350000D03*
X142637500Y-78850000D03*
X142637500Y-79350000D03*
X142637500Y-79850000D03*
X142637500Y-80350000D03*
X142637500Y-80850000D03*
X142637500Y-81350000D03*
X142637500Y-81850000D03*
X142637500Y-82350000D03*
D44*
X144050000Y-83762500D03*
X144550000Y-83762500D03*
X145050000Y-83762500D03*
X145550000Y-83762500D03*
X146050000Y-83762500D03*
X146550000Y-83762500D03*
X147050000Y-83762500D03*
X147550000Y-83762500D03*
X148050000Y-83762500D03*
X148550000Y-83762500D03*
X149050000Y-83762500D03*
X149550000Y-83762500D03*
%TD*%
D45*
%TO.C,C57*%
X174950000Y-88200000D03*
X173050000Y-88200000D03*
%TD*%
D22*
%TO.C,C24*%
X177588270Y-48000001D03*
X177588270Y-47040001D03*
%TD*%
D46*
%TO.C,R9*%
X178862632Y-109344874D03*
X179583880Y-110066122D03*
%TD*%
D47*
%TO.C,R32*%
X190383363Y-94983363D03*
X189216637Y-93816637D03*
%TD*%
D30*
%TO.C,R17*%
X173960625Y-105439376D03*
X173239377Y-106160624D03*
%TD*%
D48*
%TO.C,L2*%
X154125000Y-46800000D03*
X156275000Y-46800000D03*
%TD*%
D31*
%TO.C,C14*%
X172653001Y-75204318D03*
X173613001Y-75204318D03*
%TD*%
D41*
%TO.C,R25*%
X184775000Y-76400000D03*
X186425000Y-76400000D03*
%TD*%
D13*
%TO.C,R14*%
X174751000Y-94844000D03*
X173731000Y-94844000D03*
%TD*%
D25*
%TO.C,C45*%
X191400000Y-48750000D03*
X191400000Y-46850000D03*
%TD*%
D32*
%TO.C,R29*%
X170816637Y-112216637D03*
X171983363Y-113383363D03*
%TD*%
D13*
%TO.C,R20*%
X174400002Y-102000000D03*
X173380002Y-102000000D03*
%TD*%
D30*
%TO.C,R11*%
X173186625Y-61733376D03*
X172465377Y-62454624D03*
%TD*%
D49*
%TO.C,SW2*%
X135275000Y-116800000D03*
X135275000Y-110800000D03*
X139025000Y-116800000D03*
X139025000Y-110800000D03*
%TD*%
D31*
%TO.C,C12*%
X176463002Y-75204318D03*
X177423002Y-75204318D03*
%TD*%
D22*
%TO.C,C32*%
X189725002Y-56062000D03*
X189725002Y-55102000D03*
%TD*%
%TO.C,C20*%
X189744003Y-71048000D03*
X189744003Y-70088000D03*
%TD*%
D50*
%TO.C,C39*%
X186181948Y-111049738D03*
X185503126Y-111728560D03*
%TD*%
D31*
%TO.C,C11*%
X180146001Y-74204316D03*
X181106001Y-74204316D03*
%TD*%
D47*
%TO.C,FB10*%
X191383363Y-93783363D03*
X190216637Y-92616637D03*
%TD*%
D22*
%TO.C,C43*%
X173370000Y-99400000D03*
X173370000Y-98440000D03*
%TD*%
D15*
%TO.C,R30*%
X178225000Y-86800000D03*
X176575000Y-86800000D03*
%TD*%
D10*
%TO.C,D2*%
X142800000Y-96525001D03*
X142800000Y-94650001D03*
%TD*%
D22*
%TO.C,C7*%
X174800000Y-55600000D03*
X174800000Y-54640000D03*
%TD*%
D15*
%TO.C,FB8*%
X178225000Y-85200000D03*
X176575000Y-85200000D03*
%TD*%
D22*
%TO.C,C22*%
X177588270Y-44317000D03*
X177588270Y-43357000D03*
%TD*%
D20*
%TO.C,R5*%
X182753234Y-66500729D03*
X182753234Y-65480729D03*
%TD*%
D51*
%TO.C,C40*%
X188121179Y-94771178D03*
X188800001Y-95450000D03*
%TD*%
D24*
%TO.C,C4*%
X165400000Y-46375001D03*
X165400000Y-49325001D03*
%TD*%
D15*
%TO.C,FB2*%
X139075000Y-65250000D03*
X137425000Y-65250000D03*
%TD*%
D42*
%TO.C,C46*%
X151125000Y-84800000D03*
X154075000Y-84800000D03*
%TD*%
D31*
%TO.C,C37*%
X176553001Y-89128998D03*
X177513001Y-89128998D03*
%TD*%
D22*
%TO.C,C28*%
X189725001Y-48696000D03*
X189725001Y-47736000D03*
%TD*%
D26*
%TO.C,R24*%
X150749999Y-100162500D03*
X150749999Y-98337500D03*
%TD*%
D52*
%TO.C,C54*%
X147250000Y-72725000D03*
X147250000Y-69775000D03*
%TD*%
D22*
%TO.C,C18*%
X189744003Y-67492001D03*
X189744003Y-66532001D03*
%TD*%
%TO.C,C23*%
X176572269Y-44317001D03*
X176572269Y-43357001D03*
%TD*%
D31*
%TO.C,C13*%
X176463000Y-74204316D03*
X177423000Y-74204316D03*
%TD*%
D25*
%TO.C,C9*%
X191400000Y-63699999D03*
X191400000Y-61799999D03*
%TD*%
D24*
%TO.C,C58*%
X151800000Y-46725000D03*
X151800000Y-49675000D03*
%TD*%
D21*
%TO.C,U12*%
X173362501Y-47977732D03*
X173362501Y-48627732D03*
X173362501Y-49277732D03*
X175137501Y-49277732D03*
X175137501Y-47977732D03*
%TD*%
D19*
%TO.C,C62*%
X173275000Y-56200000D03*
X170325000Y-56200000D03*
%TD*%
D53*
%TO.C,C34*%
X173168301Y-112630797D03*
X172489479Y-111951975D03*
%TD*%
D20*
%TO.C,R6*%
X170400000Y-47931001D03*
X170400000Y-46911001D03*
%TD*%
D49*
%TO.C,SW1*%
X149800000Y-116800000D03*
X149800000Y-110800000D03*
X153550000Y-116800000D03*
X153550000Y-110800000D03*
%TD*%
D15*
%TO.C,R26*%
X192025000Y-60200000D03*
X190375000Y-60200000D03*
%TD*%
D54*
%TO.C,D1*%
X148687500Y-58500000D03*
X146812500Y-58500000D03*
%TD*%
D30*
%TO.C,R19*%
X173126238Y-104576707D03*
X172404990Y-105297955D03*
%TD*%
D13*
%TO.C,R15*%
X173846001Y-60494000D03*
X172826001Y-60494000D03*
%TD*%
D55*
%TO.C,FB9*%
X187816637Y-115183363D03*
X188983363Y-114016637D03*
%TD*%
D13*
%TO.C,R18*%
X174400002Y-100800000D03*
X173380002Y-100800000D03*
%TD*%
D18*
%TO.C,R7*%
X152162500Y-58500000D03*
X150337500Y-58500000D03*
%TD*%
D41*
%TO.C,FB1*%
X165175000Y-54800000D03*
X166825000Y-54800000D03*
%TD*%
D52*
%TO.C,C53*%
X142250000Y-72225000D03*
X142250000Y-69275000D03*
%TD*%
D23*
%TO.C,U7*%
X172639999Y-70966816D03*
X171989999Y-70966816D03*
X171339999Y-70966816D03*
X171339999Y-72741816D03*
X172639999Y-72741816D03*
%TD*%
D56*
%TO.C,C59*%
X188328249Y-111271751D03*
X189671751Y-109928249D03*
%TD*%
D24*
%TO.C,C2*%
X158600000Y-46375001D03*
X158600000Y-49325001D03*
%TD*%
D41*
%TO.C,FB5*%
X182775000Y-42600000D03*
X184425000Y-42600000D03*
%TD*%
D52*
%TO.C,C51*%
X139750000Y-72225000D03*
X139750000Y-69275000D03*
%TD*%
D57*
%TO.C,R16*%
X184113665Y-106342526D03*
X184834913Y-105621278D03*
%TD*%
D19*
%TO.C,C49*%
X139725000Y-81500000D03*
X136775000Y-81500000D03*
%TD*%
D42*
%TO.C,C47*%
X151125000Y-87400000D03*
X154075000Y-87400000D03*
%TD*%
D21*
%TO.C,U10*%
X185456234Y-71058731D03*
X185456234Y-71708731D03*
X185456234Y-72358731D03*
X187231234Y-72358731D03*
X187231234Y-71058731D03*
%TD*%
D22*
%TO.C,C25*%
X176572269Y-48000001D03*
X176572269Y-47040001D03*
%TD*%
%TO.C,C17*%
X188728001Y-63809000D03*
X188728001Y-62849000D03*
%TD*%
D26*
%TO.C,R4*%
X137500000Y-75412500D03*
X137500000Y-73587500D03*
%TD*%
D52*
%TO.C,C52*%
X144750000Y-73225000D03*
X144750000Y-70275000D03*
%TD*%
D50*
%TO.C,C38*%
X186905319Y-111812707D03*
X186226497Y-112491529D03*
%TD*%
D31*
%TO.C,C36*%
X176553004Y-88113001D03*
X177513004Y-88113001D03*
%TD*%
D23*
%TO.C,U5*%
X180139999Y-70966817D03*
X179489999Y-70966817D03*
X178839999Y-70966817D03*
X178839999Y-72741817D03*
X180139999Y-72741817D03*
%TD*%
D31*
%TO.C,C10*%
X180166000Y-75204318D03*
X181126000Y-75204318D03*
%TD*%
D10*
%TO.C,D4*%
X150800000Y-96549999D03*
X150800000Y-94674999D03*
%TD*%
D21*
%TO.C,U11*%
X173362503Y-44332730D03*
X173362503Y-44982730D03*
X173362503Y-45632730D03*
X175137503Y-45632730D03*
X175137503Y-44332730D03*
%TD*%
D58*
%TO.C,C56*%
X173728249Y-114128249D03*
X175071751Y-115471751D03*
%TD*%
D26*
%TO.C,R23*%
X146800000Y-100162500D03*
X146800000Y-98337500D03*
%TD*%
%TO.C,R1*%
X131385000Y-70541500D03*
X131385000Y-68716500D03*
%TD*%
D19*
%TO.C,C64*%
X158275000Y-42600000D03*
X155325000Y-42600000D03*
%TD*%
D13*
%TO.C,R12*%
X173846001Y-59394000D03*
X172826001Y-59394000D03*
%TD*%
D21*
%TO.C,U16*%
X185408502Y-55999000D03*
X185408502Y-56649000D03*
X185408502Y-57299000D03*
X187183502Y-57299000D03*
X187183502Y-55999000D03*
%TD*%
D59*
%TO.C,U17*%
X177717471Y-114311943D03*
X178177090Y-113852324D03*
X178636710Y-113392704D03*
X179096329Y-112933085D03*
X176108803Y-109945559D03*
X175649184Y-110405178D03*
X175189564Y-110864798D03*
X174729945Y-111324417D03*
%TD*%
D53*
%TO.C,C35*%
X173886721Y-111912376D03*
X173207899Y-111233554D03*
%TD*%
D55*
%TO.C,R31*%
X186616637Y-113983363D03*
X187783363Y-112816637D03*
%TD*%
D22*
%TO.C,C26*%
X177588270Y-51612000D03*
X177588270Y-50652000D03*
%TD*%
D40*
%TO.C,U22*%
X175552001Y-105405501D03*
X176202001Y-105405501D03*
X176852001Y-105405501D03*
X177502001Y-105405501D03*
X178152001Y-105405501D03*
X178802001Y-105405501D03*
X179452001Y-105405501D03*
X180102001Y-105405501D03*
X180102001Y-99680501D03*
X179452001Y-99680501D03*
X178802001Y-99680501D03*
X178152001Y-99680501D03*
X177502001Y-99680501D03*
X176852001Y-99680501D03*
X176202001Y-99680501D03*
X175552001Y-99680501D03*
%TD*%
D22*
%TO.C,C21*%
X188728001Y-71048000D03*
X188728001Y-70088000D03*
%TD*%
%TO.C,C42*%
X174400001Y-99400000D03*
X174400001Y-98440000D03*
%TD*%
D51*
%TO.C,C41*%
X187402760Y-95489598D03*
X188081582Y-96168420D03*
%TD*%
D22*
%TO.C,C16*%
X189744003Y-63809000D03*
X189744003Y-62849000D03*
%TD*%
D19*
%TO.C,C50*%
X142517983Y-74500000D03*
X139567983Y-74500000D03*
%TD*%
D22*
%TO.C,C29*%
X188709002Y-48696000D03*
X188709002Y-47736000D03*
%TD*%
D52*
%TO.C,C63*%
X171400000Y-99275000D03*
X171400000Y-96325000D03*
%TD*%
D21*
%TO.C,U8*%
X185456235Y-63768729D03*
X185456235Y-64418729D03*
X185456235Y-65068729D03*
X187231235Y-65068729D03*
X187231235Y-63768729D03*
%TD*%
D22*
%TO.C,C30*%
X189725002Y-52379000D03*
X189725002Y-51419000D03*
%TD*%
%TO.C,C27*%
X176572269Y-51612001D03*
X176572269Y-50652001D03*
%TD*%
D60*
%TO.C,R3*%
X136087500Y-79120000D03*
X137912500Y-79120000D03*
%TD*%
D52*
%TO.C,C55*%
X147250000Y-67975000D03*
X147250000Y-65025000D03*
%TD*%
D49*
%TO.C,SW3*%
X142537500Y-116800000D03*
X142537500Y-110800000D03*
X146287500Y-116800000D03*
X146287500Y-110800000D03*
%TD*%
D41*
%TO.C,R27*%
X179575000Y-42600000D03*
X181225000Y-42600000D03*
%TD*%
D21*
%TO.C,U13*%
X173362501Y-51622732D03*
X173362501Y-52272732D03*
X173362501Y-52922732D03*
X175137501Y-52922732D03*
X175137501Y-51622732D03*
%TD*%
D13*
%TO.C,R13*%
X173846000Y-58293999D03*
X172826000Y-58293999D03*
%TD*%
M02*
